<svg
      xmlns="http://www.w3.org/2000/svg"
      version="1.1"
      viewBox="0 0 420.91 399.56"
    >
      <g transform="translate(-221.22 -170.99)">
        <path
          fill="#fff"
          d="M355.04 170.99c-2.828.043-6.11.419-10.906 1.07-19.813 2.687-31.04 5.26-31.702 7.217-.314.926-2.623 1.662-5.132 1.657-7.311-.008-20.455 5.435-25.287 10.478-3.524 3.677-4.606 6.8-6.415 20.529a72.029 72.029 0 00-.749 6.361c-.018.231-.038.464-.054.695-1.08 9.33-1.548 16.484-1.069 22.08-.005.066.005.143 0 .213-.052 18.907 19.436 28.57 35.765 30.793 4.246 2.126 7.952 2.004 11.44.963 3.607.19 5.45-.698 9.463-3.101 2.815-1.687 5.53-2.796 8.393-3.315 2.887 2.221 6.725 1.337 9.997-.428 6.22-.578 9.781-3.233 11.655-8.607l1.39-3.956c6.513 13.42 8.097 29.251 10.96 43.731.423 6.355.449 12.68.267 19.032-.208 4.107-.51 8.842-.909 14.916-.376 5.729-.682 11.258-1.015 16.787-.162 2.678-.342 5.486-.481 7.912-.118 2.018-.236 4.023-.321 6.041-.018.41-.039.82-.056 1.23-.154 2.926-.377 6.921-.428 8.393l-.267 7.752c-.336.255-.727.657-1.123 1.337l-3.262-3.85c-10.168-12.011-17.024-15.506-34.375-17.427-15.405-1.706-25.098 2.444-41.005 17.642l-13.312 12.724-5.72-2.94c-6.295-3.259-40.038-14.382-43.624-14.382-1.25 0-2.245.693-2.245 1.497 0 .804 7.463 2.73 14.755 4.865 6.534 1.935 11.937 4.558 21.224 8.126 3.722 1.357 5.436 1.946 7.538 2.727 1.904 2.989 10.658 12.339 11.815 29.778 8.947-40.718 32.567-58.45 51.75-56.08 4.359.856 3.822.767 6.469 1.39 13.032 3.175 14.589 8.12 24.11 14.488 2.944 4.22 3.865 6.141 4.704 6.79 4.136 5.676 2.361 11.663 11.655 25.607 9.032 10.535 14.456 20.02 24.645 24.806 49.271 15.811 89.908-20.769 70.408-17.589-58.83 9.594-91.645-103.21-80.619-151.03-3.523-20.954 28.245 23.757 18.07 1.818-6.009-15.217-17.676-27.575-24.966-41.913-8.04-15.414-11.118 1.098-18.124 8.981-2.613 10.457-17.235-1.767-14.327 5.026 2.004 2.264 3.716 4.651 5.239 7.163-.782 2.08-2.613 6.752-5.988 8.02-1.742 1.263-3.312 2.034-4.81 2.565-1.874-7.805-7.643-18.657-9.57-27.05-16.704-17.018-1.97 14.623-4.33 23.468-2.3 18.471-9.608-5.602-10.479-11.815-3.56-11.062-1.037-44.102-19.887-29.029-.71 5.269 8.8 24.824 5.988 36.407.78 18.443-5.501-2.482-5.721-9.248-2.612-4.853-1.63-33.206-13.044-44.105-2 2.13-4.684 3.645-6.736 3.956-.044-.61-.084-1.254-.214-2.139-.588-4.007.116-6.176 2.727-8.393 4.896-4.134 14.246-6.174 19.888-7.27 2.69 0 5.315-.67 5.826-1.497.512-.828 2.487-1.91 4.385-2.406 1.897-.496 16.723-4.365 29.403-5.614 9.244-.91 13.596-.397 22.935 2.62 19.73 6.374 23.67 9.043 28.013 19.192 2.135 4.99 7.654 16.873 12.242 26.41 4.587 9.536 8.339 17.812 8.339 18.39 0 .579 1.167 2.416 2.62 4.063 1.453 1.647 8.237 11.462 15.076 21.812 6.839 10.35 17.44 26.132 23.522 35.07 6.083 8.939 11.995 18.177 13.151 20.529 1.157 2.352 4.03 7.356 6.362 11.12 10.796 17.419 19.153 41.703 21.331 61.854.865 7.998 3.045 16.917 5.08 20.903 3.707 7.267 4.754 19.783 1.817 21.598-.759.469-1.382 1.663-1.604 2.887-3.52 4.605-8.705 13.839-18.497 17.428-33.58 13.655-94.347 7.555-107.03.16 22.494 20.8 29.042 22.19 30.793 40.31-20.107 2.066-101.64 4.019-115.48-17.427.937-17.098 58.076-15.34 65.543-57.364-9.15 10.653-38.105 58.284-97.085 16.519-7.708-5.459-66.987-18.008-15.236 18.39-8.056 12.45-27.413 11.373-27.372 25.929l.214 84.415c.087-.122.18-.25.267-.374.457 4.327 8.399-2.462 16.947-19.085l8.233-15.985h.535c18.687 1.24 36.927 6.152 55.386 9.035a177.25 177.25 0 0024.645-.428c.332-.023.68-.08 1.016-.104.98-.09 1.962-.162 2.94-.267.475-.045.962-.105 1.443-.16 4.935-.535 10.195-1.28 16.092-2.3 28.041-4.851 65.23-20.516 90.883-38.277 8.978-6.216 22.242-14.078 29.457-17.482 17.572-8.289 35.957-26.315 40.15-39.294 3.812-11.806 3.62-18.922-.803-28.922-2.022-4.571-4.272-14.096-5.025-21.17-2.028-19.048-10.62-43.678-21.224-60.785-2.332-3.764-5.205-8.768-6.361-11.12-1.157-2.353-7.07-11.591-13.151-20.53-6.083-8.938-16.66-24.72-23.523-35.07-6.864-10.35-13.533-20.357-14.81-22.24-1.276-1.881-6.706-12.658-12.028-23.95-16.378-34.743-16.875-35.607-24.164-39.667-3.737-2.082-12.056-5.466-18.497-7.538-6.69-2.151-10.096-3.014-14.81-2.94zm-69.662 55.225l1.453 19.636c-2.403 11.893-5.826-15.762-1.453-19.636z"
        ></path>
      </g>
    </svg>