<?xml version="1.0" standalone="no"?>
<!DOCTYPE svg PUBLIC "-//W3C//DTD SVG 20010904//EN"
 "http://www.w3.org/TR/2001/REC-SVG-20010904/DTD/svg10.dtd">
<svg version="1.0" xmlns="http://www.w3.org/2000/svg"
 viewBox="0 0 1200.000000 1075.000000"
 preserveAspectRatio="xMidYMid meet">

<g transform="translate(0.000000,675.000000) scale(0.100000,-0.100000)"
fill="#292929" stroke="#fff">
<path d="M0 3375 l0 -3375 6000 0 6000 0 0 3375 0 3375 -6000 0 -6000 0 0
-3375z m4237 2554 c45 -57 121 -145 170 -196 l88 -92 75 13 c41 8 76 13 78 11
2 -1 -16 -17 -40 -36 -24 -18 -47 -36 -51 -39 -5 -4 16 -31 47 -60 70 -67 273
-230 287 -230 5 0 40 20 77 44 72 46 112 69 112 63 0 -2 -20 -39 -45 -83 -25
-43 -45 -82 -45 -85 0 -23 321 -189 365 -189 6 0 44 43 85 96 50 64 76 91 78
80 2 -9 -4 -62 -13 -117 -10 -56 -13 -104 -9 -109 27 -23 333 -76 398 -68 29
3 30 6 66 143 l37 140 13 -45 c6 -25 23 -83 36 -129 13 -46 24 -89 24 -97 0
-17 -5 -16 100 -4 135 16 310 61 310 80 0 8 -7 58 -15 110 -8 52 -15 101 -15
109 0 7 36 -32 80 -87 l80 -100 53 20 c104 39 317 153 317 169 0 6 -19 44 -41
85 -23 41 -40 76 -38 78 2 2 42 -21 88 -50 47 -30 88 -54 93 -54 11 0 233 170
297 227 l54 49 -51 40 c-56 43 -64 57 -29 50 12 -3 50 -10 85 -17 l63 -12 60
59 c33 32 104 108 157 168 53 60 112 126 131 145 l34 36 -28 -40 c-54 -76
-180 -230 -253 -306 l-73 -77 86 -54 c48 -29 96 -61 108 -71 20 -17 21 -18 2
-12 -11 4 -75 21 -141 38 l-122 31 -88 -75 c-49 -41 -127 -103 -174 -138 -47
-35 -86 -67 -88 -72 -2 -5 37 -66 85 -136 49 -71 93 -135 98 -143 9 -14 -87
57 -229 171 l-58 47 -72 -40 c-81 -45 -274 -138 -286 -138 -20 0 -19 -25 5
-112 15 -51 28 -99 30 -106 3 -8 35 10 87 49 87 65 162 105 214 115 54 10 146
-31 259 -116 40 -30 40 -30 95 -16 129 33 221 28 283 -16 56 -40 110 -144 151
-290 14 -49 20 -57 46 -63 17 -4 56 -24 88 -45 105 -71 160 -193 142 -317 -7
-51 -5 -71 7 -101 43 -102 52 -179 29 -274 -13 -55 -12 -59 9 -91 42 -62 57
-160 35 -239 -15 -53 -83 -139 -206 -260 -137 -134 -199 -186 -296 -251 -43
-29 -78 -54 -78 -57 0 -8 280 -93 406 -125 56 -13 109 -27 117 -31 12 -4 16 6
22 48 26 199 51 357 81 518 54 276 140 659 168 742 66 197 81 299 73 507 -7
186 -43 377 -113 583 -24 73 -44 136 -44 140 0 12 320 10 441 -2 163 -17 341
-66 462 -126 102 -52 273 -172 325 -229 169 -184 253 -594 211 -1021 -14 -146
-60 -372 -104 -519 l-37 -119 25 -116 c49 -222 51 -239 51 -480 0 -247 -5
-293 -59 -535 -107 -477 -402 -1037 -750 -1426 l-32 -35 -89 8 c-129 12 -411
71 -544 114 -247 78 -451 163 -740 308 -297 148 -740 389 -813 441 -34 25 -78
56 -97 69 -19 14 -141 102 -270 195 -129 94 -241 168 -248 166 -11 -4 -268
-188 -497 -355 -129 -94 -193 -134 -370 -230 -419 -227 -834 -430 -1032 -506
-249 -95 -547 -172 -772 -199 l-116 -14 -33 37 c-18 20 -70 84 -116 142 -310
392 -548 877 -640 1308 -45 209 -48 234 -53 442 -6 237 4 355 48 539 l29 124
-35 109 c-39 119 -89 357 -105 495 -13 115 -13 406 0 511 26 208 104 422 193
533 53 66 225 185 368 254 111 53 286 99 438 115 94 9 441 15 441 7 0 -2 -20
-62 -44 -133 -46 -134 -88 -307 -106 -432 -13 -92 -13 -359 -1 -434 11 -66 46
-193 66 -241 51 -124 245 -1124 245 -1266 0 -17 4 -32 8 -35 16 -9 542 142
542 156 0 4 -15 15 -32 24 -75 38 -320 243 -414 345 -121 134 -146 183 -145
292 0 48 7 74 31 123 29 55 31 65 21 100 -19 67 -14 177 11 236 17 43 22 74
22 163 1 104 3 114 34 178 39 78 103 136 182 164 l48 17 22 80 c38 141 102
245 174 283 41 23 171 22 249 -1 l58 -17 62 47 c72 55 146 91 202 99 33 5 53
0 110 -28 39 -19 99 -56 134 -81 35 -26 67 -44 71 -39 8 8 53 185 48 188 -2 0
-41 18 -88 39 -47 20 -129 62 -183 92 -53 30 -99 54 -102 54 -3 0 -65 -46
-138 -103 -72 -57 -137 -107 -144 -111 -7 -3 6 19 28 51 22 32 55 81 73 108
19 28 47 67 62 88 25 34 26 40 13 48 -36 20 -140 102 -235 187 l-101 90 -124
-33 c-68 -19 -132 -37 -141 -40 -10 -4 -18 -3 -18 1 0 5 47 38 105 73 58 35
105 66 105 68 0 3 -31 42 -68 87 -94 111 -159 197 -221 291 -60 91 -41 73 76
-76z"/>
<path fill="#fff" d="M3375 5139 c-185 -12 -379 -61 -510 -127 -27 -13 -99 -58 -160 -98
-121 -80 -162 -125 -218 -240 -75 -152 -111 -348 -110 -609 1 -256 35 -480
113 -734 l40 -128 -20 -79 c-119 -459 -79 -914 127 -1444 75 -194 259 -529
386 -705 58 -79 148 -194 183 -232 l39 -42 95 14 c500 77 899 232 1650 642
324 176 303 163 715 462 312 226 648 480 855 646 69 55 139 111 157 125 18 14
90 70 160 125 204 160 203 160 427 180 111 9 175 20 206 33 76 33 208 140 367
298 139 138 153 155 168 206 20 69 10 122 -35 185 l-32 44 17 70 c23 91 16
177 -18 244 -24 48 -24 53 -14 137 11 86 11 87 -19 144 -36 71 -95 119 -173
140 l-58 16 -22 95 c-29 119 -82 228 -125 255 -26 16 -43 19 -106 15 -41 -3
-100 -14 -130 -26 -30 -12 -58 -21 -62 -21 -3 0 -33 23 -65 50 -61 53 -163
110 -195 110 -58 0 -228 -119 -338 -237 -150 -159 -175 -245 -220 -743 -14
-151 -27 -243 -36 -257 -7 -12 -28 -33 -46 -46 -41 -31 -326 -183 -473 -253
-60 -28 -195 -93 -298 -143 -104 -50 -190 -91 -192 -91 -2 0 -41 -18 -87 -39
-273 -129 -376 -170 -703 -279 -198 -66 -405 -133 -460 -147 -299 -79 -338
-87 -333 -67 5 16 -14 205 -32 327 -54 359 -175 918 -240 1114 -47 141 -63
267 -57 466 3 94 12 206 20 250 21 109 64 276 87 339 11 28 20 54 20 59 0 8
-91 7 -245 -4z m55 -98 c0 -5 -33 -29 -73 -55 -184 -114 -404 -311 -450 -402
-64 -126 -97 -318 -97 -562 0 -183 17 -307 55 -390 43 -97 80 -121 295 -198
52 -19 125 -54 161 -79 65 -44 206 -181 197 -191 -3 -2 -41 12 -84 31 -107 49
-237 86 -304 86 -106 1 -206 -46 -299 -139 -81 -83 -135 -176 -202 -352 -28
-74 -55 -144 -60 -155 -15 -33 -1 299 16 400 18 97 54 213 90 284 l22 44 -44
99 c-85 195 -114 371 -116 708 -1 228 10 310 53 408 29 64 101 162 159 214 97
87 290 167 552 227 68 16 125 29 127 30 1 1 2 -3 2 -8z m3623 -223 c27 -21 67
-81 67 -101 0 -18 -5 -19 -51 -13 -49 7 -53 5 -107 -36 -121 -91 -171 -164
-124 -183 9 -3 47 -9 84 -12 78 -7 95 -1 228 75 287 166 296 170 340 147 48
-25 81 -73 78 -114 -3 -33 -7 -37 -53 -54 -27 -10 -107 -31 -177 -47 -260 -57
-316 -89 -374 -215 -51 -111 -65 -235 -30 -264 6 -5 36 -11 66 -13 48 -3 55
-6 58 -25 8 -58 -247 -340 -518 -572 -70 -61 -124 -96 -205 -136 -111 -54
-411 -184 -534 -232 -359 -137 -464 -176 -726 -268 -246 -86 -442 -145 -479
-145 -44 1 50 62 254 163 113 56 241 119 285 139 44 20 141 64 215 98 124 57
407 185 655 297 389 175 472 231 510 344 26 78 63 269 90 464 60 432 63 442
167 541 87 81 219 174 247 174 10 0 25 -6 34 -12z m-1938 -3194 c-375 -207
-847 -452 -1025 -532 -25 -11 -81 -37 -125 -57 -249 -114 -476 -188 -583 -189
l-74 -1 -57 60 c-69 74 -157 219 -223 369 -46 102 -108 262 -108 275 0 3 18
-24 39 -61 124 -212 319 -393 450 -418 212 -40 859 175 1666 554 77 36 145 65
150 66 6 0 -44 -30 -110 -66z"/>
<path  fill="#fff" d="M8383 5128 c3 -13 17 -59 30 -103 35 -113 74 -295 86 -395 13 -116 6
-357 -14 -458 -9 -46 -27 -114 -40 -150 -89 -252 -265 -1163 -274 -1419 -1
-16 -7 -23 -20 -23 -52 0 -521 133 -711 201 -79 29 -91 30 -170 24 -93 -7
-130 -14 -130 -24 0 -4 39 -26 88 -49 152 -74 216 -122 164 -122 -24 0 -178
44 -284 81 l-87 31 -173 -138 c-95 -77 -190 -152 -211 -169 -22 -16 -67 -52
-102 -80 -35 -27 -152 -117 -259 -199 -108 -83 -196 -153 -196 -157 0 -4 73
-60 163 -125 89 -64 178 -129 197 -143 153 -116 330 -228 560 -352 729 -392
1101 -544 1515 -619 265 -48 231 -51 302 33 34 40 97 123 141 184 288 402 477
827 557 1253 23 119 29 182 32 351 6 223 -4 319 -54 534 l-25 110 40 135 c117
392 143 780 76 1110 -30 144 -88 278 -153 352 -71 80 -315 229 -446 271 -125
41 -387 77 -564 77 -40 0 -43 -2 -38 -22z m544 -173 c215 -71 334 -150 425
-282 91 -133 112 -246 105 -553 -8 -342 -34 -485 -123 -680 l-36 -78 21 -40
c36 -71 70 -171 86 -255 19 -99 36 -379 25 -416 -5 -14 -9 -20 -9 -13 -2 27
-94 259 -131 331 -78 150 -175 241 -308 291 -103 39 -223 20 -431 -70 -40 -17
-75 -30 -77 -27 -2 2 33 41 79 86 95 96 176 148 302 192 143 50 210 83 234
117 77 109 106 262 97 517 -12 354 -58 495 -212 649 -70 70 -233 198 -330 259
-46 28 -84 55 -84 58 0 12 238 -44 367 -86z m-2044 -3314 c160 -76 237 -111
241 -111 3 0 33 -13 68 -29 103 -48 262 -115 443 -186 472 -187 807 -273 953
-246 126 25 325 208 442 408 22 37 40 65 40 62 0 -12 -50 -147 -83 -224 -99
-231 -211 -405 -293 -456 -31 -19 -45 -21 -97 -15 -158 16 -449 128 -872 336
-295 145 -956 499 -932 500 4 0 44 -18 90 -39z"/>
<path fill="#000" d="M5992 5005 c0 -16 2 -22 5 -12 2 9 2 23 0 30 -3 6 -5 -1 -5 -18z"/>
<path   d="M6415 4954 c-55 -15 -188 -39 -276 -49 -56 -6 -57 -6 -62 -43 -38
-261 -70 -461 -76 -476 -4 -11 -21 73 -40 205 -19 123 -37 242 -40 264 l-7 40
-115 12 c-63 6 -149 19 -190 28 -40 9 -86 18 -100 21 -24 6 -31 -1 -74 -67
-26 -40 -54 -88 -63 -106 l-15 -32 52 -56 c144 -158 183 -298 226 -800 14
-160 19 -193 35 -210 11 -10 88 -56 172 -101 l153 -82 145 75 c80 42 157 84
172 94 31 23 31 23 58 313 40 435 77 557 217 709 l44 48 -23 37 c-96 157 -117
187 -129 188 -8 1 -36 -5 -64 -12z"/>
<path fill="#fff" d="M4915 4864 c-27 -14 -81 -50 -118 -81 l-68 -54 -62 22 c-44 16 -85
23 -144 23 -73 1 -84 -1 -108 -24 -37 -35 -81 -131 -109 -240 -26 -101 -25
-100 -105 -120 -57 -15 -134 -87 -157 -146 -14 -36 -16 -62 -10 -134 6 -77 4
-95 -12 -127 -44 -89 -48 -155 -16 -270 l14 -52 -34 -45 c-61 -80 -60 -174 4
-254 54 -68 261 -267 355 -342 94 -75 165 -109 237 -117 46 -4 74 2 217 52 93
32 286 113 445 187 155 72 291 134 304 139 29 11 28 21 -7 42 -123 73 -537
494 -594 604 -21 39 -20 38 -2 56 10 10 27 13 58 10 67 -8 80 11 75 108 -4 62
-12 91 -42 155 -44 93 -65 118 -126 149 -62 31 -95 41 -253 74 -212 46 -255
73 -227 141 13 31 61 73 95 84 23 7 143 -47 235 -106 30 -19 96 -57 145 -83
l90 -47 79 6 c79 6 106 17 106 42 0 21 -74 98 -143 150 -57 42 -62 44 -108 38
-48 -6 -49 -6 -49 20 0 33 64 106 94 106 33 0 182 -106 267 -190 l76 -75 22
-116 c11 -64 33 -199 47 -300 28 -208 65 -397 94 -492 16 -51 30 -73 67 -108
50 -47 145 -108 207 -134 34 -15 39 -14 87 10 42 22 48 29 39 41 -7 7 -17 14
-23 14 -14 0 -201 106 -244 138 -17 12 -34 30 -37 39 -6 15 -17 113 -31 278
-20 238 -58 466 -90 540 -53 124 -267 332 -406 395 -57 25 -74 25 -134 -6z"/>
<path fill="#fff" d="M5993 4750 c0 -47 2 -66 4 -42 2 23 2 61 0 85 -2 23 -4 4 -4 -43z"/>
</g>
</svg>
