<?xml version="1.0" encoding="iso-8859-1"?>
<!-- Uploaded to: SVG Repo, www.svgrepo.com, Generator: SVG Repo Mixer Tools -->
<!DOCTYPE svg PUBLIC "-//W3C//DTD SVG 1.1//EN" "http://www.w3.org/Graphics/SVG/1.1/DTD/svg11.dtd">
<svg fill="#000000" version="1.1" id="Capa_1" xmlns="http://www.w3.org/2000/svg" xmlns:xlink="http://www.w3.org/1999/xlink" 
	 width="800px" height="800px" viewBox="0 0 287.542 287.542"
	 xml:space="preserve">
<g>
	<g>
		<path d="M228,76.696c-4.022-5.062-7.816-9.842-10.536-13.69c-16.163-22.895-54.535-43.09-75.145-53.938
			c-2.463-1.294-4.657-2.451-6.494-3.441C128.917,1.892,122.161,0,115.738,0c-8.95,0-15.929,3.795-19.599,7.57
			c-2.37,2.078-15.095,13.609-23.184,27.892c-5.425,9.572-4.543,17.454-2.84,22.373c1.082,3.145,2.704,5.735,4.468,7.835
			c-0.386,8.473,3.919,16.366,8.643,21.305l0.436,0.452l0.486,0.396c9.11,7.538,19.646,11.364,31.305,11.364
			c10.14,0,19.551-2.962,27.055-6.407c4.897,12.152,12.873,26.36,21.251,39.81c-0.646-0.005-1.255-0.011-1.85-0.021
			c-11.715,0-22.616,6.659-31.495,19.019c-10.767-6.436-26.544-11.402-45.327-11.402c-19.646,0-33.929,6.104-43.002,11.854
			c-7.177-4.001-15.953-5.674-21.567-6.367l-1.032-0.111h-0.703c-6.756,0-12.489,5.066-13.326,11.774
			c-0.445,3.57,0.527,7.087,2.735,9.928c2.211,2.828,5.399,4.635,8.956,5.064c4.415,0.553,8.795,1.827,11.113,2.835
			c1.37,3.402,4.1,6.194,7.593,7.539c1.56,0.608,3.2,0.923,4.872,0.923c0,0,0,0,0.005,0c3.801,0,7.443-1.616,9.874-4.314
			c0.478-0.504,11.956-12.263,34.478-12.263c20.523,0,32.339,7.611,35.457,10.414c1.365,4.804,5.357,8.578,10.492,9.522l1.457,0.221
			h0.979c5.569,0,10.483-3.359,12.516-8.546c3.099-7.854,10.752-19.212,16.495-19.212c7.27,0.072,18.215,0.179,24.258,7.338
			l1.759,2.426c2.529,3.423,6.577,5.459,10.818,5.459c2.729,0,5.365-0.808,7.638-2.373c6.01-4.152,7.611-12.204,3.659-18.351
			c-0.782-1.22-1.607-2.353-2.446-3.412c-25.785-36.021-43.786-68.251-43.786-78.443c0-5.197-3.039-9.977-7.727-12.155
			c-1.773-0.837-3.742-1.284-5.711-1.284c-3.129,0-6.18,1.102-8.55,3.063c-0.128,0.107-13.288,10.664-26.892,10.664
			c-5.011,0-9.365-1.467-13.294-4.494c-0.134-0.181-0.27-0.375-0.383-0.564c1.635-2.981,2.071-6.47,1.189-9.835
			c-0.985-3.763-3.607-6.958-6.817-8.538c0.044-0.077,0.087-0.155,0.134-0.242c5.559-9.808,15.149-18.825,17.96-21.357l0.35-0.305
			c0.171-0.06,0.533-0.152,1.129-0.152c1.076,0,3.462,0.313,7.278,2.378c1.913,1.032,4.191,2.237,6.756,3.581
			c17.291,9.1,53.271,28.031,65.711,45.651c3.093,4.375,6.926,9.202,11.439,14.895c18.21,22.959,45.519,57.365,48.205,96.757
			c-2.613,4.567-9.827,15.13-24.688,24.231c-5.591,3.423-13.312,7.098-23.197,10.142c7.984-5.716,14.272-13.911,18.414-24.263
			c1.335-3.327,1.293-6.981-0.109-10.278c-1.418-3.307-4.032-5.858-7.344-7.181c-1.597-0.642-3.27-0.977-5.008-0.977
			c-5.522,0-10.426,3.318-12.473,8.452c-3.051,7.643-7.518,12.525-13.648,14.901c-3.14,1.224-6.83,1.844-10.962,1.844
			c-12.419,0-24.198-5.475-24.299-5.513c-1.801-0.86-3.806-1.322-5.8-1.322c-5.143,0-9.898,3.002-12.108,7.602
			c-1.565,3.243-1.77,6.887-0.581,10.278c1.188,3.392,3.622,6.11,6.816,7.643c0.945,0.463,6.093,2.877,13.557,4.977
			c-13.664-0.473-28.236-2.141-43.536-5.135l-1.585-0.283h-1.103c-2.8,0-5.488,0.862-7.771,2.478
			c-2.996,2.132-5.016,5.428-5.522,9.009c-0.767,5.04-4.392,20.001-11.927,28.358c-4.961,5.5-4.509,14.016,1.011,18.991
			c2.472,2.215,5.659,3.434,8.981,3.434c3.785,0,7.417-1.605,9.986-4.451c7.974-8.851,12.699-20.21,15.376-28.936
			c15.184,2.395,29.706,3.602,43.275,3.602c95.613,0.011,120.087-59.171,120.266-59.622c0.712-1.745,1.05-3.581,1.013-5.534
			C280.566,142.963,248.934,103.096,228,76.696z M144.846,216.082c-1.338-0.651-1.902-2.247-1.255-3.592
			c0.642-1.332,2.25-1.896,3.588-1.249c0.247,0.115,24.427,11.538,43.802,3.989c8.913-3.47,15.564-10.519,19.732-20.939
			c0.558-1.376,2.121-2.046,3.479-1.495c1.387,0.561,2.049,2.124,1.493,3.49c-4.747,11.873-12.427,19.937-22.783,23.969
			c-5.544,2.141-11.34,2.95-16.908,2.95C159.878,223.205,145.642,216.454,144.846,216.082z M271.244,194.05
			c-0.247,0.624-22.398,52.972-110.327,52.972c-15.086,0-32.074-1.521-51.255-5.134c-1.284,6.489-5.362,22.887-15.399,34.027
			c-0.538,0.592-1.262,0.891-2,0.891c-0.64,0-1.284-0.22-1.801-0.681c-1.102-1.002-1.194-2.698-0.199-3.802
			c11.39-12.656,14.535-33.752,14.566-33.957c0.108-0.74,0.507-1.382,1.107-1.812c0.604-0.426,1.37-0.593,2.071-0.451
			c67.381,13.197,106.831,0.467,128.076-12.536c20.745-12.696,28.618-28.12,29.963-31.028
			c-1.685-44.074-31.149-81.198-50.678-105.81c-4.366-5.506-8.147-10.263-11.087-14.417c-13.927-19.728-50.063-38.746-69.488-48.964
			c-2.523-1.328-4.764-2.506-6.646-3.528c-14.491-7.833-20.8-0.698-20.866-0.622c-0.42,0.402-13.024,11.363-20.312,24.221
			c-1.963,3.467-2.517,6.541-1.636,9.139c1.344,3.972,5.673,5.854,5.709,5.875c0.769,0.328,1.344,0.989,1.554,1.791
			c0.209,0.8,0.047,1.662-0.457,2.323c-4.35,5.68,2.226,12.792,2.503,13.094c23.723,19.616,54.257-5.343,54.558-5.595
			c0.803-0.666,1.92-0.814,2.859-0.367c0.956,0.441,1.549,1.393,1.549,2.436c0,19.583,37.034,72.457,45.949,84.903
			c0.693,0.873,1.363,1.785,2,2.787c0.781,1.218,0.467,2.841-0.735,3.675c-1.197,0.82-2.819,0.558-3.695-0.618
			c-0.194-0.283-0.867-1.197-1.906-2.636c-9.186-11.276-24.283-11.411-32.636-11.507c-0.047,0-0.109,0-0.147,0
			c-16.23,0-26.367,25.806-26.469,26.058c-0.473,1.213-1.709,1.905-3.002,1.685c-1.271-0.241-2.194-1.343-2.194-2.644
			c0-3.734-16.638-17.472-45.691-17.472c-27.892,0-42.208,15.534-42.347,15.686c-0.748,0.83-1.942,1.113-2.963,0.719
			c-1.037-0.399-1.725-1.401-1.725-2.514c0-3.984-11.375-7.513-19.588-8.536c-1.472-0.179-2.527-1.512-2.344-2.997
			c0.183-1.48,1.554-2.519,2.995-2.331c3.365,0.399,17.846,2.542,22.712,9.146c5.916-4.978,20.271-14.553,43.26-14.553
			c22.954,0,41.424,8.599,48.24,16.641c4.289-8.535,14.185-24.439,28.839-24.258c5.849,0.058,15.13,0.148,23.876,3.737
			c-13.171-19.351-33.755-51.732-37.286-70.073c-9.715,6.514-35.836,20.707-57.776,2.559c-3.296-3.447-7.666-10.833-4.667-17.659
			c-2.071-1.404-4.78-3.848-6.052-7.552c-1.426-4.124-0.738-8.693,2.032-13.575c7.75-13.685,20.641-24.876,21.184-25.343
			c0.071-0.139,8.956-10.202,27.215-0.333c1.876,1.01,4.103,2.181,6.602,3.499c19.824,10.428,56.701,29.84,71.357,50.619
			c2.855,4.037,6.594,8.736,10.897,14.182c20.054,25.276,50.359,63.469,51.86,109.574
			C271.449,193.346,271.387,193.697,271.244,194.05z"/>
	</g>
</g>
</svg>