<svg
      xmlns="http://www.w3.org/2000/svg"
      id="Layer_1"
      x="0"
      y="0"
      version="1.1"
      viewBox="0 0 1112.215 1025.228"
      xmlSpace="preserve"
    >
      <g
        fillRule="evenodd"
        stroke="#fff"
        strokeMiterlimit="10"
        clipRule="evenodd"
      >
        <path
        fill="#fff"
          strokeWidth="3"
          d="M581.12 926.23c-1.651-2.462-3.688-2.467-6.56-2.015-7.905 1.246-15.09-.645-22.917-3.323-11.338-3.882-19.172-13.928-31.466-15.615-5.011-.688-6.494-5.508-6.339-10.369.272-8.596 4.644-15.05 10.954-20.346 5.973-5.011 11.289-10.434 14.477-17.753.896-2.057 2.619-3.982 4.421-5.378 10.053-7.796 16.28-18.204 22.143-29.311 8.063-15.279 17.976-29.543 28.275-43.425 4.311-5.812 4.869-11.075 1.955-17.457-5.39-11.804-12.126-22.38-21.895-31.29-15.518-14.155-33.137-26.059-46.26-42.806-9.535-12.167-18.229-24.786-24.368-39.13-4.152-9.707-10.005-18.414-18.602-25.033-13.188-10.156-19.208-23.172-15.291-39.959.36-1.548.261-3.204.398-5.165-8.768 3.411-16.66 8.863-25.896 8.9-7.804.031-15.066 1.325-22.236 4.772-.162 1.467 1.395 2.342 2.631 3.327 18.104 14.42 25.72 34.887 32.863 55.838 5.731 16.811 8.611 34.364 14.406 51.14 8.468 24.517 23.202 45.627 36.259 67.653 5.536 9.342 7.033 19.858 4.74 29.713-2.858 12.277-14.382 16.979-25.327 19.554-15.198 3.577-28.188 10.835-40.45 19.937-2.622 1.945-5.141 4.041-7.622 6.165-13.609 11.646-28.152 20.814-47.221 19.145-6.876-.603-13.278 2.375-19.882 3.733-9.979 2.052-18.597-.391-25.884-7.113-3.033-2.795-6.193-4.895-10.09-5.885-7.355-1.869-10.828-7.021-11.585-14.091-.756-7.068 2.976-14.736 9.056-16.715 22.339-7.267 38.767-22.961 55.669-38.044 5.111-4.561 9.048-10.021 12.242-16.094 4.568-8.685 9.261-17.391 15.857-24.695 4.164-4.613 3.524-8.7.756-13.288-4.31-7.135-10.321-12.788-16.828-17.722-24.831-18.826-44.331-41.871-58.602-69.696-5.859-11.423-15.537-20.38-24.938-29.193-1.194-1.118-2.49-2.125-3.713-3.213-27.826-24.747-25.974-62.079 4.432-83.903 6.577-4.72 12.148-10.138 16.89-16.603 4.998-6.813 10.8-12.853 17.377-18.227 5.475-4.477 11.65-8.102 14.62-15.428 1.844-4.55 7.228-6.624 11.97-7.915 8.319-2.266 16.767-4.089 25.211-5.854 9.428-1.97 18.87-2.249 27.81-7.823 8.623-5.375 19.439-3.669 29.394-1.208 4.522 1.118 9.015 2.365 13.561 3.375 1.599.355 3.482.251 4.088-1.74.538-1.764.629-3.565-.744-5.232-15.14-18.383-32.139-35.001-49.04-51.713-.454-.45-1.106-.7-2.447-1.521-1.446 8.174-5.585 12.979-13.634 15.909-6.141 2.234-12.363 6.442-15.899 13.074-1.71 3.207-5.05 5.106-8.583 5.574-7.919 1.048-15.988 1.426-23.551-1.618-7.184-2.893-14.149-5.587-16.563-14.939-2.009-7.783-7.267-14.803-12.713-20.749-11.116-12.137-11.265-27.756-15.145-42.226-4.578-17.07-1.262-33.864 1.905-50.633 3.539-18.738 1.236-37.227-1.979-55.713-.271-1.56-1.319-2.387-2.103-3.498-6.646-9.416-10.703-19.729-10.01-31.408.291-4.886-1.248-6.433-6.223-6.361-10.282.148-20.58-.268-30.857-.746-4.813-.224-7.005.394-7.514 6.394-2.911 34.31-12.51 66.49-33.588 94.329-13.299 17.566-30.287 29.084-53.339 28.918-10.612-.077-20.105-3.476-28.514-10.076-24.147-18.953-35.478-45.049-41.387-74.126-3.035-14.932-4.581-30.075-3.995-45.302.22-5.698-1.634-6.766-6.921-6.77-13.083-.012-26.163-.816-39.246-1.231-6.525-.207-10.317-4.248-10.331-11.227-.015-6.806 4.503-12.576 10.282-12.469 13.786.256 27.62.225 41.331 1.46 7.097.638 7.849-2.969 8.759-7.995 4.365-24.08 11.466-47.232 25.963-67.298 9.891-13.69 20.829-26.729 37.552-32.59 21.471-7.524 40.593-3.234 56.661 12.92 19.864 19.975 29.692 44.896 34.304 72.147 1.402 8.278 2.101 16.688 2.827 25.063.223 2.567.694 3.626 3.549 3.669 13.325.198 26.647.611 39.968 1.026 2.404.076 3.864-.667 4.835-3.012 1.302-3.144 3.849-6.172 6.953-6.481 10.811-1.078 20.303-7.832 31.735-6.624 3.901.413 8.511-.027 12.384-1.07 10.273-2.767 18.747.854 27.122 5.84 1.567.654 2.999 1.736 3.638 3.171 3.259 7.31 9.305 8.182 16.237 7.555 4.224-.383 8.313 1.298 12.528 1.221 1.996-.037 5.093.489 5.282-2.044.216-2.89-2.967-2.272-4.871-2.374-4.664-.247-9.368.242-14.011-.225-7.243-.728-14.604-1.474-18.753-8.862-7.425-27.302-9.698-55.213-8.113-83.287 1.586-28.106 25.092-51.897 54.388-57.104 11.173-1.986 22.425-2.078 33.578-1.044 27.475 2.544 47.72 25.414 49.314 54.687.645 11.842-.864 23.383-4.719 34.512-3.658 10.563-2.262 20.168 3.829 29.307.52.779 1.168 1.486 1.592 2.311 6.716 13.064 16.487 20.635 32.103 19.602 5.718-.379 11.594 1.88 16.79 4.432 12.229 6.006 25.624 8.304 38.246 12.77 26.179 9.262 53.131 4.075 79.587 6.802 3.967.409 2.828-2.747 3.376-4.735 4.992-18.114 15.241-24.141 29.251-19.297 4.601 1.59 9.035 3.686 13.889 4.211 8.037.873 15.893 2.754 23.85 3.943 8.662 1.294 15.898 3.98 19.201 12.779 1.421 3.784 3.573 5.292 7.797 5.265 19.192-.125 38.388.003 57.577.305 4.241.067 5.88-.904 6.741-5.497 6.063-32.295 16.079-62.83 39.744-87.223 17.602-18.144 38.039-27.239 63.177-19.485 17.439 5.38 28.729 18.744 38.072 33.659 14.981 23.916 21.657 50.417 23.039 78.325.311 6.238 1.642 8.5 8.646 8.482 22.907-.056 45.815 1.006 68.727 1.392 3.537.061 4.839 1.431 5.78 4.515 1.12 3.665 1.541 7.334 1.225 11.077-.586 6.926-3.867 9.95-10.814 9.771-21.976-.562-43.955-1.095-65.92-1.961-5.539-.218-7.282 1.111-7.764 7.122-2.986 37.283-13.85 71.866-37.576 101.49-11.987 14.966-27.202 24.719-46.727 26.783-22.898 2.419-38.799-9.578-52.217-25.898-16.953-20.622-25.043-45.086-28.896-71.093-2.09-14.111-3.367-28.33-2.531-42.635.211-3.634-1.165-4.794-4.843-4.784-18.962.061-37.925-.048-56.885-.325-3.34-.049-4.657 1.082-5.946 4.104-7.306 17.112-7.994 35.06-8.925 53.357-1.894 37.268-3.269 74.771-15.249 110.7-2.502 7.506-5.515 14.839-8.237 22.271-4.193 11.451-13.354 18.273-22.887 24.794-3.646 2.496-8.063 4.144-10.671 7.828-5.121 7.231-12.367 9.399-20.654 9.782-6.339.294-12.038-.668-16.49-5.841-2.215-2.573-4.744-5.121-9.535-4.911 7.567 11.752 14.716 23.162 18.471 36.055 6.281 21.58 9.248 43.79 10.487 66.186.43 7.76-3.566 14.38-7.954 20.534-5.832 8.18-12.152 16.018-18.354 23.89-14.532 18.449-35.147 23.135-57.217 21.369-6.427-.514-12.757-3.11-20.653-2.109 6.297 5.649 11.473 10.907 17.261 15.375 22.699 17.531 33.967 41.519 39.737 68.784 3.19 15.066 6.823 30.041 9.84 45.141 2.371 11.861 7.159 22.711 13.223 32.957 7.096 11.988 9.093 25.825 14.772 38.309 2.015 4.431.938 9.103-1.078 13.566-2.431 5.373-5.484 10.383-9.318 14.756-10.032 11.44-14.689 25.105-17.976 39.63-4.331 19.142-13.864 33.367-34.45 39.251-9.712 2.776-18.528 9.16-28.403 12.479-4.16-.01-8.37-.01-12.59-.01z"
        ></path>
        <path
          fill="#292929"
          d="M675.54 433.16c-20.574-4.018-33.607-17.594-41.716-35.557-7.796-17.275-17.774-32.75-30.538-46.562-6.641-7.186-9.674-16.424-14.486-24.648-.745-1.273-1.427-2.787-.183-3.838 2.061-1.743 2.907.693 3.685 1.733 12.286 16.443 29.659 23.549 49.089 26.835 2.251.38 5.652 2.157 6.405-1.667.604-3.067-2.328-4.243-4.885-4.948-11.002-3.035-22.111-5.699-32.185-11.417-5.587-3.172-10.661-6.773-13.604-12.687-1.01-2.031-3.632-3.688-.393-6.496 2.036-1.765-.649-2.648-2.089-2.871-5.481-.845-10.193.685-13.729 5.124-.717.9-1.389 1.939-1.729 3.024-7.313 23.331-25.137 31.579-47.574 33.242-11.921.884-23.817 1.297-35.54-1.778-22.709-5.957-36.579-21.937-40.221-45.12-1.54-9.796-.448-19.573-1.027-29.511-4.176.126-5.076 3.297-5.216 5.772-1.375 24.194 2.832 46.643 21.848 63.822 8.817 7.968 19.765 11.62 31.324 12.558 16.131 1.311 32.282.538 48.144-3.019 13.424-3.012 25.105-8.882 32.168-22.476 1.877 3.642 3.154 6.795 5.003 9.566 3.598 5.394 5.691 9.825-3.669 10.896-2.366.271-4.102 2.462-4.788 4.742-1.428 4.744-4.517 7.898-10.586 10.449 7.151 2.254 11.107.719 13.587-4.331 1.805-3.672 3.505-7.702 8.328-7.172 5.237.575 9.224 3.917 12.781 7.706 1.726 1.837.69 3.015-.86 3.754-4.471 2.132-5.854 5.555-6.68 10.437-1.108 6.547-8.097 5.549-12.963 7.216 5.128 4.376 12.725 2.736 16.902-3.479 4.487-6.674 13.395-6.716 17.392-.03 7.053 11.798 13.957 23.688 21.167 35.388 1.257 2.039 1.137 2.835-.381 4.561-25.537 29.035-58.894 37.828-95.907 37.386-5.578-.066-6.602-4.707-7.784-8.177-1.721-5.043-4.395-8.5-9.188-10.69-5.833-2.667-10.357-7.103-14.88-11.545-2.385-2.341-4.251-5.436-8.436-6.909 1.023 8.127 6.168 12.455 11.684 16.281 7.707 5.348 15.762 10.254 17.411 20.711-8.923-.435-18.96.362-27.543-3.536-12.497-5.677-26.336-11.01-32.799-24.304-3.819-7.854-9.975-14.244-12.66-22.737-1.449-4.579.435-6.588 3.838-8.31 3.335-1.686 6.797-3.141 9.429-5.928 1.797-1.901 2.758-4.594.756-6.192-2.242-1.791-3.621.633-4.423 2.683-1.362 3.488-4.771 3.274-7.527 4.115-10.937 3.34-12.089 6.478-6.032 16.526.667 1.106 2.199 1.946 1.532 3.645-18.935-11.492-28.036-25.56-36.548-56.668 8.871-.461 17.803.532 26.463-1.706 5.19-1.342 10.565-2.551 13.641-7.648 1.244-2.066 2.065-4.9-.063-6.319-2.613-1.743-3.321 1.36-4.315 3.042-2.251 3.807-5.901 5.217-9.971 5.541-11.241.893-22.429.473-33.421-2.271-7.031-1.755-12.79-5.346-16.827-11.632-13.155-20.477-17.941-42.284-11.063-66.102.901-3.122 1.699-6.321 2.06-9.541.61-5.434-2.061-7.164-7.699-5.637 3.032 3.872 3.424 7.967 1.419 11.923-7.649 15.094-4.963 30.479-1.484 45.872 1.282 5.681 3.308 11.198 4.496 16.894 1.681 8.063 6.204 14.478 12.745 18.603 6.572 4.146 7.423 7.638 4.028 14.626-3.682 7.577-7.651 14.353-14.825 18.946-1.14.731-2.944 1.259-2.593 2.921.457 2.15 2.534 1.715 4.086 1.642 6.199-.295 11.131-3.23 15.153-7.757 4.597-5.173 7.271-11.353 9.064-18.612 3.604 4.795 5.541 9.835 6.563 15.15.796 4.147 1.824 8.067 3.559 11.987 2.438 5.508.362 10.527-3.897 14.514-5.674 5.309-12.087 9.539-19.336 12.414-2.862 1.135-6.226 2.208-7.185 5.177-1.915 5.922-5.452 5.907-10.347 4.271-3.064-1.025-6.388-1.341-9.62-1.785-9.623-1.324-12.657-4.173-15.171-13.63-1.51-5.672-3.966-11.029-8.015-15.386-19.549-21.031-22.637-46.481-19.256-73.379 2.983-23.736 4.944-47.38-.055-70.626.635-1.291 1.239-1.122 1.891-.813 2.238 1.065 4.841 3.137 6.496-.287 1.409-2.915-.635-4.877-3.274-5.949-8.252-3.354-12.572-10.152-15.636-17.951-1.408-3.58-2.916-7.237-2.316-12.038 5.428 3.911 10.935 8.837 17.155 5.121 5.027-3.002 9.45-2.085 14.491-1.401-.159.639-.112 1.464-.5 1.851-8.778 8.754-10.117 19.404-3.629 30.096.833 1.372 1.918 2.706 3.182 3.672 1.54 1.177 3.706 1.668 5.214.347 2.061-1.807-.006-3.364-1.077-4.724-2.606-3.307-5.185-6.52-6.188-10.825-.627-2.691-.749-5.406.616-7.477 4.901-7.429 10.906-13.521 20.525-14.208.33.728.795 1.32.662 1.524-10.837 16.813-8.496 34.588-4.27 52.681 2.537 10.856 2.687 21.562-3.49 31.772-11.563 19.12-9.516 39.763-6.013 60.507 1.348 7.984 3.58 15.91 2.354 24.167-.263 1.766.227 3.315 2.256 3.731 1.854.38 3.294-.609 4.119-2.047 1.95-3.397 2.211-7.088 1.155-10.848-5.568-19.84-3.492-39.867-1.327-59.866.606-5.604 3.075-10.73 5.445-15.928 2.104.668 2.212 4.694 5.024 3.537 2.679-1.102 1.79-4.08 1.755-6.224-.108-6.545-.78-13.037-2.833-19.333-4.455-13.653-4.721-27.888-2.621-41.675 2.449-16.072 12.092-27.66 28.334-32.312 9.097-2.604 15.76-10.084 25.171-11.909 2.269-.44 4.399-1.66 6.672-2.002 3.652-.55 6.666-5.158 9.864-3.459 2.966 1.576 4.555 5.739 6.747 8.764.412.567.691 1.323 1.235 1.684 2.054 1.361 2.069 6.559 5.512 4.439 3.159-1.945 2.047-6.114.231-8.923-2.522-3.902-5.847-7.279-8.476-11.122-4.17-6.097-3.295-8.598 3.554-11.113 10.243-3.761 19.243-9.413 26.888-17.236 7.193-7.362 5.71-16.241 4.459-25.062-.104-.724-1.178-1.31-1.801-1.96-.6.637-1.219 1.258-1.785 1.924-.123.145-.047.456-.08.687-.908 6.532.706 13.981-5.651 18.681-11.244 8.311-22.429 16.733-36.866 19.065-8.561 1.383-16.703-.619-24.978-1.92-5.22-.822-8.441-3.957-9.532-8.888-6.164-27.822-9.596-55.739-1.909-83.886 2.744-10.044 8.139-18.322 16.738-24.294 23.762-16.503 49.179-19.474 75.609-7.716 16.213 7.213 24.704 21.09 26.98 38.286 1.511 11.397.474 22.913-3.837 33.821-5.005 12.672-3.303 24.628 3.267 36.276 5.797 10.283 13.801 18.828 21.431 27.66 1.188 1.376 1.734 4.963 5.002 3.012 3.218-1.921 2.48-4.47.773-7.035 1.995-1.11 4.041-.833 6.099-.222 7.377-.322 14.45 1.151 21.086 4.233 2.286 1.063 7.377.505 4.478 6.277-1.121 2.23 2.537 2.893 4.471 3.122 4.64.55 9.315.811 13.985 1.061 22.505 1.203 36.265 15.458 47.92 32.486 11.104 16.223 18.301 33.572 12.783 53.843-17.076-4.771-32.59-13.958-50.126-17.225-4.581-.854-9.211-1.449-13.832-2.055-1.667-.22-3.722.039-3.844 1.992-.104 1.659 1.57 2.739 3.295 3.171.227.056.457.192.677.174 14.011-1.215 24.837 6.622 36.435 12.529 9.206 4.689 19.062 7.605 29.55 7.713 5.884.059 10.229 2.94 13.546 7.523 5.539 7.653 8.904 16.306 11.619 25.289.993 3.289.256 6.02-1.621 8.505-3.096 4.096-6.021 8.435-9.705 11.95-10.018 9.559-13.228 21.669-13.943 34.811-.304 5.603-.17 11.229-.287 16.843-.045 2.072-.706 4.772 2.277 4.896 2.791.117 2.943-2.832 3.073-4.735.32-4.66.462-9.369.169-14.026-1.047-16.669 7.431-28.521 19.663-38.082 9.648-7.539 18.345-15.885 26.009-25.385 9.379-11.625 8.991-25.604 9.496-39.347.18-4.898.029-9.808.029-15.088 4.531.929 5.125 4.378 5.562 8.112.207 1.769.662 4.012 3.304 3.233 2.463-.728 1.806-2.583 1.397-4.576-1.804-8.823-7.083-14.518-15.333-17.633-3.479-1.313-7.079-2.306-10.559-3.618-4.189-1.579-6.961-4.325-7.715-9.056-1.023-6.438-2.545-12.797-3.635-19.227-.804-4.745 1.598-7.127 6.271-7.028 5.867.124 11.685-.215 17.453-1.272 1.928-.354 3.601-.527 4.918 1.46 1.433 2.159.705 4.089-.353 5.907-3.577 6.146-9.86 6.253-15.888 7.04-1.842.241-5.194-3.056-5.33 1.362-.099 3.233 3.302 2.426 5.497 2.688.43.052.843.236 1.271.361.434 2.542-4.986 2.281-2.805 5.15 1.634 2.15 4.152.618 5.447-.951 8.488-10.276 19.222-7.793 30.485-5.441-4.334 6.031-7.578 12.355-5.388 19.885.602 2.074.851 5.739 3.711 5.082 3.848-.884.765-3.619.364-5.592-1.411-6.959 2.932-11.482 7.167-15.758 3.12-3.151 6.877-4.545 11.807-3.13 4.74 1.36 9.913 2.869 14.479-1.622 1.853-1.824 4.874-.885 7.71-.437-2.564 10.99-8.834 19.912-14.745 29.046-1.148 1.774-4.014 3.711-2.279 5.957 1.83 2.367 3.893-1.158 5.816-1.313 3.473 52.348-5.701 102.45-24.118 150.89-4.519 11.884-12.702 21.846-25.187 26.908-3.427 1.389-6.026 3.775-8.281 6.295-7.899 8.837-21.891 9.177-29.101-3.108 5.295-5.526 12.116-4.183 20.201-3.555-12.44-4.64-16.09-3.78-19.99 3.84z"
        ></path>
        <path
        fill="#292929"
          strokeWidth="3"
          d="M675.62 804.72c4.122 6.236 2.023 10.818-2.128 15.496-15.294 17.238-24.08 37.581-27.472 60.246-.899 6.009-3.507 10.131-8.62 13.525-13.087 8.685-28.108 13.5-41.581 21.434-5.172 3.045-11.514 4.04-16.813-1.182-.553-.545-1.897-.833-2.627-.566-9.005 3.297-17.277-.05-25.77-2.385-4.074-1.12-6.204-3.787-8.197-6.997-1.884-3.032.244-4.706 2.069-6.561 1.742-1.767 4.665-3.896 2.058-6.258-2.383-2.16-5.142.34-6.349 2.437-3.752 6.517-8.478 6.177-14.047 2.814-3.98-2.402-4.716-5.559-2.381-9.475.715-1.199 1.42-2.536 2.473-3.383 13.313-10.698 21.078-26.438 34.115-37.399 6-5.046 10.111-11.32 12.485-19.012 3.3-10.701 10.749-19.021 17.569-27.623 1.597-2.016 3.372-3.897 4.893-5.968 4.633-6.308 12.434-11.731 11.983-19.877-.707-12.816-4.411-25.102-13.394-35.327-11.463-13.049-24.286-24.65-36.974-36.416-19.562-18.137-36.129-38.433-46.639-63.264-3.979-9.399-9.888-17.356-18.414-23.343-13.341-9.367-17.004-21.998-12.279-37.499 4.138-13.586 9.631-26.233 20.754-35.758 1.892-1.621 3.479-3.896 4.505-6.184 5.857-13.08 16.053-22.333 27.167-30.609 17.027-12.679 42.399-10.313 60.133 5.17 12.838 11.208 20.937 26.322 32.097 38.911 4.001 4.512 6.111 9.596 6.789 15.706 2.207 19.867-6.826 30.8-26.79 31.726-5.841.271-11.69.397-17.522.79-1.437.097-2.736.512-3.803-.779-1.414-1.714-3.042-3.43-5.217-1.409-2.111 1.964-2.276 4.629-.834 7.075.928 1.572 2.266 2.946 3.591 4.231 7.721 7.498 15.395 15.049 23.268 22.385 21.128 19.684 30.708 44.967 36.609 72.483a375.037 375.037 0 0028.971 84.467c3.883 8.049 1.649 14.942-3.791 21.279-2.692 3.137-4.923 6.432-3.064 10.764.765 1.778 3.515 3.566 3.823 1.14.84-6.57 6.81-9.18 9.36-14.83z"
        ></path>
        <path
        fill="#292929"
          strokeWidth="3"
          d="M391.85 855.66c-4.905.08-9.467.849-14.154 2.948-6.744 3.02-14.192 2.959-21.075-.165-3.429-1.556-6.395-4.416-5.985-8.677.442-4.629 4.555-4.563 7.956-5.229 3.651-.717 7.345-1.329 10.901-2.383 2.793-.828 4.497-3.227 3.338-5.986-1.239-2.947-3.565-.609-5.385-.126-5.405 1.438-10.771 3.03-16.197 4.377-2.089.519-3.953 1.297-5.664 2.568-1.858 1.379-.974 6.665-5.398 4.226-3.914-2.157-7.584-4.927-7.425-10.178.105-3.537 1.65-6.083 5.071-7.655 15.234-6.998 29.945-14.971 44.09-23.99 10.11-6.446 17.907-15.08 23.382-25.577 5.006-9.597 11.035-18.349 17.951-26.628 8.644-10.348 8.706-15.241 1.413-26.192-6.28-9.43-13.895-17.659-22.678-24.73-23.104-18.604-41.794-40.741-54.302-67.758-3.801-8.208-9.468-14.268-17.249-18.6-8.391-4.671-14.439-11.698-19.722-19.548-13.8-20.505-10.27-44.467 9.048-60.242 6.358-5.194 12.429-10.668 17.38-17.244 7.977-10.594 18.515-18.318 28.559-26.748 19.404-16.285 51.18-6.489 63.456 10.791 9.402 13.231 16.326 27.711 21.148 43.188 4.464 14.324-2.248 28.454-18.308 31.872-10.471 2.229-21.137 3.842-31.077 8.096-4.569 1.955-9.063 4.19-9.413 10.119-.136 2.322-.526 5.016 2.744 5.516 2.471.376 4.859.675 6.756-2.097 5.155-7.535 9.322-7.468 16.043-1.647 13.129 11.373 20.827 25.7 26.694 41.876 7.648 21.082 12.24 42.993 19.257 64.206 7.922 23.946 20.79 45.294 35.66 65.415 6.393 8.648 8.033 17.539 5.567 27.684-1.679 6.904-6.065 11.063-12.756 12.463-20.532 4.3-38.42 13.161-54.215 27.33-16.06 14.4-28.54 18.62-45.43 18.73zM983.98 201.38c-10.504-.467-21.007-.943-31.511-1.398-6.571-.284-11.656 5.053-11.953 12.507-.299 7.529 3.759 12.337 10.69 12.55 16.36.503 32.723.973 49.084 1.438 3.024.085 6.111-.556 5.715 4.475-3.026 38.378-13.516 74.026-39.597 103.36-14.366 16.157-32.438 24.446-54.595 18.604-9.996-2.636-17.794-9.102-24.541-16.767-19.959-22.67-28.653-50.052-31.965-79.296-4.493-39.686-.377-78.353 16.538-115.04 7.199-15.614 16.183-29.993 29.604-41.191 22.771-18.999 50.531-17.394 70.736 4.506 16.827 18.237 25.512 40.478 30.414 64.397 1.88 9.167 2.803 18.469 3.566 27.806.301 3.67-.646 4.469-3.934 4.388-6.079-.149-12.163-.044-18.244-.044a.534.534 0 01-.08-.31zM111.67 206.39c-.115-37.493 7.901-72.742 29.064-104.28a94.195 94.195 0 019.603-12.045c24.836-26.384 57.239-24.833 79.369 3.827 14.489 18.763 21.878 40.458 25.454 63.613.819 5.305.766 10.767 1.861 16.002 1.321 6.324-1.329 7.152-6.812 6.861-14.699-.779-29.425-1.11-44.143-1.468-7.079-.171-11.628 4.863-11.661 12.487-.03 7.208 3.807 11.041 10.988 11.233 15.426.414 30.847.976 46.272 1.35 3.519.085 5.611.5 5.247 5.055-2.884 36.23-12.913 69.865-37.297 97.644-14.135 16.103-32.052 24.604-53.913 17.846-14.055-4.345-23.336-15.201-31.095-27.143-16.15-24.858-21.878-52.722-22.925-81.849-.11-3.04-.01-6.09-.01-9.13z"
        ></path>
        <path
        fill="#fff"
          strokeWidth="3"
          d="M683.52 514.86c.419 4.654 1.088 9.303 1.218 13.967.776 28.086-13.118 47.799-36.267 61.678-7.866 4.718-16.17 9.183-27.791 10.292 8.833-5.806 13.715-12.412 17.435-20.089 4.467-9.22 4.287-18.398-1.107-26.741-11.792-18.238-23.848-36.346-40.04-51.192-6.217-5.702-13.438-9.181-21.676-10.695-19.106-3.511-37.73-4.624-53.396 12.031 1.913-7.76 17.375-20.521 29.005-24.216 12.704-4.036 25.845-2.52 38.929-2.492 13.177.029 23.367 9.565 37.682 10.919-5.144-6.526-11.634-7.561-18.212-11.75l41.081-3.107c-2.184-4.295-5.617-3.941-8.702-3.852-17.063.495-34.131.918-51.179 1.76-11.658.575-23.358-1.679-34.995.891-4.147.917-8.27 1.825-11.792 4.133-16.563 10.855-32.064 22.749-39.296 42.3-.24.648-.517 1.36-.987 1.829-1.789 1.777-3.655 4.828-5.509 4.839-2.234.014-3.099-3.55-4.156-5.795-1.716-3.642-2.151-7.615-2.615-11.554-1.476-12.532-7.16-23.027-15.577-32.178-1.527-1.66-3.624-4.106-5.729-1.628-1.771 2.084.971 3.617 2.436 4.967 6.221 5.735 8.615 13.072 9.266 21.262.891 11.204 1.688 22.497 10.145 31.239 2.019 2.085.239 3.357-.768 4.781-6.322 8.954-11.967 18.229-17.186 27.938-3.867 7.194-13.313 9.104-21.288 11.978 9.667-9.281 6.727-20.493 4.562-30.856-3.915-18.747-12.003-35.72-24.758-50.337-9.176-10.514-20.45-16.723-34.26-18.511-2.748-.355-5.439-1.158-9.628-2.079 19.7-4.223 38.035-8.378 56.343-11.212 12.169-1.882 25.746 1.805 37.626 7.719 1.029.513 2.033 1.227 2.815 2.065 12.692 13.609 28.313 10.449 43.79 7.501 2.421-.461 6.356-1.358 5.095-5.107-1.119-3.326-4.156-1.383-6.643-.897-13.808 2.699-26.804 1.967-38.1-8.115-3.729-3.33-5.07-6.236-2.463-11.046 26.015 18.594 55.283 14.853 84.018 10.563 29.372-4.384 56.291-14.941 75.401-40.324 2.269 4.282 4.709 7.967 6.236 11.995 2.181 5.75-1.554 9.382-5.851 12.108-9.586 6.084-20.306 9.261-31.362 11.352-3.359.635-6.843.716-10.049 2.768 12.363 7.182 39.928-2.125 53.6-17.837 3.065 2.275 3.488 4.705 1.192 7.95-1.454 2.056-2.325 4.55-3.297 6.915-4.786 11.632-3.141 19.885 5.631 28.633 17.876 17.824 17.315 37.442-1.65 54.2-4.553 4.023-9.416 7.695-14.031 11.651-1.336 1.143-3.329 2.629-1.74 4.645 1.615 2.05 3.375.271 4.911-.64 10.603-6.288 19.573-14.464 26.897-24.311 4.076-5.48 3.955-12.287 4.407-18.801.46-1.06.55-2.66 2.4-1.49z"
        ></path>
        <path
          fill="#292929"
          strokeWidth="3"
          d="M644.97 215.38c12.035-.601 23.102.199 34.174.778 2.638.139 2.784 2.002 3.101 3.854.474 2.757 1.046 5.502 1.379 8.275.889 7.391 4.586 12.421 11.662 15.149 7.769 2.994 11.86 8.314 10.971 17.238-1.646 16.509-2.761 33.077-12.804 47.284-2.145 3.034-4.42 5.929-7.958 8.664-.376-2.297-.734-4.192-.991-6.101-1.849-13.712-7.289-25.377-18.751-33.801-2.574-1.894-5.484-3.977-5.554-7.675-.35-18.93-4.92-36.72-15.23-53.66z"
        ></path>
        <path
        fill="#fff"
          strokeWidth="3"
          d="M1085 223.64c-15.712.641-31.297-.792-46.898-1.24-27.998-.804-55.99-1.817-83.99-2.52-5.005-.125-8.277-1.399-8.006-6.938.257-5.206 2.591-7.806 8.444-7.633 41.308 1.227 82.626 2.177 123.94 3.245 4.196.108 8.451-.03 6.049 6.652-.8 2.35.3 5.4.5 8.43zM222.83 184.42c27.52.746 55.039 1.633 82.563 2.11 5.007.086 5.479 2.485 4.6 5.968-.772 3.061 2.991 8.679-4.443 8.417-32.869-1.157-65.739-2.331-98.615-3.23-5.128-.14-7.634-2.287-7.333-6.956.283-4.368 2.577-7.123 7.823-6.646 5.098.462 10.269.1 15.408.1 0 .08 0 .16-.01.24zM847.38 198.42c-1.387 14.666-1.387 14.619-14.438 14.518-19.601-.152-39.2-.188-58.799-.407-2.141-.025-5.247 1.239-6.3-1.333-1.473-3.601-2.29-7.552-2.783-11.432-.238-1.882 2.009-1.324 3.254-1.326 26.1-.03 52.2-.02 79.07-.02zM77.906 192.92c-5.182-.259-12.395-.774-19.618-.929-4.879-.105-5.907-3.112-5.682-6.951.224-3.811 1.641-6.673 6.374-6.518 14.225.468 28.455.833 42.686 1.052 3.002.046 3.242 1.312 3.223 3.839-.067 9.129-1.057 10.188-10.235 9.826-2.564-.102-5.127-.251-7.693-.309-2.335-.05-4.672-.01-9.056-.01zM627.1 196.41h61.603c.359.582.721 1.162 1.08 1.744-6.262 1.24-9.382 4.647-8.891 10.546.228 2.742-1.67 2.106-3.229 2.056-11.432-.369-22.863-.852-34.299-1.019-3.484-.051-4.567-2.646-6.499-4.531-2.83-2.77-5.87-5.32-9.76-8.8z"
        ></path>
        <path
        fill="#000"
          strokeWidth="3"
          d="M773.5 192.57c-1.705.873-3.545 1.364-4.918-.235-3.25-3.78-3.699-3.798-6.244.401-2.479 4.094-2.688 8.172-.59 12.544 2.089 4.351 2.588 8.716-2.771 11.129-4.045 1.821-9.107-1.884-10.6-7.476-.656-2.46-1.055-4.989-1.607-7.478-1.843-8.29 1.946-16.355 8.767-18.63 5.81-1.93 14.58 2.8 17.96 9.75z"
        ></path>
        <path
        fill="#292929"
          strokeWidth="3"
          d="M750.06 179.74c-9.13 8.648-10.47 17.995-6.155 28.627 1.145 2.817 2.865 7.146-2.756 8.281-4.903.989-8.128-.685-9.353-5.809-1.938-8.119-4.248-15.983.102-24.313 4.86-9.3 6.6-10.42 18.17-6.79zM330.83 176.19c-3.693 10.295-4.042 20.495-.5 30.763.69 2 3.234 4.206.48 6.187-2.161 1.556-5.032 1.342-7.413.391-4.98-1.991-9.347-16.514-7.937-25.621 1.113-7.174 5.67-11.362 13.244-12.097.64-.06 1.32.23 2.13.38zM353.31 195.92c9.169 2.876 18.423 3.243 27.798 2.06 1.664-.211 3.56-.065 4.206 1.729.854 2.371-1.532 2.286-2.797 3.056-1.987 1.211-3.86 2.611-5.866 3.784-3.857 2.259-6.095 6.583-10.479 8.144-1.707-5.957-7.575-2.987-11.122-5.129-3.15-1.903-5.537-4.001-6.495-7.728-1.14-4.43.45-6.18 4.75-5.91zM374.78 171.51c5.626.436 11.222 1.042 14.447 6.677 1.957 3.417 1.036 5.966-2.991 4.535-6.779-2.411-9.338 1.008-10.416 6.524-1.118 5.725-5.009 5.817-9.227 5.107-4.939-.83-3.479-5.044-3.1-7.86.521-3.857 2.137-7.566 3.258-11.345 1.27-4.3 4.75-3.68 8.03-3.63zM345.83 210.72c-8.007.475-13.022-4.602-13.283-15.356-.376-15.541 2.073-20.831 12.13-20.812-3.08 12.07-2.22 23.95 1.15 36.17zM720.75 174.84c-8.098 4.708-14.869 9.468-11.786 20.032 1.023 3.509-2.183 3.841-4.395 3.525-2.214-.315-5.603 2.894-6.613-2.139-1.343-6.687 3.624-19.707 9.418-23.589 3.53-2.37 6.92-1.91 13.38 2.17z"
        ></path>
        <path
        fill="#292929"
          strokeWidth="3"
          d="M732.26 176.76c-7.918 10.468-9.717 20.735-5.761 31.897.603 1.696 1.825 3.856-.534 4.822-1.559.638-3.75.472-5.415-.073-2.292-.75-.764-2.637-.578-4.104.379-3.031.451-5.999-1.334-8.75-7.133-10.988-4.268-19.083 8.143-22.996 1.27-.41 2.68-.41 5.47-.8zM667.04 458.47c6.109 10.559 11.038 20.598 11.198 32.534-17.18-8-19.23-18.62-11.2-32.53zM361.92 172.08c-2.276 6.388-3.299 12.925-3.086 20.152-4.987-1.868-12.532 1.116-11.149-8.829 1.18-8.43 4.79-11.9 14.24-11.32zM411.11 189.3c-5.584 3.064-11.271 5.962-16.704 9.277-2.188 1.335-3.047.811-4.335-.979-1.667-2.318-4.149-3.631-6.873-4.5-1.29-.412-3.61.541-3.168-2.378.385-2.547 2.142-2.667 4.093-2.666 8.963.005 17.926.002 26.889.002l.09 1.25zM1094.2 216.61c-.836 2.736-.823 6.641-4.332 6.883-2.482.171-2.873-3.362-2.748-5.483.18-3.097.12-7.642 3.603-8.081 2.6-.35 2.6 4.02 3.4 6.68z"
        ></path>
        <path
          stroke="#fff"
          strokeWidth="3"
          d="M683.52 514.86l-2.379 1.507c-.593-2.063-.518-4.104.2-6.249 3 .6 2.48 2.72 2.18 4.74z"
        ></path>
        <path
        fill="#fff"
          strokeWidth="3"
          d="M492.51 360.09c2.72 0 5.182-.762 6.662.122 10.032 5.992 21.295 6.739 32.385 7.489 10.839.733 17.743 6.038 22.179 15.441 3.596 7.629 7.236 15.174 15.504 19.095 1.906.903 2.802 2.95 2.138 6.311-6.628-3.526-13.62-6.411-16.493-13.269-6.258-14.933-17.393-21.855-33.049-22.381-11.24-.38-20.22-5.7-29.33-12.81zM474.09 354.64c4.226-.587 5.731 1.071 6.062 4.013.44 3.944.834 7.898 1.054 11.858.529 9.555 2.545 11.845 12.282 12.221 11.201.432 22.491-.395 33.459 2.7 4.018 1.135 8.18 2.064 11.419 4.977 1.22 1.098 2.62 2.522 1.452 4.215-1.323 1.921-2.772.391-4.146-.388-12.24-6.928-24.932-7.901-38.521-4.14-13.395 3.708-23.847-7.433-20.903-22.203.95-4.71.87-8.67-2.15-13.25zM509.49 216.72c3.352-.075 6.537.577 9.518 2.041 1.643.807 2.479 2.271 1.795 4.051-.803 2.085-2.416 1.638-4.052.959-8.952-3.716-16.391-.729-23.017 5.387-3.335 3.078-6.973 5.509-11.511 6.256-4.892.806-10.504.14-12.076 6.902-.282 1.213-1.928 1.147-3.079.94-1.549-.278-2.345-1.33-2.542-2.895-.595-4.713 1.262-8.152 6.045-8.538 9.745-.787 17.634-5.114 25.011-11.147 3.93-3.19 9.03-3.52 13.92-3.95zM500.74 415.4c10.087 4.251 18.984.021 28.122-.475 8.411-.457 20.523 7.443 21.995 15.868.83 4.752 3.284 7.811 6.232 11.854-6.118.427-8.099-3.353-9.566-7.413-3.678-10.168-7.628-13.405-18.394-13.81-6.286-.237-12.596.202-18.894.224-3.81.02-7.43-.52-9.5-6.24zM467.23 356.96c.314 6.699-1.602 10.892-7.166 13.28-3.164 1.357-6.216 3.201-8.458 6.043-2.774 3.519-5.502 6.746-2.944 11.883 1.392 2.792.799 6.092-3.224 7.093-1.711.427-3.758 1.858-5.021-.365-1.179-2.078 1.032-2.717 2.296-3.448 1.593-.922 1.22-1.775.864-3.352-2.389-10.564 2.375-18.479 12.513-21.241 4.665-1.271 6.275-4.416 5.629-8.999-.438-3.101 1.579-4.541 4.044-4.351 2.85.23 1.29 2.9 1.47 3.47zM719.03 420.4c-2.673-.672-2.919-2.545-1.707-4.679 6.068-10.673 11.833-21.479 16.111-33.034.468-1.264 1.666-3.257 3.573-2.541 1.907.717 1.543 2.693.989 4.238-3.906 10.894-7.489 21.936-13.635 31.865-1.18 1.91-2.33 4.11-5.33 4.14zM490.07 146.18c-3.284 15.846-12.647 28.836-11.296 44.74-7.23-9.03.63-39.3 11.3-44.74zM444.39 237.02c-.033 3.577.325 6.594-2.712 6.853-3.024.258-3.507-2.765-3.382-5.016.296-5.333-1.787-8.012-6.913-10.281-4.776-2.115-6.521-7.617-6.449-13.088.021-1.621.136-3.616 2.28-3.6 1.499.013 2.211 1.503 2.239 3.07.101 5.745 3.475 8.5 8.558 10.452 5.7 2.2 6.18 7.61 6.37 11.62zM562.92 188.53c1.441-.052 2.987-.055 3.475 1.618.444 1.524-.844 2.079-1.989 2.084-8.01.042-10.327 6.207-12.645 12.021-1.894 4.75-4.378 8.211-10.011 8.052-1.874-.052-3.098-1.013-3.53-2.801-.583-2.417 1.019-2.673 2.831-2.73 4.481-.143 5.399-3.532 6.585-6.95 2.24-6.49 9.24-11.5 15.28-11.29zM484.04 431.9c-.16 3.457 5.511 4.779 1.666 7.795-1.823 1.431-4.174.17-5.258-1.963-1.676-3.3-3.843-6.869.015-10.022 1.348-1.102 3.441-1.29 5.195-1.895 3.068-1.058 6.282-1.795 7.794-5.281.597-1.376 1.32-3.475 3.454-2.618 2.182.877 1.766 3.103 1.48 4.881-.637 3.986-3.772 5.772-7.069 7.097-2.34.93-4.89 1.36-7.27 2zM382.14 404.86c1.465.303 3.312.573 5.087 1.091 1.392.405 2.61 1.327 2.548 2.945-.072 1.897-1.721 1.744-3.061 2.047-6.517 1.471-13.579-.613-19.781 3.187-1.228.75-2.861-.251-3.317-1.744-.479-1.57.633-2.615 1.93-3.323 5.03-2.77 10.66-3.19 16.59-4.22zM588.92 448.79c1.125-4.848 4.333-7.395 7.08-10.158 3.631-3.653 6.672-7.22 4.111-12.845-.676-1.483-.724-3.558 1.258-4.154 2.644-.796 2.949 1.681 3.401 3.325 2.62 9.46-4.67 20.77-15.85 23.83zM675.54 433.16c-.836-2.614-1.981-5.203 1.466-7.029 3.601-1.908 17.3-1.113 20.379 1.323.945.746 1.805 1.437 1.025 2.803-.979 1.714-2.673 2.119-4.209 1.538-6.508-2.463-12.669-.62-18.863 1.17-.01.01.19.2.19.2zM567.19 412.59c8.063.088 22.977 13.571 23.198 20.888.03 1.016-.065 1.855-1.024 2.292-1.013.461-2.113 0-2.212-.927-1.048-9.765-9.665-12.253-16.047-16.897-1.87-1.35-3.93-2.6-3.92-5.35zM750.14 253.32c-8.646.366-9.089.929-10.823 13.256-4.866-1.848-3.306-5.998-3.427-9.298-.093-2.534 3.071-4.879-.088-7.762-1.14-1.042.693-2.483 2.255-2.226 4.46.74 8.8 1.81 12.08 6.03zM500.13 416.12c-9.983-1.348-18.718-13.406-18.163-23.564 6.88 7.31 10.09 16.09 18.16 23.56zM598.32 399.87c-.472-1.649-.431-4.016 1.802-4.146 1.524-.089 2.896 2.112 3.36 4.034.657 2.717-.483 4.911-1.89 7.156-2.319 3.696-6.174 6.386-7.104 11.027-.184.92-.718 2.433-2.306 1.998-1.39-.381-1.356-1.767-1.478-2.859-.355-3.192 2.246-4.896 3.715-7.19 1.91-2.98 5.78-5.19 3.9-10.02zM497.14 96.408c6.077 5.807 7.561 13.866 4.413 19.831-.94 1.781-2.361 2.62-3.817 2.144-1.838-.601-.653-2.311-.228-3.465 1.084-2.942 1.02-5.962.478-8.917-.54-2.94-1.61-5.78-.84-9.592zM531.46 398.06c3.582.144 10.267 11.007 8.427 13.771-1.533 2.3-4.085 2.112-4.793-.302-1.188-4.055-2.843-7.641-5.422-10.984-1.29-1.66.37-2.31 1.78-2.49zM569.36 437.13c.379-2.176-.405-3.964 1.734-4.159 1.707-.155 2.438 1.191 2.813 2.521 1.062 3.767 2.052 7.558 2.906 11.375.238 1.06 1.442 2.839-.987 3.072-1.378.132-2.879-.009-3.367-1.696-1.14-3.96-2.22-7.95-3.09-11.1zM511.4 619.66c5.903 1.222 9.443 2.993 12.8 5.094 10.209 6.388 19.075 14.338 26.024 24.154 12.837 18.134 22.656 37.933 31.3 58.341.362.854.868 1.681 1.055 2.572.33 1.573.802 3.462-1.311 4.098-1.755.529-2.329-1.136-2.904-2.358-.79-1.686-1.473-3.424-2.148-5.16-12.345-31.688-31.49-58.047-60.196-76.945-1.937-1.274-3.688-2.862-5.392-4.447-.854-.796-1.346-2.021-.759-3.181.69-1.34 1.87-2.06 1.53-2.15zM619.78 572.02c.69 7.971-5.902 15.612-14.395 16.837-4.825.694-9.768 1.233-14.614.986-11.131-.566-19.087 4.46-25.686 12.857-1.312 1.668-2.716 5.767-5.599 3.669-3.289-2.395-1.519-6.206.673-8.617 8.311-9.142 18.7-14.408 31.096-15.426 4.409-.362 8.861-.312 13.249-.83 6.32-.75 10.75-5.01 15.28-9.48zM621.81 807.71c1.567 6.974-.519 12.018-1.384 17.141-2.055 12.161-4.741 24.188-8.644 35.901-.942 2.826-2.495 5.475-3.967 8.092-.759 1.347-2.225 1.594-3.698 1.105-1.663-.552-2.225-2.125-1.669-3.357 7.895-17.498 7.531-37.404 16.037-54.696.58-1.18 1.67-2.12 3.32-4.17zM598.9 899.67c-11.15-.418-21.557-1.059-29.551-9.636-2.319-2.487-5.952-2.337-9.284-1.962-2.104.237-5.007 2.01-5.53-1.73-.549-3.933 2.51-4.531 5.483-4.576 4.522-.068 9.092.729 12.621 3.463 7.84 6.072 16.715 7.896 26.277 7.749.467-.008 1.003-.111 1.391.074 3.026 1.45 9.286-1.219 8.767 4.214-.491 5.131-6.112 1.673-9.347 2.494-.42.13-.92-.08-.83-.07zM530.38 534c8.959.502 16.432 7.592 16.816 16.588.279 6.548 2.565 11.749 7.976 15.466.933.641 2.472 1 1.714 2.388-.459.841-1.834 1.644-2.812 1.66-3.825.061-6.829-1.829-8.455-5.188-1.508-3.115-3.031-6.447-3.445-9.818-.962-7.841-4.122-13.18-12.57-14.362-2.035-.285-4.27-1.459-3.996-4.089.29-2.8 2.56-2.87 4.77-2.65zM536.25 590.38c-.761-2.473-1.851-5.769-2.762-9.114-.287-1.054-.455-2.473.731-3.121 1.227-.673 2.168.312 2.991 1.146 3.428 3.476 5.729 7.923 5.445 12.512-.523 8.408-3.779 16.215-8.07 23.477-.97 1.642-2.66 2.908-4.715 1.721-1.878-1.086-2.127-3.129-1.453-4.941 1.696-4.564 3.598-9.054 5.504-13.537.99-2.36 2.41-4.55 2.32-8.15zM565.63 896.48c2.732-.279 4.156 1.035 3.706 3.152-.879 4.134-1.063 9.113-6.695 9.985-2.677.414-3.656-1.622-3.539-3.959.23-4.55 2.27-7.87 6.53-9.18zM432.6 707.04c-3.891-.33-6.973-2.508-9.925-4.738-11.868-8.961-22.067-19.372-28.729-32.938-5.537-11.273-12.299-21.942-16.71-33.773-.646-1.734-1.272-3.493-1.692-5.291-.478-2.046.221-3.859 2.288-4.492 2.613-.8 3.135 1.309 3.524 3.177 2.671 12.835 10.065 23.396 16.286 34.575 7.24 13.01 17.35 23.02 29.708 31.015a142.954 142.954 0 018.046 5.6c1.533 1.148 2.871 2.721 1.99 4.77-.87 1.97-2.78 2.31-4.8 2.09zM403.9 507.33c0 1.743.427 3.294-.066 4.452-5.847 13.765-9.488 28.124-12.479 42.742-1.243 6.078-4.703 11.274-11.928 11.961-1.547.146-3.441.536-4.368-1.314-1.062-2.124.877-2.805 2.099-3.752 6.243-4.835 9.447-11.257 10.444-19.037 1.35-10.52 4.873-20.35 10.26-29.479 1.26-2.1 2.08-4.77 6.05-5.57zM433.64 777.09c2.496-.289 2.866.947 2.897 2.507.04 2.039-1.225 3.494-2.337 4.961-8.306 10.972-16.127 22.225-21.626 34.95-.678 1.57-1.081 4.647-4.08 3.486-2.154-.834-1.989-3.213-1.47-4.915 4.717-15.442 13.03-28.701 24.685-39.861.64-.61 1.57-.92 1.94-1.13zM357.91 572.1c-9.534.004-17.723-3.039-24.095-10.446-2.425-2.817-5.155-5.376-7.804-7.995-1.615-1.599-4.232-3.089-1.878-5.622 2.345-2.526 4.218.17 5.89 1.438 2.028 1.539 3.855 3.383 5.583 5.267 6.617 7.215 14.9 10.92 24.52 11.938 1.387.146 2.803.265 4.132.654 1.255.369 3.043.57 2.901 2.411-.12 1.563-1.471 2.273-2.957 2.335-2.09.08-4.19.02-6.29.02zM485.57 777.8c-.563 5.339-1.489 10.622-5.296 14.778-1.895 2.068-4.739 2.928-6.938 1.203-2.624-2.056-.302-4.033 1.166-5.837 6.814-8.375 6.926-11.277.473-20.292-2.731-3.817-5.45-7.604-5.75-12.465-.108-1.774-.296-4.192 2.069-4.576 2.865-.468 2.596 1.994 2.566 3.809-.064 3.891 2.074 6.444 4.814 8.842 4.35 3.82 7.65 8.24 6.9 14.55zM402.72 572.84c3.209-8.726 9.075-16.245 15.632-23.268 2.219-2.375 4.754-4.495 7.349-6.462 1.307-.99 3.247-1.335 4.47.199 1.041 1.308-.01 2.673-.849 3.779-.987 1.302-2.098 2.514-3.188 3.733-6.527 7.293-13.243 14.418-16.425 24.046-.712 2.157-2.395 4.299-5.298 3.313-2.35-.8-1.65-3.01-1.68-5.34zM350.91 595.55c-.882 4.81-1.693 9.634-2.684 14.42-.357 1.724-.704 4.067-3.294 3.461-2.256-.527-2.427-2.694-2.216-4.593.845-7.628 2.418-15.21.099-22.893-.511-1.69.769-3.233 2.727-3.352 1.748-.106 3.421.646 3.563 2.575.25 3.48 2.3 6.69 1.8 10.37zM359.02 829.16c-1.328 3.625-4.463 6.395-8.124 8.146-1.901.908-3.391-1.33-3.181-3.365.497-4.804 4.116-6.924 8.168-8.147 1.69-.51 2.98.82 3.13 3.37zM130.08 203.93c.863-30.029 2.743-57.685 14.073-83.733 7.987-18.364 20.095-33.022 38.211-42.147 1.943-.979 4.827-3.97 6.612-.652 1.812 3.367-2.048 3.97-4.158 5.062-21.538 11.153-34.091 29.679-40.46 52.17-12.626 44.597-12.498 89.58.022 134.17 5.584 19.891 16.485 36.553 36.281 45.643 1.684.772 3.88 1.512 2.768 3.972-1.295 2.864-3.624 1.393-5.412.605-16.015-7.055-26.487-19.544-33.646-35.056-7.723-16.737-11.021-34.62-12.688-52.816-.88-9.75-1.16-19.57-1.59-27.21z"
        ></path>
      </g>
      <path
        fillRule="evenodd"
        stroke="#fff"
        strokeMiterlimit="10"
        strokeWidth="3"
        d="M873.39 220.78c.862-30.029 3.62-56.627 14.95-82.675 7.986-18.364 19.934-33.472 38.048-42.601 1.942-.979 6.656-3.728 8.755-1.63 2.433 2.433-3.112 4.715-5.222 5.807-21.538 11.153-34.293 27.697-40.662 50.188-12.627 44.597-14.731 91.918-3.044 136.74 5.386 20.653 15.859 43.663 34.625 52.625 1.672.798 9.218 4.733 8.105 7.193-1.295 2.864-9.215-1.578-10.965-2.445-16.907-8.375-25.888-24.849-32.507-40.599-7.367-17.531-9.398-36.833-11.064-55.029-.89-9.74-.59-19.91-1.02-27.55z"
        clipRule="evenodd"
      ></path>
    </svg>