<?xml version="1.0" standalone="no"?>
<!DOCTYPE svg PUBLIC "-//W3C//DTD SVG 20010904//EN"
 "http://www.w3.org/TR/2001/REC-SVG-20010904/DTD/svg10.dtd">
<svg version="1.0" xmlns="http://www.w3.org/2000/svg"
 width="640.000000pt" height="640.000000pt" viewBox="0 0 640.000000 640.000000"
 preserveAspectRatio="xMidYMid meet">

<g transform="translate(0.000000,640.000000) scale(0.100000,-0.100000)" fill="#000000" stroke="none">
<path d="M5305 4774 c-216 -129 -388 -353 -454 -594 -35 -126 -43 -260 -39 -690 3 -388 4 -407 24 -450 23 -48 52 -83 98 -116 l29 -21 -57 -669 c-32 -368 -55 -689 -52 -712 14 -103 82 -194 181 -243 61 -30 69 -31 153 -27 80 4 95 8 146 38 86 52 134 120 155 218 8 38 11 504 11 1633 0 1736 4 1621 -60 1654 -43 22 -68 18 -135 -21z m-15 -979 l0 -705 -119 0 c-95 0 -123 3 -135 16 -24 23 -24 847 0 962 19 95 62 199 111 273 43 64 124 159 136 159 4 0 7 -317 7 -705z m0 -1587 c0 -646 -1 -674 -19 -704 -60 -98 -215 -46 -213 71 0 53 101 1252 108 1283 4 20 10 22 64 22 l60 0 0 -672z"/>
<path d="M963 4745 c-65 -28 -64 -24 -61 -553 3 -463 4 -479 25 -530 28 -69
81 -133 143 -173 28 -18 50 -35 50 -39 0 -4 -23 -407 -50 -896 -55 -968 -55
-959 -2 -1057 34 -63 109 -132 180 -165 50 -24 69 -27 157 -27 89 0 106 3 156
28 74 36 155 117 188 186 22 47 26 73 29 156 1 55 -19 480 -46 943 l-48 844
36 18 c48 25 127 110 153 168 22 46 22 57 25 548 l3 501 -27 26 c-48 48 -137
37 -163 -20 -7 -16 -11 -127 -11 -329 l0 -305 -97 3 -98 3 -2 305 c-2 212 -6
312 -14 327 -7 12 -27 29 -46 38 -42 20 -92 7 -123 -32 -19 -25 -20 -40 -20
-334 l0 -309 -95 0 -95 0 0 295 c0 335 -3 355 -64 380 -42 18 -43 18 -83 0z
m737 -925 c0 -62 -18 -106 -59 -145 l-32 -30 -197 -3 c-183 -2 -199 -1 -230
18 -51 31 -72 75 -72 148 l0 62 295 0 295 0 0 -50z m-216 -467 c4 -43 27 -442
52 -888 42 -769 44 -812 28 -853 -18 -48 -75 -96 -125 -107 -48 -11 -108 5
-145 38 -49 42 -64 77 -64 144 0 75 90 1714 95 1731 3 8 28 12 79 12 l74 0 6
-77z"/>
<path d="M3090 4155 c-314 -43 -576 -169 -804 -385 -256 -244 -402 -548 -436
-910 -25 -264 29 -534 155 -778 356 -686 1174 -959 1886 -630 100 47 225 130
324 216 531 464 639 1263 250 1852 -243 368 -627 600 -1060 640 -136 12 -194
11 -315 -5z m405 -215 c549 -106 951 -552 993 -1102 46 -601 -331 -1131 -917
-1285 -129 -34 -370 -43 -511 -19 -583 101 -1010 610 -1010 1205 0 465 259
884 677 1095 229 115 515 154 768 106z"/>
<path d="M3160 3700 c-167 -23 -330 -85 -454 -174 -68 -48 -186 -169 -233
-237 -104 -151 -173 -371 -173 -548 0 -609 565 -1072 1160 -951 232 47 442
176 578 355 68 89 145 246 174 355 32 119 32 357 0 472 -83 303 -282 537 -554
655 -141 61 -354 92 -498 73z m315 -224 c201 -55 397 -218 484 -399 72 -151
95 -360 57 -519 -73 -307 -340 -542 -656 -578 -236 -27 -460 51 -626 218 -78
77 -116 131 -161 229 -109 235 -78 550 75 755 113 152 263 253 441 298 94 24
292 22 386 -4z"/>
</g>
</svg>
