<?xml version="1.0" encoding="utf-8"?><svg version="1.1" id="Layer_1" xmlns="http://www.w3.org/2000/svg" xmlns:xlink="http://www.w3.org/1999/xlink" x="0px" y="0px" viewBox="0 0 122.88 116.37" style="enable-background:new 0 0 122.88 116.37" xml:space="preserve"><g fill="#fff"><path d="M59.11,110.2c-0.44-0.18-0.77-0.53-0.94-0.95c-0.17-0.41-0.18-0.89,0-1.34c0.18-0.44,0.53-0.77,0.95-0.94 c0.41-0.17,0.89-0.18,1.34,0c0.18,0.07,0.36,0.13,0.53,0.17c0.17,0.04,0.34,0.06,0.5,0.07c0.17,0.01,0.34-0.01,0.52-0.03 c0.17-0.03,0.35-0.07,0.53-0.14c0.45-0.16,0.93-0.13,1.33,0.06c0.4,0.19,0.74,0.54,0.9,0.99l0.01,0.03 c0.15,0.44,0.11,0.91-0.08,1.3c-0.19,0.4-0.54,0.74-0.99,0.9l-0.03,0.01c-0.38,0.13-0.76,0.23-1.14,0.29 c-0.39,0.06-0.78,0.09-1.16,0.07c-0.39-0.01-0.77-0.06-1.15-0.15C59.84,110.47,59.47,110.35,59.11,110.2L59.11,110.2z M72.23,1.85 c-0.03-0.48,0.14-0.92,0.43-1.25l0.02-0.03C72.98,0.25,73.4,0.03,73.86,0c0.48-0.03,0.93,0.14,1.26,0.43l0.02,0.02 c0.32,0.29,0.53,0.71,0.56,1.18c0.06,0.96,0.22,1.86,0.47,2.69c0.25,0.81,0.59,1.55,1.04,2.23l0.03,0.04 c0.46,0.68,1.02,1.3,1.7,1.86l0.02,0.02c0.68,0.55,1.47,1.04,2.38,1.46c1.33,0.45,2.75,1.01,4.26,1.68 c1.5,0.67,3.09,1.45,4.78,2.35c1.66,0.89,3.41,1.89,5.25,3.02c1.83,1.12,3.76,2.36,5.78,3.72c1.73,0.48,3.34,1.07,4.84,1.78 c1.52,0.71,2.92,1.54,4.2,2.48c1.32,0.97,2.52,2.07,3.58,3.28c1.06,1.21,1.99,2.54,2.79,4l0.04,0.08c0.51,0.99,0.95,2.08,1.33,3.25 c0.4,1.22,0.72,2.52,0.99,3.9c0.27,1.38,0.47,2.84,0.62,4.35c0.15,1.55,0.25,3.16,0.28,4.78c0.7,2.46,1.25,4.98,1.66,7.55 c0.42,2.58,0.71,5.21,0.89,7.89c0.18,2.69,0.25,5.44,0.24,8.24c-0.01,2.81-0.11,5.65-0.27,8.55c-0.02,0.48-0.24,0.91-0.57,1.21 l-0.03,0.02c-0.33,0.29-0.76,0.45-1.23,0.43c-0.48-0.02-0.91-0.24-1.21-0.57l-0.02-0.03c-0.29-0.33-0.45-0.76-0.43-1.23 c0.16-2.84,0.25-5.63,0.26-8.35c0.01-2.72-0.06-5.4-0.23-8.03c-0.17-2.6-0.45-5.14-0.85-7.62c-0.4-2.47-0.93-4.89-1.61-7.26l0,0 c-0.03-0.08-0.05-0.16-0.06-0.24l0-0.02c-0.01-0.08-0.02-0.16-0.02-0.25c-0.03-1.57-0.12-3.13-0.26-4.63 c-0.14-1.43-0.33-2.82-0.59-4.14c-0.24-1.22-0.52-2.37-0.86-3.43c-0.32-1.01-0.7-1.94-1.13-2.77l0-0.01 c-0.68-1.23-1.46-2.36-2.35-3.38c-0.9-1.02-1.9-1.95-3.02-2.77c-1.13-0.83-2.37-1.56-3.72-2.18c-1.36-0.63-2.84-1.16-4.43-1.59 c-0.02-0.01-0.04-0.01-0.06-0.02c-0.07-0.02-0.14-0.05-0.21-0.08c-0.09-0.04-0.18-0.09-0.25-0.14l-0.02-0.02 c-2.01-1.36-3.93-2.6-5.76-3.72c-1.83-1.12-3.55-2.11-5.18-2.98c-1.6-0.85-3.11-1.6-4.53-2.23c-1.41-0.63-2.75-1.15-4-1.58 l-0.11-0.04c-0.04-0.02-0.09-0.03-0.12-0.05c-1.25-0.57-2.34-1.24-3.27-2c-0.94-0.77-1.72-1.64-2.36-2.6L74.32,8.5 c-0.63-0.95-1.11-1.98-1.45-3.08c-0.35-1.11-0.56-2.3-0.64-3.56L72.23,1.85L72.23,1.85z M100.02,45.66 c0.07-0.47,0.33-0.87,0.68-1.13c0.36-0.27,0.82-0.4,1.3-0.33l0.01,0c0.47,0.07,0.87,0.33,1.13,0.68c0.27,0.36,0.4,0.82,0.33,1.3 c-0.51,3.49-1.18,6.47-1.94,9.14c-0.75,2.63-1.58,4.96-2.42,7.18c0.17,2.17,0.38,4.15,0.62,5.95c0.25,1.82,0.54,3.47,0.87,4.95 c0.33,1.45,0.71,2.74,1.14,3.87c0.43,1.12,0.91,2.09,1.45,2.91c0.26,0.4,0.34,0.87,0.25,1.31c-0.09,0.44-0.35,0.84-0.75,1.1 c-0.4,0.26-0.87,0.34-1.31,0.25c-0.44-0.09-0.84-0.35-1.1-0.75c-0.67-1.01-1.25-2.17-1.77-3.49c-0.51-1.31-0.95-2.78-1.32-4.43 c-0.2-0.9-0.39-1.84-0.56-2.84c-0.09-0.52-0.17-1.06-0.25-1.61c-0.22,0.63-0.43,1.28-0.64,1.93c-0.36,1.16-0.7,2.37-1.01,3.65 c-2.6,10.98-2.28,18.23-1.79,29.1c0.05,0.11,0.42,9.25,0.45,10.16c0.02,0.48-0.16,0.92-0.46,1.25c-0.3,0.33-0.73,0.54-1.21,0.56 c-0.48,0.02-0.93-0.16-1.26-0.46c-0.33-0.3-0.54-0.73-0.56-1.21c-0.15-3.39-0.29-6.78-0.45-10.16c-0.5-11.16-0.83-18.61,1.87-30.03 c0.49-2.05,1.06-3.93,1.68-5.72c0.61-1.76,1.28-3.49,1.95-5.23l0.02-0.04c1.91-4.92,3.9-10.06,5.04-17.84L100.02,45.66 L100.02,45.66z M67.07,30.93c-0.43,0.22-0.9,0.25-1.33,0.12c-0.43-0.13-0.8-0.43-1.03-0.85c-0.22-0.43-0.26-0.9-0.12-1.33 c0.13-0.43,0.43-0.8,0.85-1.03c1.62-0.85,3.3-1.62,5.06-2.29c1.75-0.67,3.58-1.24,5.5-1.71c1.9-0.47,3.88-0.83,5.94-1.07 c2.06-0.24,4.21-0.37,6.45-0.38c0.48,0,0.92,0.19,1.23,0.51c0.32,0.32,0.51,0.75,0.51,1.23c0,0.48-0.2,0.92-0.51,1.23l0,0 c-0.32,0.32-0.75,0.51-1.23,0.51c-2.09,0-4.1,0.13-6.03,0.36c-1.93,0.23-3.78,0.57-5.54,1c-1.75,0.43-3.44,0.96-5.07,1.58 C70.13,29.43,68.57,30.14,67.07,30.93L67.07,30.93z M82.6,60.53c-0.39-0.27-0.63-0.66-0.72-1.09c-0.09-0.44-0.01-0.91,0.25-1.31 l0-0.01c0.27-0.4,0.67-0.65,1.1-0.74c0.44-0.09,0.91-0.01,1.31,0.25c0.17,0.11,0.32,0.19,0.45,0.25c0.12,0.05,0.23,0.07,0.33,0.07 c0.08,0,0.16-0.02,0.25-0.05c0.1-0.04,0.21-0.1,0.32-0.19c0.38-0.29,0.85-0.41,1.29-0.35c0.44,0.06,0.86,0.28,1.16,0.66 c0.29,0.38,0.41,0.85,0.35,1.29c-0.06,0.44-0.28,0.86-0.66,1.16c-0.43,0.33-0.87,0.57-1.32,0.73c-0.46,0.16-0.93,0.24-1.41,0.23 c-0.46,0-0.92-0.08-1.37-0.23c-0.45-0.15-0.89-0.37-1.32-0.66L82.6,60.53L82.6,60.53z M64.56,62.04c-0.4-0.26-0.66-0.67-0.75-1.1 c-0.09-0.44-0.02-0.91,0.25-1.31l0.01-0.01c0.26-0.4,0.66-0.65,1.1-0.74c0.44-0.09,0.91-0.02,1.31,0.25l0,0 c1.92,1.26,3.86,2.27,5.82,3.01c1.95,0.74,3.92,1.22,5.91,1.42c1.98,0.2,3.99,0.12,6.04-0.24c2.05-0.37,4.12-1.02,6.23-1.98 c0.44-0.2,0.92-0.2,1.33-0.05c0.42,0.16,0.78,0.47,0.98,0.91c0.2,0.44,0.2,0.92,0.05,1.33c-0.16,0.42-0.47,0.78-0.91,0.98 c-2.4,1.09-4.77,1.84-7.1,2.26c-2.34,0.42-4.66,0.5-6.95,0.27c-2.29-0.23-4.54-0.77-6.76-1.61C68.89,64.58,66.71,63.45,64.56,62.04 L64.56,62.04L64.56,62.04z M63.82,77.87c-0.01-0.02-0.02-0.04-0.03-0.06c-0.23-0.41-0.28-0.87-0.18-1.29 c0.11-0.42,0.37-0.81,0.77-1.05c0.02-0.01,0.04-0.03,0.06-0.04c0.41-0.23,0.87-0.28,1.29-0.18c0.43,0.11,0.82,0.38,1.07,0.8 c0.57,0.95,1.15,1.77,1.74,2.49c0.59,0.71,1.2,1.32,1.82,1.82c0.59,0.48,1.2,0.87,1.81,1.18c0.62,0.31,1.24,0.53,1.88,0.68 c0.47,0.11,0.85,0.4,1.09,0.77c0.24,0.38,0.33,0.85,0.22,1.32s-0.4,0.85-0.77,1.09c-0.38,0.24-0.85,0.33-1.32,0.22 c-0.9-0.21-1.77-0.52-2.63-0.94c-0.85-0.42-1.68-0.96-2.49-1.61c-0.78-0.63-1.53-1.38-2.26-2.25 C65.18,79.96,64.49,78.98,63.82,77.87L63.82,77.87z M47.17,1.63c0.03-0.48,0.25-0.9,0.59-1.19v0c0.33-0.3,0.78-0.46,1.26-0.43 c0.48,0.03,0.91,0.25,1.2,0.59h0c0.29,0.33,0.46,0.78,0.43,1.26v0c-0.08,1.26-0.29,2.45-0.64,3.56c-0.34,1.1-0.82,2.13-1.45,3.07 l-0.03,0.05l-0.02,0.03c-0.64,0.95-1.41,1.81-2.34,2.57c-0.94,0.77-2.02,1.44-3.27,2c-0.04,0.02-0.08,0.03-0.12,0.05l-0.11,0.04 c-1.26,0.43-2.59,0.95-4,1.58c-1.42,0.63-2.93,1.37-4.53,2.23c-1.63,0.87-3.35,1.86-5.18,2.98c-1.83,1.12-3.76,2.37-5.78,3.74 c-0.08,0.05-0.16,0.1-0.25,0.14c-0.08,0.03-0.15,0.06-0.22,0.09L22.64,24c-1.59,0.43-3.07,0.96-4.43,1.59 c-1.35,0.63-2.6,1.35-3.72,2.18c-1.12,0.82-2.12,1.74-3.02,2.77c-0.89,1.02-1.68,2.15-2.35,3.38l-0.01,0.01 c-0.43,0.83-0.8,1.76-1.12,2.77c-0.34,1.06-0.63,2.21-0.86,3.43c-0.26,1.32-0.45,2.71-0.59,4.14c-0.15,1.5-0.23,3.05-0.26,4.63l0,0 c0,0.09-0.01,0.18-0.02,0.26l0,0c-0.01,0.08-0.03,0.16-0.06,0.24c-0.68,2.36-1.21,4.78-1.61,7.26c-0.4,2.48-0.68,5.02-0.85,7.62 c-0.18,2.63-0.25,5.31-0.23,8.03c0.01,2.72,0.11,5.51,0.26,8.35c0.02,0.48-0.15,0.93-0.45,1.26c-0.3,0.33-0.72,0.55-1.21,0.57 c-0.48,0.02-0.93-0.15-1.26-0.45c-0.33-0.3-0.55-0.72-0.57-1.21C0.11,77.93,0.01,75.08,0,72.28c-0.01-2.81,0.06-5.56,0.24-8.24 c0.18-2.68,0.47-5.31,0.89-7.89c0.42-2.57,0.96-5.09,1.66-7.55c0.04-1.63,0.13-3.23,0.28-4.78c0.15-1.51,0.35-2.97,0.62-4.35 c0.27-1.37,0.59-2.68,0.99-3.9c0.38-1.17,0.82-2.26,1.33-3.25l0.04-0.08c0.8-1.45,1.73-2.78,2.79-4c1.06-1.22,2.26-2.31,3.58-3.28 c1.28-0.94,2.68-1.76,4.2-2.48c1.5-0.7,3.11-1.3,4.84-1.78c2.02-1.36,3.94-2.6,5.78-3.72c1.84-1.12,3.59-2.13,5.25-3.02 c1.68-0.9,3.27-1.68,4.78-2.35c1.51-0.67,2.92-1.23,4.26-1.68c0.92-0.42,1.72-0.91,2.4-1.47c0.68-0.56,1.24-1.18,1.7-1.86 l0.03-0.04c0.45-0.68,0.79-1.42,1.04-2.23c0.26-0.83,0.41-1.73,0.47-2.69L47.17,1.63L47.17,1.63z M19.4,46.17 c-0.07-0.47,0.06-0.93,0.33-1.28c0.27-0.36,0.67-0.62,1.15-0.69l0.01,0c0.47-0.07,0.93,0.06,1.28,0.33 c0.36,0.27,0.62,0.67,0.69,1.15C24,53.47,26,58.62,27.91,63.55l0.01,0.03c0.68,1.74,1.34,3.46,1.95,5.21 c0.62,1.79,1.19,3.67,1.68,5.72c2.7,11.42,2.37,18.87,1.87,30.04c-0.15,3.38-0.27,6.78-0.45,10.16c-0.02,0.48-0.24,0.9-0.56,1.2 c-0.33,0.3-0.77,0.48-1.26,0.46c-0.48-0.02-0.91-0.23-1.21-0.56c-0.3-0.33-0.48-0.77-0.46-1.25c0.3-3.31,0.14-6.86,0.45-10.16 c0.48-10.86,0.81-18.11-1.79-29.08c-0.3-1.28-0.64-2.49-1.01-3.65c-0.2-0.65-0.42-1.3-0.64-1.93c-0.08,0.56-0.17,1.09-0.25,1.61 c-0.17,1-0.36,1.94-0.56,2.84c-0.38,1.64-0.81,3.11-1.32,4.43c-0.51,1.32-1.1,2.48-1.77,3.49c-0.26,0.4-0.67,0.66-1.1,0.75 c-0.44,0.09-0.91,0.01-1.31-0.25c-0.4-0.26-0.66-0.67-0.75-1.1c-0.09-0.44-0.01-0.91,0.25-1.31c0.54-0.82,1.02-1.79,1.45-2.91 c0.43-1.13,0.81-2.42,1.14-3.87c0.34-1.48,0.63-3.12,0.87-4.95c0.24-1.8,0.45-3.78,0.62-5.95c-0.84-2.22-1.68-4.55-2.42-7.18 c-0.76-2.67-1.43-5.65-1.94-9.14L19.4,46.17L19.4,46.17z M57.32,27.79c0.44,0.19,0.76,0.55,0.92,0.97c0.16,0.42,0.16,0.9-0.03,1.34 c-0.19,0.44-0.55,0.76-0.97,0.92c-0.42,0.16-0.9,0.17-1.34-0.03c-1.76-0.77-3.52-1.46-5.28-2.06c-1.77-0.6-3.55-1.12-5.33-1.54 c-1.78-0.43-3.58-0.77-5.4-1.02c-1.82-0.25-3.64-0.42-5.48-0.49c-0.48-0.02-0.91-0.23-1.21-0.56c-0.3-0.32-0.48-0.76-0.46-1.24 c0-0.02,0-0.03,0-0.05c0.03-0.47,0.24-0.88,0.56-1.18c0.32-0.3,0.76-0.48,1.24-0.46c0.02,0,0.03,0,0.05,0 c1.94,0.08,3.87,0.25,5.78,0.52c1.92,0.27,3.83,0.63,5.74,1.09c1.91,0.46,3.8,1,5.66,1.63C53.64,26.26,55.49,26.98,57.32,27.79 L57.32,27.79z M38.33,57.63c0.4-0.27,0.87-0.34,1.31-0.25c0.43,0.09,0.83,0.33,1.09,0.72c0.01,0.02,0.02,0.03,0.03,0.05 c0.25,0.4,0.33,0.86,0.24,1.29l0,0.02c-0.09,0.42-0.34,0.81-0.72,1.07l-0.02,0.02c-0.43,0.29-0.87,0.51-1.32,0.66 c-0.45,0.15-0.91,0.23-1.37,0.23c-0.48,0-0.95-0.07-1.41-0.23c-0.45-0.16-0.89-0.4-1.32-0.73c-0.38-0.29-0.61-0.72-0.66-1.16 c-0.06-0.44,0.05-0.91,0.35-1.29c0.29-0.38,0.72-0.61,1.16-0.66c0.44-0.06,0.91,0.05,1.29,0.35c0.11,0.09,0.22,0.15,0.32,0.19 c0.09,0.04,0.17,0.05,0.25,0.05c0.09,0,0.2-0.03,0.33-0.07l0.03-0.01C38.03,57.82,38.17,57.74,38.33,57.63L38.33,57.63z M56.39,59.13l0.03-0.02c0.4-0.25,0.86-0.33,1.3-0.24c0.43,0.09,0.83,0.34,1.09,0.74l0.02,0.04c0.25,0.4,0.33,0.86,0.24,1.3 c-0.09,0.43-0.34,0.83-0.74,1.09l-0.03,0.02c-2.14,1.4-4.32,2.53-6.53,3.36c-2.22,0.84-4.47,1.38-6.76,1.61 c-2.29,0.23-4.61,0.15-6.95-0.27c-2.34-0.42-4.71-1.16-7.1-2.26c-0.44-0.2-0.75-0.56-0.91-0.98c-0.16-0.42-0.15-0.9,0.05-1.33 c0.2-0.44,0.56-0.75,0.98-0.91c0.42-0.16,0.9-0.15,1.33,0.05c2.1,0.96,4.18,1.62,6.23,1.98c2.04,0.37,4.06,0.44,6.04,0.24 c1.99-0.2,3.96-0.68,5.91-1.42C52.53,61.39,54.47,60.38,56.39,59.13L56.39,59.13z M56.08,76.05c0.25-0.41,0.64-0.69,1.07-0.8 c0.43-0.11,0.91-0.05,1.32,0.2l0.01,0c0.41,0.25,0.68,0.64,0.79,1.07c0.11,0.43,0.05,0.91-0.2,1.32l0,0 c-0.67,1.12-1.37,2.11-2.09,2.97c-0.73,0.87-1.48,1.62-2.26,2.25c-0.81,0.66-1.64,1.19-2.49,1.61c-0.86,0.42-1.73,0.73-2.63,0.94 c-0.47,0.11-0.94,0.01-1.32-0.22c-0.38-0.24-0.67-0.62-0.77-1.09c-0.11-0.47-0.01-0.94,0.22-1.32c0.24-0.38,0.62-0.67,1.09-0.77 c0.64-0.15,1.27-0.37,1.88-0.68c0.62-0.31,1.22-0.7,1.81-1.18c0.62-0.5,1.23-1.11,1.82-1.82C54.93,77.83,55.51,77,56.08,76.05 L56.08,76.05z"/></g></svg>