<?xml version="1.0" encoding="iso-8859-1"?>
<!-- Uploaded to: SVG Repo, www.svgrepo.com, Generator: SVG Repo Mixer Tools -->
<!DOCTYPE svg PUBLIC "-//W3C//DTD SVG 1.1//EN" "http://www.w3.org/Graphics/SVG/1.1/DTD/svg11.dtd">
<svg fill="#fff" version="1.1" id="Capa_1" xmlns="http://www.w3.org/2000/svg" xmlns:xlink="http://www.w3.org/1999/xlink" 
	 viewBox="0 0 420.91 399.56" xml:space="preserve">
<path d="M299.115,297.458c-0.83-2.881-3.076-5.135-5.953-5.98c-9.027-2.65-44.838-3.671-73.178-37.38
	c-4.771-5.675-9.856-8.838-10.419-26.985c0-15.381,0-103.76,0-156.378c0-21.488-15.324-39.809-36.46-43.676L26.013,0.145
	c-2.589-0.474-5.255,0.227-7.277,1.912c-2.022,1.685-3.191,4.182-3.191,6.814v78.32c0,2.453,1.015,4.796,2.805,6.473
	c1.79,1.677,4.194,2.539,6.641,2.38l123.205-7.993c-3.869,31.995,0.306,64.527,12.251,94.613l5.786,14.572
	c7.168,19.344,8.036,40.46,2.479,60.327c0,0-2.193,9.03-3.329,11.903c-4.318,10.923-4.529,23,2.317,32.543
	c6.846,9.543,18.479,14.423,30.085,12.622l6.343-0.985c6.774-1.052,13.635-1.442,20.485-1.167l51.845,2.086
	c7.904,0.318,15.533-2.933,20.777-8.855l0.021-0.023C299.243,303.444,299.945,300.339,299.115,297.458z M101.656,32.759
	c-0.587,3.692-3.774,6.324-7.398,6.324c-0.391,0-0.787-0.03-1.186-0.094l-52.055-8.271c-4.091-0.65-6.88-4.493-6.23-8.584
	c0.65-4.091,4.489-6.885,8.584-6.23l52.055,8.271C99.517,24.825,102.306,28.668,101.656,32.759z M114.272,41.252
	c-4.142,0-7.5-3.358-7.5-7.5c0-4.142,3.358-7.5,7.5-7.5c4.142,0,7.5,3.358,7.5,7.5C121.772,37.894,118.414,41.252,114.272,41.252z"
	/>
</svg>