<?xml version="1.0" encoding="UTF-8" standalone="no"?>
<svg
   xmlns:dc="http://purl.org/dc/elements/1.1/"
   xmlns:cc="http://creativecommons.org/ns#"
   xmlns:rdf="http://www.w3.org/1999/02/22-rdf-syntax-ns#"
   xmlns:svg="http://www.w3.org/2000/svg"
   xmlns="http://www.w3.org/2000/svg"
   version="1.1"
   id="svg4409"
   viewBox="0 0 1561.6114 1799.0979"
   height="1799.0979"
   width="1561.6113">
  <defs
     id="defs4411" />
  <metadata
     id="metadata4414">
    <rdf:RDF>
      <cc:Work
         rdf:about="">
        <dc:format>image/svg+xml</dc:format>
        <dc:type
           rdf:resource="http://purl.org/dc/dcmitype/StillImage" />
        <dc:title></dc:title>
      </cc:Work>
    </rdf:RDF>
  </metadata>
  <g
     transform="translate(726.46208,242.86664)"
     id="layer1" fill="#fff">
    <path
       id="path4470"
       d="m 271.42858,1555.5108 c -14.78125,-0.478 -30.53125,-1.4495 -35,-2.1589 -4.46875,-0.7095 -17.96875,-1.846 -30,-2.5257 -46.7254,-2.6398 -76.72679,-5.8383 -101.25,-10.7946 -5.15625,-1.042 -12.468754,-2.4067 -16.250004,-3.0323 -3.78125,-0.6257 -10.8125,-2.063 -15.625,-3.194 -7.47992,-1.758 -26.22999,-3.2166 -61.875,-4.8136 -4.4687503,-0.2001 -21.3437503,-0.7508 -37.5,-1.2234 -45.29915,-1.3252 -70.59367,-2.9974 -85.624996,-5.6604 -7.5625,-1.3397 -21.625,-3.3281 -31.25,-4.4186 -9.625,-1.0905 -28.44019,-3.6232 -41.81149,-5.6284 -13.3714,-2.0051 -24.6965,-3.4077 -25.1669,-3.117 -1.84,1.1373 -29.5651,-3.4588 -34.4862,-5.7168 -2.868,-1.316 -8.9007,-2.9817 -13.4059,-3.7014 -4.5053,-0.7196 -9.6576,-1.866 -11.4496,-2.5473 -1.7919,-0.6812 -9.8217,-2.3727 -17.844,-3.7586 -8.0222,-1.386 -19.9297,-3.595 -26.4609,-4.9089 -6.5313,-1.3138 -15.8125,-3.0728 -20.625,-3.9087 -4.8125,-0.8358 -12.1694,-2.8011 -16.3487,-4.3673 -4.1793,-1.5661 -13.7418,-4.3698 -21.25,-6.2305 -7.5082,-1.8606 -14.559,-3.8491 -15.6684,-4.4188 -3.3915,-1.7419 -29.6183,-5.9405 -45.4829,-7.2814 -15.1107,-1.277 -19.8011,-1.1018 -31.25,1.1677 -10.2407,2.03 -50.8755,2.6503 -58.4268,0.8919 -9.8909,-2.3032 -29.856,-1.476 -39.168,1.6228 -6.8993,2.296 -8.877,2.4402 -17.9146,1.307 -5.5875,-0.7007 -11.4149,-1.9212 -12.9498,-2.7124 -3.9241,-2.0226 -8.4158,-6.2931 -8.4158,-8.0011 0,-0.7917 -1.3438,-2.7017 -2.9863,-4.2447 -1.6424,-1.543 -3.3046,-4.3973 -3.6937,-6.3428 -0.6114,-3.0568 -1.2891,-3.5375 -4.9874,-3.5375 -6.9614,0 -16.1323,-6.3619 -23.1641,-16.069 l -3.6007,-4.9707 -0.061,-22.9165 c -0.057,-21.1885 -0.2574,-23.1812 -2.6589,-26.4295 -1.4286,-1.9322 -2.6,-4.5202 -2.6032,-5.7512 -0.01,-3.161 -5.076,-15.011 -9.0988,-21.2758 -1.8675,-2.9082 -3.3954,-5.6036 -3.3954,-5.9896 0,-0.3861 -1.7173,-4.4754 -3.8161,-9.0874 -5.5311,-12.1535 -5.7852,-12.7716 -8.0726,-19.6353 -1.1456,-3.4375 -2.5956,-7.2268 -3.2221,-8.4205 -0.6265,-1.1939 -1.1392,-2.853 -1.1392,-3.6872 0,-2.5205 -7.7964,-22.7491 -9.5837,-24.8657 -0.9165,-1.0854 -1.6663,-2.9176 -1.6663,-4.0718 0,-1.154 -1.3679,-4.766 -3.0398,-8.0265 -7.4116,-14.4542 -10.1866,-21.7915 -15.7157,-41.5533 -1.2503,-4.4688 -2.8749,-9.8125 -3.6101,-11.875 -3.6211,-10.1584 -11.7404,-36.6373 -12.1181,-39.5202 -0.2357,-1.7986 -0.997,-5.7361 -1.6918,-8.75 -0.6949,-3.014 -1.2771,-9.2166 -1.2939,-13.7836 -0.017,-4.5672 -0.8187,-12.4422 -1.782,-17.5 -2.0258,-10.6373 -1.8535,-7.9836 -2.3423,-36.0712 -0.2094,-12.0313 0.2938,-29.1875 1.1182,-38.125 0.8245,-8.9375 1.8061,-19.625 2.1813,-23.75 0.7991,-8.783 2.8773,-22.6507 4.5895,-30.62503 0.6643,-3.09375 1.7907,-9.92125 2.5032,-15.17213 0.7126,-5.25087 1.7744,-11.21674 2.3596,-13.2574 0.5853,-2.04065 0.7792,-5.20079 0.4309,-7.02255 -0.3482,-1.82176 -0.095,-4.01218 0.5627,-4.86761 0.6577,-0.85542 1.8996,-5.77406 2.7599,-10.93031 0.8602,-5.15625 2.0757,-10.66709 2.7012,-12.24631 0.6255,-1.57923 1.1372,-4.56029 1.1372,-6.62458 0,-2.0643 0.8271,-5.35276 1.8381,-7.3077 1.0109,-1.95494 2.4441,-7.69262 3.1849,-12.75042 0.7408,-5.05779 1.6119,-10.88349 1.9357,-12.94599 2.1847,-13.91336 3.0703,-21.10052 3.5686,-28.96126 0.5319,-8.39134 4.484,-20.41374 6.7106,-20.41374 0.5089,0 1.9694,-2.95313 3.2454,-6.5625 1.2761,-3.60938 3.2914,-7.96875 4.4784,-9.6875 3.4463,-4.98984 5.2372,-14.69504 4.9538,-26.84561 -0.4538,-19.45835 0.1965,-44.67799 1.3868,-53.77939 1.5899,-12.1563 2.3929,-20.93243 2.9168,-31.875 0.2469,-5.15625 0.7652,-10.21875 1.1517,-11.25 2.3631,-6.30383 8.9807,-39.47725 11.7197,-58.75 2.2215,-15.63085 5.7903,-33.45448 7.8212,-39.06071 3.8858,-10.72693 6.3383,-20.4147 6.3383,-25.03702 0,-2.38587 0.8905,-6.7993 1.979,-9.80761 1.0884,-3.00831 3.8689,-11.65716 6.179,-19.21966 2.31,-7.5625 6.5387,-19.65625 9.3971,-26.875 2.8585,-7.21875 6.0605,-15.9375 7.1158,-19.375 1.0553,-3.4375 2.686,-7.35954 3.6239,-8.71564 0.9379,-1.35609 1.7052,-3.71352 1.7052,-5.23872 0,-1.5252 0.5625,-3.12074 1.25,-3.54564 0.6875,-0.4249 1.2679,-2.00497 1.2898,-3.51128 0.022,-1.5063 0.8656,-3.83061 1.875,-5.16513 1.0094,-1.33453 1.8352,-4.72499 1.8352,-7.53437 0,-2.80937 0.7457,-6.2175 1.6571,-7.57358 0.9114,-1.3561 2.6786,-5.84064 3.9271,-9.96564 1.2485,-4.125 3.4277,-9.75 4.8427,-12.5 1.415,-2.75 2.4239,-5.75404 2.2421,-6.67565 -0.1818,-0.9216 1.0741,-5.70285 2.7909,-10.625 1.7167,-4.92214 3.4863,-12.88685 3.9323,-17.69935 0.446,-4.8125 1.6632,-12.29496 2.705,-16.6277 1.0665,-4.43532 1.6113,-10.44377 1.2467,-13.75 -1.702,-15.4368 -2.0873,-33.2288 -0.7377,-34.06295 0.9378,-0.57956 1.0119,-1.64329 0.2237,-3.21289 -0.648,-1.29055 -1.2828,-6.28396 -1.4107,-11.09646 -0.2123,-7.99042 0.1772,-9.49559 4.4867,-17.33877 7.9917,-14.54489 10.8414,-19.23148 14.3047,-23.52552 1.8346,-2.27463 5.7721,-8.07321 8.75,-12.88571 5.3367,-8.62436 5.4144,-8.91154 5.4144,-20 0,-6.1875 -0.6693,-13.5 -1.4874,-16.25 -0.8181,-2.75 -2.1263,-8.65625 -2.9071,-13.125 -0.7808,-4.46875 -2.0515,-10.9375 -2.8237,-14.375 -0.7723,-3.4375 -1.4329,-14.99335 -1.468,-25.67965 -0.054,-16.47074 0.2694,-19.93814 2.1237,-22.76853 1.2031,-1.83637 2.1875,-4.50606 2.1875,-5.93263 0,-1.42659 1.0564,-4.68075 2.3475,-7.23149 1.2911,-2.55074 2.7618,-6.60645 3.2683,-9.0127 0.9419,-4.47488 5.1519,-15.44354 9.3557,-24.375 18.0997,-38.455025 21.9609,-51.037987 27.5607,-89.81426 4.5843,-31.7444071 5.233,-34.7191071 10.2133,-46.836487 4.5766,-11.13534 12.9969,-22.76052 27.3241,-37.72425 12.7467,-13.31301 23.6804,-26.79714 23.6804,-29.2041 0,-1.01066 0.4219,-2.02506 0.9375,-2.25424 3.743,-1.66356 33.1998,-40.056653 41.5589,-54.166663 1.6292,-2.75 4.4058,-6.79221 6.1704,-8.98269 1.7645,-2.19048 5.4582,-7.1594 8.2082,-11.04206 17.1265,-24.18037 30.4074,-38.8738 36.1568,-40.00225 6.8558,-1.3456 10.7182,-3.34863 10.7182,-5.55844 0,-4.81226 20.0361,-19.34703 29.3515,-21.29245 8.4074,-1.75579 23.184,-7.57104 32.5235,-12.79943 1.375,-0.76975 7,-1.63203 12.5,-1.9162 9.1528,-0.47288 11.2548,-0.0852 24.8102,4.57578 8.9861,3.08987 19.063,5.58145 25.625,6.33598 5.9481,0.68394 18.1273,2.16436 27.0648,3.28982 8.9375,1.12545 23.9584,2.21633 33.3797,2.42416 16.17845,0.3569 25.32462,1.80294 44.12032,6.97556 14.30517,3.93681 57.122476,18.87776 61.944706,21.61539 3.05542,1.73458 7.81935,4.2266 10.58654,5.53783 6.87095,3.25578 19.18945,14.74457 20.14275,18.78602 0.4285,1.81664 1.7928,4.42798 3.03179,5.80298 3.1592,3.50604 4.63,7.91597 5.65152,16.94504 0.60165,5.31795 0.46657,7.5459 -0.42417,6.9954 -0.79888,-0.49373 -1.57201,1.25611 -1.98865,4.50089 -0.3749,2.91977 -1.3794,8.80711 -2.23223,13.08298 -1.82795,9.16501 -0.43976,13.09323 5.74354,16.25268 2.08681,1.06629 5.83418,3.69017 8.32748,5.83085 9.7016297,8.329573 12.9317697,10.767163 14.2679597,10.767163 2.25606,0 6.28877,5.22575 8.5608703,11.09353 1.16463,3.00768 1.86059,5.72543 1.54658,6.03945 -0.31402,0.31401 0.22495,2.47573 1.1977,4.80382 2.7258,6.52378 2.39136,25.66301 -0.51474,29.45713 -1.25585,1.63958 -3.26334,5.47988 -4.4610703,8.53398 -1.19776,3.05412 -3.26399,7.07844 -4.59165,8.94297 -1.32767,1.86452 -2.41393,3.95078 -2.41393,4.63611 0,1.7133 -13.2053697,9.7846499 -25.8924097,15.8258999 -2.20959,1.05214 -4.61689,3.03309996 -5.34956,4.40210996 -0.73268,1.36901004 -3.11819,3.41272704 -5.30115,4.54158704 -3.82383,1.97737 -6.71375,4.7206501 -18.11342,17.1943001 -2.90483,3.17851 -5.76646,5.77911 -6.35916,5.77911 -0.5927,0 -3.26804,4.25789 -5.9452,9.46199 -2.67716,5.20409 -5.58115,10.05421 -6.45332,10.77805 -0.87218,0.72383 -1.58578,1.98013 -1.58578,2.79176 0,0.81164 -1.62992,3.69589 -3.62204,6.40945 -1.99212,2.713562 -4.25692,7.2988 -5.03289,10.189412 -0.77594,2.890613 -2.80228,6.909313 -4.50294,8.93045 -1.70068,2.021125 -3.09213,4.400363 -3.09213,5.287175 0,0.886825 -1.0977,3.899375 -2.43935,6.694563 -1.34164,2.795175 -3.10687,7.89465 -3.92275,11.33215 -1.93794,8.16506 -10.675906,28.09864 -15.825396,36.10185 -2.23437,3.47261 -4.0625,7.24942 -4.0625,8.39292 0,1.14349 -2.39062,4.07422 -5.3125,6.51274 -10.48956,8.75429 -24.84699,24.11935 -28.79235,30.81308 -2.94814,5.00181 -7.68677,9.76021 -17.77017,17.84448 -16.8985,13.54824 -39.3354,35.68473 -44.683,44.08493 -2.1884,3.4375 -6.958,10.02464 -10.5992,14.63809 l -6.6204,8.38809 -12.7987,3.87663 c -21.8565,6.6202 -24.4365,7.55522 -25.9805,9.41569 -0.8246,0.99358 -2.4769,1.8065 -3.6718,1.8065 -1.1949,0 -4.2447,1.40625 -6.7775,3.125 -2.5327,1.71875 -5.4237,3.125 -6.4244,3.125 -1.0818,0 -1.8195,1.20334 -1.8195,2.96789 0,1.65786 -1.9602,5.10629 -4.441,7.8125 -8.8391,9.64241 -14.6661,27.47566 -15.0437,46.04002 -0.2746,13.503 -0.7481,19.46284 -2.7854,35.05459 -2.3426,17.92817 -3.0897,28.545 -2.8588,40.625 0.1249,6.53125 -0.4128,13.84375 -1.1948,16.25 -0.8859,2.72655 -1.6021,18.74009 -1.9007,42.5 -0.2636,20.96875 -0.4896,38.81047 -0.5024,39.64827 -0.014,0.90802 -0.8682,1.19902 -2.1152,0.72049 -1.6986,-0.6518 -1.8855,-0.35056 -0.9942,1.60173 1.6438,3.6007 1.7396,14.0531 0.197,21.4955 -1.1777,5.68165 -1.0585,7.11187 0.8641,10.3665 2.1996,3.72367 4.5908,14.8616 5.1427,23.95383 0.1556,2.56374 0.8193,5.37624 1.475,6.25 0.6556,0.87378 1.337,3.83868 1.5142,6.58868 0.1772,2.75 1.4591,9.6822 2.8487,15.40487 1.3895,5.72269 2.2171,10.71422 1.839,11.09229 -0.378,0.37806 0.3374,2.72711 1.5899,5.22011 1.2525,2.493 2.987,6.78273 3.8545,9.53273 0.8675,2.75 2.2523,5.84375 3.0774,6.875 0.8252,1.03125 3.62,6.9375 6.2108,13.125 2.5908,6.1875 5.4903,12.9375 6.4433,15 0.953,2.0625 2.1014,6.28125 2.5518,9.375 0.4505,3.09375 1.3676,6.32082 2.0381,7.17126 0.6704,0.85045 0.861,2.97218 0.4236,4.71495 -0.5935,2.36467 -0.2324,3.37647 1.4229,3.98756 3.1673,1.16924 4.0523,2.89379 4.0741,7.93873 0.01,2.44063 0.6941,5.1125 1.5191,5.9375 0.825,0.825 0.9988,1.5 0.3861,1.5 -0.6126,0 -0.2439,0.70313 0.8194,1.5625 2.2435,1.81313 11.0445,25.96655 11.0445,30.31027 0,1.61448 1.3271,4.52546 2.9492,6.46882 4.6005,5.512 7.0127,10.97984 12.251,27.77059 2.6733,8.56856 6.4719,18.99551 8.4414,23.17101 1.9696,4.1755 7.2997,15.34175 11.8447,24.81391 4.5451,9.47215 8.2637,17.52261 8.2637,17.8899 0,0.88347 4.8749,11.48927 13.7377,29.888 3.9741,8.25 7.635,17.53125 8.1353,20.625 0.5003,3.09375 1.5492,6.41457 2.3308,7.37961 0.7817,0.96505 1.4885,4.90255 1.5708,8.75 0.082,3.84746 1.3599,10.93289 2.8391,15.74539 3.8708,12.59294 4.8284,38.80224 2.1542,58.96263 -1.1098,8.36687 -2.0228,18.21062 -2.0287,21.875 -0.01,3.6642 -0.3656,9.6155 -0.7992,13.2249 -0.7076,5.8915 -1.0975,6.5625 -3.8129,6.5625 -1.7502,0 -2.6905,0.5406 -2.2316,1.2831 0.4362,0.7057 1.735,1.1276 2.8863,0.9375 1.7849,-0.2948 2.0282,0.6449 1.6516,6.3782 -0.4215,6.4169 -0.3329,6.6452 1.9417,5 6.1635,-4.4578 24.8368,-19.2767 25.5329,-20.2625 1.225,-1.7347 9.31117,-6.431 23.59202,-13.7015 18.05915,-9.19396 29.39005,-15.54596 37.499996,-21.02221 3.78125,-2.55325 8.5625,-5.37325 10.625,-6.26652 2.0625,-0.89329 7.03356,-4.31785 11.04681,-7.61013 4.01324,-3.29228 7.95074,-5.9856 8.75,-5.98512 0.79925,4.6e-4 5.39069,-1.93019 10.20319,-4.29034 4.8125,-2.36014 13.53125,-5.7548 19.375,-7.54369 5.84375,-1.78887 11.75,-3.76771 13.125,-4.3974 5.5429,-2.5384 23.5370597,-7.51757 36.3799497,-10.06671 7.4910303,-1.48686 18.6825503,-3.90555 24.8700503,-5.37486 10.78348,-2.5607 14.2565,-2.6762 83.750004,-2.78529 102.02021,-0.16014 126.20202,1.46965 156.393,10.54046 7.80181,2.34404 23.64409,9.30715 32.982,14.4965 1.71875,0.95515 7.34375,3.49739 12.5,5.64939 5.15625,2.15201 12.46875,5.85143 16.25,8.22091 3.78125,2.36949 9.96875,5.76122 13.75,7.53717 3.78125,1.77588 11.39476,5.43038 16.91893,8.12101 5.52416,2.69062 11.15748,4.892 12.51851,4.892 1.36102,0 4.71494,1.20075 7.45314,2.66837 7.50371,4.02175 13.39963,3.72288 18.37558,-0.93125 2.25987,-2.11375 6.07759,-4.58425 8.48384,-5.49 2.40625,-0.90562 6.0625,-2.861 8.125,-4.34512 2.0625,-1.48413 7.125,-4.60445 11.25,-6.93414 8.92909,-5.04289 8.49765,-4.73804 15.76479,-11.13966 3.17064,-2.79301 6.59301,-5.0782 7.60527,-5.0782 1.01227,0 5.16812,-2.33799 9.23522,-5.19553 6.62463,-4.65446 14.67687,-9.36365 22.1081,-12.92947 1.43274,-0.6875 4.89587,-2.45559 7.69587,-3.92908 13.16175,-6.92652 46.29988,-23.13673 56.96575,-27.86605 6.53125,-2.89597 16.09375,-7.1574 21.25,-9.46982 21.86338,-9.80509 39.28562,-15.77414 65.625,-22.48391 9.625,-2.45189 21.4375,-5.9009 26.25,-7.66447 4.8125,-1.76356 11.84375,-4.34246 15.625,-5.73088 3.78125,-1.38844 7.7585,-2.96262 8.83825,-3.49819 5.76688,-2.86023 18.596,-7.33136 22.41175,-7.81081 2.40625,-0.30235 6.90625,-1.17117 10,-1.9307 14.84938,-3.64564 30.38387,-6.49109 35.4375,-6.49109 3.07587,0 10.00137,-0.86241 15.39,-1.91648 5.38862,-1.05406 17.50075,-2.26416 26.91575,-2.68911 14.68112,-0.66262 17.56687,-0.47875 20.26862,1.29148 3.91188,2.56323 5.73813,2.62342 5.73813,0.18911 0,-2.3219 3.75037,-2.43939 6.79525,-0.21288 1.91487,1.40017 2.18825,2.99544 1.73437,10.12194 -0.79975,12.56016 -3.53087,14.1395 -30.61575,17.70396 -8.13387,1.07045 -16.47637,2.18327 -18.53887,2.47293 -2.0625,0.28965 -10.02,1.05786 -17.68325,1.70714 -16.44388,1.39321 -27.0035,3.21801 -37.40488,6.46392 -4.1735,1.30239 -8.87425,2.36799 -10.44612,2.36799 -4.90213,0 -20.27463,3.82472 -30.71575,7.64221 -5.5,2.0109 -13.65625,4.71273 -18.125,6.00405 -8.049,2.3259 -29.03425,10.06448 -42.7275,15.7563 -3.90638,1.62375 -9.25013,3.34094 -11.875,3.81595 -5.693,1.03026 -19.69763,7.13773 -20.9265,9.1261 -0.47763,0.77296 -2.00075,1.40539 -3.38463,1.40539 -1.38387,0 -4.86637,1.3272 -7.73875,2.94935 -2.8725,1.62214 -9.16012,4.4985 -13.97262,6.39191 -4.8125,1.89343 -15.50175,6.75371 -23.754,10.80066 -8.25213,4.04694 -15.47963,7.35808 -16.06113,7.35808 -0.58137,0 -2.8295,0.81349 -4.996,1.80774 -2.16637,0.99426 -9.75675,4.36023 -16.86737,7.47996 -7.11063,3.11972 -16.11063,7.58839 -20,9.93035 -3.88933,2.34196 -12.6965,7.20407 -19.5715,10.80457 -13.59344,7.11925 -24.12326,16.10738 -25.23441,21.53988 -0.71324,3.48713 -1.40683,3.87963 -6.19198,3.50423 -2.60637,-0.2045 -7.94861,5.5351 -7.94861,8.5399 0,2.0492 10.67672,4.053 36.875,6.9206 8.9375,0.9783 19.34375,2.8974 23.125,4.2645 8.20887,2.9681 13.16275,4.3639 45,12.6778 21.72487,5.6732 54.103,15.0067 64.375,18.5571 2.0625,0.7129 9.65625,3.2304 16.875,5.5944 27.73137,9.0815 35.81437,13.0127 42.64787,20.7425 5.28588,5.9791 5.94113,9.4047 2.91726,15.2522 -2.72188,5.2636 -6.91001,6.5763 -13.0915,4.1029 -2.94213,-1.1773 -6.30613,-1.6553 -8.23738,-1.1705 -3.20087,0.8034 -11.25737,-2.009 -29.23625,-10.2061 -3.78125,-1.7239 -13.0625,-5.054 -20.625,-7.4002 -7.5625,-2.3461 -16.28125,-5.1365 -19.375,-6.2008 -3.09375,-1.0645 -7.59375,-2.365 -10,-2.8903 -2.40625,-0.5252 -11.6875,-3.2581 -20.625,-6.073 -8.9375,-2.8149 -19.01587,-5.4166 -22.39637,-5.7817 -3.38063,-0.3652 -6.7275,-1.2449 -7.4375,-1.9549 -0.71013,-0.7101 -3.00675,-1.2954 -5.10363,-1.3006 -6.6635,-0.016 -42.15781,-12.2942 -53.1875,-18.3975 -3.78125,-2.0924 -16.4375,-7.0292 -28.125,-10.9707 -11.6875,-3.9415 -22.69334,-7.9048 -24.45741,-8.8075 -1.76408,-0.9026 -9.63908,-3.9875 -17.5,-6.8555 -16.03178,-5.8487 -36.76528,-14.77046 -48.04259,-20.67296 -4.125,-2.159 -9.07956,-4.30675 -11.01014,-4.773 -1.93057,-0.46612 -6.26552,-2.78412 -9.63322,-5.15125 -3.36769,-2.36712 -8.81938,-5.65225 -12.11485,-7.30023 -3.29549,-1.64802 -10.06327,-5.02565 -15.03952,-7.50587 -10.17592,-5.07178 -24.34033,-9.90858 -37.2666,-12.72562 -4.77711,-1.04109 -13.85891,-3.00721 -20.18175,-4.36915 -6.41122,-1.38099 -19.40413,-2.82999 -29.375,-3.27598 -16.96373,-0.75877 -101.692114,-0.59482 -120.378924,0.23293 -15.27326,0.67655 -34.9961,2.54557 -36.46915,3.45597 -2.52791,1.56234 -17.21956,3.11577 -19.27685,2.03825 -1.15496,-0.60491 -2.52694,-0.51448 -3.25602,0.2146 -1.2606,1.2606 -12.2879403,4.17882 -22.8729803,6.05299 -16.9289597,2.99743 -48.7499997,14.3365 -48.7499997,17.37149 0,0.53675 -2.8395,1.70362 -6.31,2.59312 -3.4705,0.88938 -8.95487,3.02388 -12.1875,4.74313 -3.23262,1.71937 -10.94,5.80562 -17.1275,9.08075 -12.07204,6.38987 -23.083306,13.47433 -28.124996,18.09523 -1.71875,1.5754 -4.80935,3.2631 -6.86801,3.7508 -4.8054,1.1381 -6.88199,2.8998 -6.88199,5.8385 0,1.5065 -0.88719,2.347 -2.47726,2.347 -2.3993,0 -8.07063,4.8306 -13.20795,11.25 -2.69261,3.3646 -12.83261,11.9553 -18.30381,15.5073 -5.9548,3.8659 -11.644,9.9752 -14.5967,15.6745 -3.1567,6.0932 -6.1079,10.1775 -12.482,17.2748 -4.8032,5.3482 -8.4659,11.3562 -15.6988,25.7512 l -5.1085,10.1671 -5.4967,0.3934 c -4.6466,0.3325 -6.5373,-0.3233 -12.2244,-4.2401 -6.6425,-4.5749 -6.8465,-4.6245 -16.1115,-3.9239 -17.0436,1.289 -69.2436,17.2226 -74.8273,22.8404 -1.4246,1.4332 -4.137,3.5637 -6.0276,4.7343 -4.1088,2.5443 -4.3584,4.0385 -0.8288,4.9615 3.8707,1.0123 2.5026,4.8584 -2.6234,7.3753 -6.9786,3.4265 -21.2458,9.7747 -27.5737,12.269 -9.0066,3.55 -22.6303,10.7468 -26.7866,14.15 -2.0625,1.6888 -6.2732,4.9763 -9.3572,7.3054 -5.7337,4.3304 -22.0027,24.6359 -34.7266,43.3429 -8.7171,12.8159 -16.1009,19.5804 -22.4719,20.5867 -2.5819,0.4079 -9.1943,0.2799 -14.6943,-0.2845 -20.4424,-2.0973 -33.6642,-12.235 -25.5429,-19.5846 2.53,-2.2897 2.7928,-2.2651 13.0616,1.2214 19.6296,6.6647 28.9352,2.8204 48.4996,-20.0365 6.4075,-7.4859 15.7344,-17.8174 20.7263,-22.9591 4.9919,-5.1417 9.4541,-10.0015 9.9158,-10.7998 1.9596,-3.3875 20.3165,-15.9338 31.9793,-21.8567 8.6572,-4.3966 14.5744,-8.4168 18.8756,-12.8246 3.4458,-3.5312 8.9484,-7.7839 12.2278,-9.4502 5.9558,-3.0264 9.146,-5.8953 17.9955,-16.1832 4.036,-4.692 34.5761,-26.412 37.1375,-26.412 0.9886,0 9.3651,-6.2828 14.9531,-11.2155 4.8966,-4.3224 9.5458,-11.8605 9.5458,-15.4773 0,-5.505 5.8297,-13.988 11.3116,-16.46 4.9846,-2.2477 5.0982,-2.243 7.6631,0.3219 3.2678,3.2677 2.417,7.494 -2.5006,12.4217 -7.3085,7.3237 -6.0165,12.4368 2.8083,11.1134 4.434,-0.665 6.7595,-1.9131 9.8257,-5.2736 5.8516,-6.4134 5.3843,-5.2975 10.9086,-26.0556 0.5489,-2.0625 2.4941,-9.0938 4.3226,-15.625 10.0267,-35.81303 11.5223,-52.42959 7.5197,-83.54493 -3.5794,-27.82478 -8.7942,-47.48694 -17.4596,-65.8301 -4.4442,-9.40776 -7.601,-17.73045 -10.6675,-28.125 -4.0974,-13.88871 -7.5279,-19.72591 -17.0902,-29.08011 -4.7425,-4.63932 -10.4088,-11.38483 -12.5918,-14.99 -4.7405,-7.82885 -10.5446,-23.47683 -13.4014,-36.13045 -3.8275,-16.95284 -4.7704,-20.39027 -7.8306,-28.54944 -1.6761,-4.46875 -3.5431,-9.25 -4.1489,-10.625 -0.6057,-1.375 -1.8928,-4.75 -2.8603,-7.5 -0.9674,-2.75 -3.4693,-9.21875 -5.5597,-14.375 -2.0904,-5.15625 -4.1045,-10.78125 -4.4758,-12.5 -0.3713,-1.71875 -2.9629,-6.64063 -5.7591,-10.9375 l -5.0839,-7.8125 -6.9572,0 c -5.6155,0 -8.2607,0.77959 -13.7151,4.04204 -3.7169,2.22312 -6.7579,4.49356 -6.7579,5.04542 0,0.55186 -2.7815,6.74858 -6.1812,13.77046 -3.3997,7.02189 -7.394,16.70458 -8.8764,21.51708 -2.687,8.72346 -8.028,23.06007 -9.9792,26.7867 -2.3519,4.49191 -7.2913,18.91724 -9.8746,28.8383 -1.5216,5.84375 -3.8161,13.71875 -5.0988,17.5 -1.2828,3.78125 -2.7101,9.52875 -3.1719,12.77222 -0.9212,6.4698 -2.8784,8.95172 -6.0879,7.72009 -1.6852,-0.64667 -1.9333,-1.82535 -1.2887,-6.12377 0.4391,-2.92763 0.3225,-5.61699 -0.259,-5.97635 -0.5815,-0.35938 -0.9812,-5.629 -0.8882,-11.7103 0.098,-6.43239 -0.6003,-13.82957 -1.6706,-17.68618 -1.2696,-4.57479 -1.5489,-8.64237 -0.9013,-13.125 1.3255,-9.17515 0.8925,-28.30012 -0.6837,-30.19939 -0.7722,-0.93035 -1.795,-14.02286 -2.4567,-31.44518 -0.6236,-16.41813 -1.4904,-33.22614 -1.9262,-37.35114 -1.2513,-11.84184 -1.994,-20.60518 -2.4895,-29.375 -0.2525,-4.46875 -0.7796,-13.46875 -1.1714,-20 -0.3918,-6.53125 -1.0389,-18.90625 -1.438,-27.5 -0.3991,-8.59375 -1.2463,-20.0793 -1.8826,-25.52345 -0.7154,-6.12138 -0.7099,-11.60661 0.014,-14.375 1.4903,-5.6956 1.4828,-21.85835 -0.018,-39.47655 -2.3322,-27.37421 -2.4495,-44.44293 -0.3819,-55.58296 1.4766,-7.95568 1.751,-14.16207 1.1055,-25 -1.1951,-20.06549 -1.0321,-29.4533 0.5971,-34.38995 1.7983,-5.44888 4.7918,-38.98089 3.6456,-40.8356 -0.4793,-0.77553 -0.1858,-3.04085 0.6523,-5.03408 1.2395,-2.9478 1.1564,-5.0733 -0.4451,-11.39072 -1.0828,-4.27168 -2.6719,-8.50999 -3.5313,-9.41848 -0.8594,-0.90847 -1.5625,-2.74486 -1.5625,-4.08085 0,-1.33599 -1.8281,-4.39427 -4.0625,-6.7962 -3.0476,-3.27612 -5.6239,-4.65449 -10.3125,-5.51745 -3.6326,-0.66859 -6.7251,-0.68639 -7.3845,-0.0425 -1.5099,1.47431 1.4457,4.96379 4.2042,4.96379 3.0721,0 3.8932,1.25016 2.5138,3.82755 -0.8776,1.63967 -0.6408,2.81157 0.8739,4.32632 1.1426,1.14262 2.5311,4.94687 3.0855,8.45388 0.58,3.66887 1.8493,6.84721 2.9893,7.48522 1.461,0.81759 1.6278,1.53487 0.6352,2.73089 -0.9509,1.14575 -0.9595,2.63906 -0.029,5.0855 2.1961,5.7762 2.8807,29.02728 1.1767,39.96564 -0.8569,5.5 -1.466,12.8125 -1.3537,16.25 0.1123,3.4375 0.524,14.96875 0.9148,25.625 0.8145,22.20737 -1.2063,44.42765 -4.1429,45.55451 -2.6361,1.01159 -6.486,-1.47217 -7.2124,-4.65309 -1.6972,-7.43238 -2.6107,-16.97905 -1.8303,-19.12831 0.4789,-1.31896 0.4215,-3.26581 -0.1275,-4.32634 -0.549,-1.06052 -0.9276,-6.40427 -0.8414,-11.875 0.094,-5.9965 -0.6519,-12.67712 -1.8797,-16.82177 -1.1201,-3.78125 -2.9669,-12.21875 -4.1041,-18.75 -1.1372,-6.53125 -3.4374,-17.21875 -5.1116,-23.75 -1.6742,-6.53125 -3.8683,-16.65625 -4.8758,-22.5 -1.8474,-10.71624 -3.7988,-20.83778 -4.9821,-25.84116 -0.3532,-1.49389 -2.131,-4.48542 -3.9506,-6.64785 -3.7011,-4.39849 -18.8686,-14.91047 -25.1777,-17.44964 -2.2607,-0.90983 -4.6711,-2.70208 -5.3565,-3.98279 -0.7348,-1.37325 -2.6068,-2.32856 -4.5628,-2.32856 l -3.3167,0 2.7357,-2.5487 c 3.1066,-2.89425 3.3244,-3.86257 1.3197,-5.86728 -0.7788,-0.77878 -1.0777,-2.29753 -0.6643,-3.375 1.5135,-3.94411 14.0368,-1.87036 25.8415,4.27914 6.2828,3.27295 7.4055,3.47653 12.8125,2.32333 3.2594,-0.69518 5.9263,-1.53128 5.9263,-1.85801 0,-0.32673 -2.6719,-1.77439 -5.9375,-3.21702 -16.7401,-7.3951 -20.1382,-14.33382 -8.1902,-16.72343 5.2671,-1.0534 13.9914,3.55067 15.7981,8.33703 1.6772,4.44343 2.1116,4.48255 5.8296,0.52494 1.6146,-1.71875 3.6472,-3.125 4.5168,-3.125 0.8696,0 4.2462,-2.3066 7.5035,-5.12577 3.2573,-2.81918 7.6509,-5.87128 9.7635,-6.78246 9.599,-4.14 20.9652,-8.09177 23.2737,-8.09177 1.8305,0 3.2334,-1.64376 5.0672,-5.9375 3.0223,-7.07603 5.9424,-10.32581 19.5629,-21.7713 5.6719,-4.76623 11.1146,-10.21678 12.0949,-12.11235 0.9802,-1.89558 2.4202,-8.19565 3.2001,-14.00018 0.7798,-5.80452 2.2224,-13.70833 3.2059,-17.56403 0.9835,-3.8557 2.0356,-9.19945 2.3381,-11.875 0.3025,-2.67555 1.2254,-7.66954 2.0509,-11.09777 1.2674,-5.26285 1.1659,-7.5253 -0.652,-14.53415 -1.8576,-7.16218 -1.9585,-9.82262 -0.7353,-19.39187 3.5754,-27.971875 5.2329,-45.532125 5.058,-53.585412 -0.2233,-10.278848 -2.6693,-20.584828 -6.0177,-25.354948 -1.3129,-1.87026 -5.0724,-8.18174 -8.3545,-14.02549 -9.5712,-17.0415001 -29.6146,-39.387017 -40.136,-44.745997 -4.3077,-2.19412 -16.4767,-4.67081 -27.365,-5.56949 -2.3461,-0.19363 -3.75,-1.00516 -3.75,-2.16767 0,-3.69156 6.9498,-5.63354 20.915,-5.84424 7.3783,-0.11125 15.3578,0.39385 17.7322,1.1226 3.83,1.17546 5.2784,0.85455 12.835,-2.84392 4.6848,-2.29289 10.7678,-5.6779 13.5178,-7.52225 2.75,-1.84434 8.0937,-4.65463 11.875,-6.24508 3.7812,-1.59046 9.338,-4.61686 12.3484,-6.72534 5.7242,-4.00921 12.5451,-8.27496 17.369,-10.86252 3.0101,-1.61459 3.6299,-3.29446 4.5806,-12.41515 0.3265,-3.13174 0.883,-6.50674 1.2366,-7.5 0.3537,-0.99326 0.9159,-3.42181 1.2492,-5.39676 0.3334,-1.97497 1.4982,-4.57644 2.5883,-5.78107 1.0902,-1.20461 1.8921,-2.68248 1.782,-3.284163 -0.8798,-4.80816 2.3909,-7.67847 6.8151,-5.98076 1.7524,0.67247 1.9544,2.0723 1.3114,9.090843 -0.418,4.56278 -1.5921,11.784 -2.6093,16.04713 -1.0171,4.26315 -1.6686,9.30567 -1.4478,11.20559 0.3595,3.09316 1.1205,3.6055 7.2765,4.89894 3.7812,0.79449 7.8665,1.86177 9.0784,2.37176 1.2119,0.50998 2.9376,0.31793 3.8349,-0.42677 1.9564,-1.62368 26.353,-7.67177 30.9554,-7.67407 5.3168,-0.002 10.217,7.25158 5.1938,7.68878 -1.2032,0.10475 -2.84,0.25291 -3.6374,0.32932 -0.7974,0.0764 -2.4849,1.03608 -3.75,2.1326 -1.2651,1.09653 -4.1766,2.62344 -6.4701,3.39314 -6.2304,2.0909 -15.8823,9.6524 -18.9434,14.84058 -1.932,3.27437 -2.4896,5.7143 -1.9562,8.55808 0.4931,2.62835 -0.1083,5.97168 -1.7728,9.85472 -2.0671,4.82247 -3.0249,5.805 -5.3384,5.4765 -2.3229,-0.32984 -2.9394,-1.3907 -3.5016,-6.02533 -0.9362,-7.7176 -3.0938,-11.12734 -8.4598,-13.3694 -2.5112,-1.04926 -5.911,-2.96584 -7.5551,-4.25905 -2.237,-1.75967 -4.1618,-2.16379 -7.6497,-1.60605 -3.6178,0.57851 -4.8353,0.2897 -5.4418,-1.29082 -0.5815,-1.5154 -1.6674,-1.82268 -4.2463,-1.20157 -5.2586,1.26654 -15.3704,6.6053 -20.9649,11.06902 -2.75,2.19412 -7.0432,5.21347 -9.5405,6.70965 -2.4972,1.49618 -5.2373,4.40286 -6.0891,6.45927 -0.8518,2.05643 -2.3243,3.73895 -3.2721,3.73895 -2.8737,0 -1.9615,2.34204 2.9642,7.61043 5.1036,5.4586999 11.645,8.2873599 35.9503,15.5459069 18.626,5.5624901 26.1382,9.1543501 34.9331,16.7029101 7.9491,6.82266 10.9412,7.61221 16.9911,4.48365 4.9397,-2.55442 4.6522,-3.57647 -0.7591,-2.69835 -5.1917,0.8425 -8.0529,0.0147 -8.0529,-2.32951 0,-2.40313 2.4808,-3.58418 4.1089,-1.95613 2.1328,2.13285 3.166,1.70212 5.1583,-2.1505 1.0073,-1.94788 6.2248,-6.82812 11.5946,-10.8449801 16.0558,-12.010627 22.5552,-17.9780669 27.1965,-24.9705169 2.7782,-4.18551 5.7855,-7.11683 8.1454,-7.93946 4.7371,-1.65136 5.9858,0.0514 3.1791,4.33498 -3.6262,5.53433 -0.9743,4.75471 6.8329,-2.00874 14.9257,-12.93036 22.9215,-24.0482 24.4037,-33.93221 0.7726,-5.15172 0.5913,-5.81615 -1.7539,-6.42945 -2.2099,-0.57792 -2.6155,-1.64408 -2.6155,-6.87509 0,-5.11574 -0.7154,-7.09515 -4.1187,-11.39584 -4.7559,-6.01004 -19.8343,-19.543563 -27.1339,-24.353863 -2.7486,-1.81129 -7.1873,-4.7343 -9.8638,-6.49562 -8.4364,-5.55169 -20.5208,-17.73577 -19.7034,-19.8659 2.7345,-7.12604 34.5238,7.4395 50.7708,23.2627 3.0668,2.98682 6.723,6.00954 8.125,6.71716 1.4019,0.70762 3.2828,2.817 4.1797,4.687503 0.8969,1.87051 2.2411,3.40092 2.9872,3.40092 2.0007,0 4.6717,3.9829 4.7173,7.03445 0.022,1.46269 0.8186,3.3058 1.7705,4.0958 0.9518,0.78999 3.5974,5.07585 5.8789,9.52412 3.2324,6.30222 3.8162,8.41982 2.6443,9.5917 -1.1697,1.16973 -1.8373,1.17059 -3.0039,0.004 -0.825,-0.825 -2.5125,-1.5 -3.75,-1.5 -1.6667,0 -2.25,0.97223 -2.25,3.75 0,2.91667 0.5555,3.75 2.5,3.75 2.5339,0 2.8495,0.65168 3.0263,6.25 0.071,2.25123 0.8851,3.23669 2.9112,3.52444 3.9289,0.558 3.5421,2.51944 -2.0789,10.54369 -2.6902,3.84041 -4.6073,7.26655 -4.2602,7.61362 1.8258,1.82584 23.9264,-11.46682 24.0983,-14.49425 0.029,-0.51562 -2.1279,-0.9375 -4.7937,-0.9375 -2.6829,0 -5.5107,-0.79981 -6.3336,-1.79137 -1.9946,-2.40335 1.0468,-4.20794 15.9597,-9.46949 15.90965,-5.61321 18.97843,-7.90262 22.52297,-16.80291 l 2.9271,-7.34993 -3.92655,-10.03135 c -2.15961,-5.51725 -5.02369,-10.799813 -6.36461,-11.739033 -1.34093,-0.93922 -2.47042,-2.3789 -2.51,-3.19929 -0.15022,-3.1142 -17.53061,-16.21724 -36.90021,-27.81895 -1.2714,-0.7615 -1.8248,-1.96044 -1.2982,-2.8125 2.3954,-3.87579 24.15736,0.42124 29.57093,5.83892 6.26018,6.26513 13.53931,11.42608 16.11536,11.42608 1.51523,0 2.58407,0.81204 2.58407,1.96324 0,2.58687 9.90701,14.28676 12.09748,14.28676 0.93836,0 2.35027,-1.41375 3.13756,-3.14168 1.33957,-2.94004 10.25274,-9.89852 18.580096,-14.50542 2.0103,-1.11215 4.42167,-2.65829 5.35859,-3.43586 4.65179,-3.86065 18.32627,-2.70029 18.32627,1.5551 0,0.8988 2.10938,2.6353 4.6875,3.85887 2.57813,1.22358 6.20243,2.95517 8.05401,3.84796 2.85218,1.37527 3.60683,1.33369 4.93954,-0.27212 3.47278,-4.18444 -4.33069,-11.98559 -14.63549,-14.63114 -5.33998,-1.37092 -6.17056,-2.00762 -6.17056,-4.73021 0,-1.73032 -0.76066,-4.06601 -1.69036,-5.19042 -1.36545,-1.6514 -38.561936,-20.63038 -48.309636,-24.6493 -1.375,-0.5669 -5.875,-2.44582 -10,-4.17538 -7.08274,-2.9697 -28.25266,-9.95824 -40.62496,-13.41096 -3.0938,-0.86336 -6.1875,-1.97916 -6.875,-2.47955 -0.6875,-0.50039 -4.3438,-1.77212 -8.125,-2.82608 -18.1598,-5.06171 -27.9366,-8.45153 -36.6993,-12.72439 -8.8139,-4.29784 -11.3025,-6.85924 -8.4044,-8.65033 1.4329,-0.88563 16.085,2.66706 38.8537,9.4209 10.6406,3.15633 15.2559,3.88408 16.533,2.60698 0.766,-0.76604 2.1091,-0.85462 3.3149,-0.21863 2.8862,1.52231 5.9883,2.60782 14.5271,5.08344 4.125,1.19595 10.59371,3.41897 14.37496,4.94004 3.78125,1.52107 9.125,3.44949 11.875,4.28539 12.2193,3.71418 28.99825,11.62649 42.499996,20.04135 4.8125,2.99936 11.68034,7.17739 15.26185,9.28451 3.58153,2.10713 10.54755,6.62001 15.48006,10.02862 l 8.96822,6.19748 6.39493,-3.64152 c 11.38849,-6.48505 13.90044,-17.30947 5.63153,-24.2673 -4.25338,-3.57898 -3.80586,-3.46424 -14.56772,-3.73501 -6.33088,-0.15928 -8.36635,-0.74109 -10.625,-3.03699 l -2.79387,-2.83995 3.50663,-2.83378 c 3.97194,-3.2098 3.79206,-3.49306 -5.38163,-8.47457 -6.74261,-3.66138 -16.86676,-7.58063 -26.25,-10.16188 -3.781246,-1.04019 -11.656246,-3.3211 -17.499996,-5.06869 -5.84375,-1.74758 -13.15625,-3.52126 -16.25,-3.9415 -3.09375,-0.42024 -9.28125,-1.53341 -13.75,-2.47372 -8.02657,-1.68893 -23.36316,-3.76319 -56.24996,-7.60779 -9.2813,-1.08501 -20.7087,-2.77234 -25.3943,-3.74961 -4.6855,-0.97727 -10.1775,-1.77686 -12.2044,-1.77686 -2.0269,0 -4.662,-0.54836 -5.8558,-1.21859 -11.7698,-6.60782 -24.4812,-8.9925 -32.6866,-6.13208 l -4.0141,1.39934 2.8901,3.09443 c 3.9427,4.22146 8.0038,6.11787 15.3901,7.18657 6.7163,0.97178 9.375,2.45117 9.375,5.21676 0,2.72431 -7.631,6.69374 -12.8783,6.6989 -6.5051,0.006 -21.3088,-3.47798 -24.1614,-5.68688 -2.216,-1.71607 -2.2236,-1.89531 -0.1478,-3.50875 2.7524,-2.13945 2.7923,-4.05013 0.106,-5.08097 -3.8103,-1.46213 -27.0173,1.8 -31.209,4.38694 -5.0164,3.09592 -7.8587,9.33003 -5.3327,11.69631 2.8726,2.69101 8.6232,3.58917 8.6232,1.34684 0,-3.03227 3.7108,-2.1855 13.7346,3.13407 5.1478,2.73191 10.2821,4.96711 11.4095,4.96711 1.1273,0 2.7716,0.86973 3.6538,1.93273 2.5248,3.04218 -2.2091,8.58746 -7.7391,9.06559 -6.2724,0.54231 -15.5017,-3.79498 -17.8858,-8.40546 -2.4663,-4.76923 -5.8928,-5.65245 -17.969,-4.63164 -7.8716,0.66539 -10.9017,1.61037 -17.5843,5.48385 -7.8698,4.56162 -10.3808,7.26145 -20.6282,22.17993 -2.3612,3.4375 -6.5296,8.67113 -9.263,11.63029 -4.3541,4.71361 -10.9597,14.85735 -19.7069,30.26202 -1.4318,2.5216 -4.6717,7.2937 -7.1998,10.60468 -2.5281,3.31096 -4.3132,6.3033 -3.9669,6.64963 0.9637,0.96365 5.3639,-3.42112 10.411,-10.37425 2.5041,-3.44981 5.1926,-6.83487 5.9745,-7.52237 2.6213,-2.305 12.487,-17.45223 14.2476,-21.875 3.1378,-7.88284 7.5759,-13.43776 15.1398,-18.94974 8.6989,-6.33911 13.5485,-8.32415 20.6566,-8.45516 4.6002,-0.0848 8.9815,2.22224 7.3393,3.86452 -0.3326,0.33252 0.9679,0.3738 2.8898,0.0917 4.0642,-0.59649 8.461,1.91735 22.7303,12.99585 5.4351,4.2197 11.8787,8.9062 14.3191,10.41445 4.3661,2.69838 5.9141,6.83769 2.9292,7.83264 -1.6867,0.56225 -18.1042,-4.01789 -20.9412,-5.84219 -2.4556,-1.57905 -12.2119,-0.87731 -17.2875,1.24344 -2.2619,0.94508 -6.5388,3.70646 -9.5042,6.1364 -5.4103,4.43326 -12.1681,5.94481 -13.9182,3.1131 -1.0377,-1.67899 2.0186,-6.30462 8.3467,-12.63277 5.2579,-5.25793 5.5527,-7.37043 0.7212,-5.16905 -5.3557,2.44022 -10.8053,7.98967 -16.6825,16.98816 -7.7124,11.80828 -12.7833,17.11864 -16.3467,17.11864 -3.4211,0 -3.506,-0.69178 -0.863,-7.03485 l 2.0168,-4.84015 -2.6214,2.36276 c -1.4417,1.29953 -4.3947,5.51828 -6.5621,9.375 -5.5072,9.79975 -14.2575,18.54681 -22.35,22.341873 -6.9199,3.2451 -8.5492,4.5786 -24.169,19.78052 -6.3533,6.18328 -8.3789,8.94675 -7.9001,10.77775 0.7305,2.79356 -6.6502,15.22816 -9.7435,16.41516 -1.0656,0.40891 -1.9374,1.64705 -1.9374,2.75141 0,1.10437 -7.0274,9.11728 -15.6163,17.80648 -15.9648,16.15111 -16.7989,17.46586 -19.3857,30.55474986 -0.779,3.94113704 -1.9197,7.47684704 -2.535,7.85713704 -0.6393,0.3951 -0.542,1.95721 0.2269,3.6447701 1.7528,3.84708 -3.2948,40.64838 -6.4406,46.95739 -7.1436,14.326563 -11.5248,24.15355 -14.2111,31.875 -1.6742,4.8125 -4.7303,13.53125 -6.7913,19.375 -11.6503,33.03414 -18.9903,58.10812 -19.0268,64.99736 -0.016,3.0952 -0.651,7.87764 -1.4102,10.62764 -1.8287,6.62372 -1.6665,11.17172 0.7408,20.77068 1.1011,4.39048 2.0815,10.09829 2.1788,12.68403 0.097,2.58573 0.888,5.29168 1.7574,6.01321 0.9887,0.8205 1.3244,2.89149 0.8964,5.52897 -0.4669,2.87753 0.1576,5.95625 1.9662,9.69225 1.4577,3.01135 2.6505,6.10302 2.6505,6.8704 0,0.76737 1.7363,2.63163 3.8586,4.14281 3.473,2.47302 3.7741,3.19977 3.0131,7.27262 -0.465,2.48877 -1.3807,5.17297 -2.0349,5.96489 -2.0973,2.53897 -7.3574,3.10802 -11.166,1.20799 -3.7723,-1.88184 -5.4386,-1.0766 -4.2394,2.04861 0.3856,1.00483 -1.3417,4.22319 -3.9182,7.3003 l -4.6078,5.50324 5.6977,0.37693 c 6.6163,0.43768 9.0129,2.62353 7.8698,7.17786 -0.6009,2.39407 -1.3862,3.02816 -3.0834,2.4895 -1.2525,-0.39753 -3.6244,-0.2241 -5.2709,0.38537 -2.9241,1.0824 -2.8993,1.12887 1.0689,2.00105 5.4359,1.19479 5.3339,4.7046 -0.2368,8.14745 -2.8695,1.77348 -5.9696,2.55849 -9.3224,2.36067 -3.4003,-0.20064 -5.8231,0.42745 -7.4988,1.94396 -2.8587,2.58708 -5.2463,12.28172 -4.2618,17.30471 0.401,2.04618 0.1266,3.4375 -0.678,3.4375 -2.2762,0 -4.0109,4.58975 -2.8851,7.63324 1.0037,2.7133 1.0952,2.66975 2.4291,-1.1569 1.4441,-4.14249 3.7062,-5.03643 6.2663,-2.47634 2.0436,2.04361 1.7954,13.01354 -0.4326,19.125 -1.0026,2.75 -2.1025,10.0625 -2.4443,16.25 -0.8569,15.51483 -4.5692,36.00125 -7.616,42.02902 -0.9116,1.80345 -1.3657,3.57079 -1.0091,3.92739 0.9626,0.96254 -2.9249,9.66859 -4.3172,9.66859 -0.6583,0 -0.9217,1.05215 -0.5854,2.33811 0.6896,2.63687 -0.1899,5.98257 -5.7925,22.03689 -2.1594,6.1875 -5.0234,12.7741 -6.3645,14.63689 -1.3412,1.86279 -2.4384,4.50146 -2.4384,5.86372 0,1.36226 -0.4968,2.78386 -1.104,3.1591 -0.6071,0.37524 -1.4902,3.77456 -1.9624,7.55406 -0.4723,3.7795 -1.3168,7.15502 -1.8769,7.50115 -0.9075,0.56084 -2.5683,8.19642 -3.2703,15.03508 -0.4144,4.03746 -3.9068,15.79839 -6.4957,21.875 -1.3181,3.09375 -2.8013,7.26811 -3.2961,9.27635 -0.4948,2.00824 -1.9813,5.02646 -3.3033,6.70715 -3.2348,4.11239 -4.8644,10.07631 -6.2208,22.7665 -0.6246,5.84375 -2.0416,14.5625 -3.149,19.375 -1.1073,4.8125 -2.42,11.5625 -2.9171,15 -0.4971,3.4375 -1.4998,7.375 -2.2281,8.75 -0.7283,1.375 -1.6876,4.46875 -2.1316,6.875 -0.4441,2.40625 -2.72,8.875 -5.0576,14.375 -2.3376,5.5 -4.9325,13.375 -5.7663,17.5 -0.8339,4.125 -2.2807,10.875 -3.2151,15 -0.9345,4.125 -1.9309,8.90625 -2.2143,10.625 -0.2834,1.71875 -1.401,6.78125 -2.4836,11.25 -1.0826,4.46875 -2.5134,10.9375 -3.1795,14.375 -0.6661,3.4375 -1.8533,8.78125 -2.6382,11.875 -0.7849,3.09375 -1.6436,8.4375 -1.9082,11.875 -0.2646,3.4375 -0.8426,9.14474 -1.2844,12.68275 -0.9211,7.37746 0.2783,14.54197 2.3206,13.86121 0.7647,-0.2549 2.3596,-4.30407 3.5442,-8.99816 2.32,-9.19268 4.3686,-11.67414 7.2553,-8.78834 1.5126,1.51218 1.5642,3.50778 0.33,12.7776 -0.8045,6.04205 -2.6689,15.4809 -4.1432,20.97524 -2.9888,11.13816 -4.3468,17.02502 -6.0534,26.2397 -1.2753,6.88645 -2.4045,11.64412 -6.0696,25.5729 -1.3492,5.12759 -2.2135,9.94742 -1.9206,10.71075 0.2929,0.76331 -1.394,7.81801 -3.7487,15.6771 -6.8032,22.70621 -16.0203,59.04009 -19.6385,77.41425 -0.7445,3.78125 -2.1109,9.14956 -3.0363,11.92959 -1.6854,5.063 -2.4756,9.84231 -7.018,42.44541 -1.341,9.625 -2.9209,20.3125 -3.511,23.75 -2.4667,14.37179 -3.7437,27.31959 -4.4379,44.99999 -0.4049,10.3125 -1.0312,21 -1.3918,23.75 -1.2853,9.8028 -1.4339,53.8806 -0.2065,61.25 0.687,4.125 1.172,8.9932 1.0777,10.8182 -0.3392,6.5664 7.3255,42.0319 9.8186,45.4318 1.4648,1.9976 5.0316,17.6291 5.0316,22.0513 0,2.2439 1.0623,5.1839 2.3914,6.618 6.1214,6.6057 10.0876,18.2057 6.2248,18.2057 -0.6139,0 -1.1162,0.5625 -1.1162,1.25 0,0.6875 1.112,1.25 2.4711,1.25 1.3592,0 3.3926,1.4062 4.5188,3.125 1.1262,1.7187 2.4751,3.125 2.9976,3.125 1.8184,0 2.404,-7.3584 1.1613,-14.593 -0.688,-4.0052 -1.478,-9.2728 -1.7556,-11.7059 -0.2775,-2.4331 -1.0645,-5.8963 -1.7487,-7.6959 -0.6842,-1.7996 -1.6255,-6.6442 -2.0918,-10.7657 -0.7747,-6.8474 -0.6155,-7.618 1.8469,-8.9358 1.4821,-0.7932 3.6579,-1.12 4.8351,-0.726 2.2851,0.7646 10.2653,16.1344 10.2653,19.7709 0,1.1964 2.5312,6.8566 5.625,12.5785 3.0937,5.7219 5.625,11.8959 5.625,13.7201 0,4.2244 2.1967,13.4581 5.1096,21.4778 2.6143,7.1973 5.1757,16.4263 5.5158,19.8741 0.2503,2.5367 3.837,5.7509 6.4176,5.7509 1.9641,0 5.457,-4.8743 5.457,-7.6153 0,-1.9395 2.7776,-10.9757 6.5763,-21.394 1.9829,-5.4382 5.5677,-9.7407 8.1159,-9.7407 4.1879,0 12.8078,12.7837 12.8078,18.9947 0,1.3418 -1.3877,6.5731 -3.0837,11.6255 -2.6309,7.8373 -3.1069,11.6936 -3.242,26.2653 -0.1453,15.6612 0.056,17.3073 2.4237,19.8277 2.0533,2.1856 2.4236,3.7253 1.8082,7.5178 -0.4968,3.0613 -0.251,5.0923 0.6863,5.6717 1.0887,0.6728 1.1333,3.106 0.1753,9.5624 -2.3826,16.0569 -2.7612,26.1112 -1.3603,36.1231 1.888,13.4939 3.955,15.2293 3.7275,3.1296 -0.097,-5.1386 0.4385,-11.8741 1.1891,-14.9678 0.7506,-3.0938 1.3818,-9 1.4027,-13.125 0.077,-15.2292 6.4579,-49.0005 11.2562,-59.5745 1.3541,-2.984 2.4744,-6.7875 2.4895,-8.4522 0.015,-1.6646 0.7742,-3.9146 1.6868,-5 2.1041,-2.5022 4.9362,-12.278 3.9972,-13.7972 -0.39,-0.6311 0.1878,-1.6494 1.284,-2.2629 2.0341,-1.1384 4.0789,-4.205 7.305,-10.9559 0.9969,-2.0858 5.4945,-7.5663 9.9948,-12.1787 7.1762,-7.3549 8.5124,-9.5019 10.8654,-17.4575 2.5725,-8.6976 8.3276,-20.698 11.8635,-24.7375 0.9227,-1.054 3.7563,-6.1165 6.2971,-11.25 2.5407,-5.1335 6.4271,-10.8601 8.6363,-12.7259 2.2092,-1.8657 4.3441,-5.0291 4.7442,-7.0296 0.7703,-3.8514 3.9787,-5.9673 6.3241,-4.1708 0.7722,0.5915 3.7371,0.8289 6.5887,0.5275 4.987,-0.5271 5.2847,-0.8097 7.8125,-7.4152 1.4453,-3.7769 2.6279,-7.439 2.6279,-8.1379 0,-0.699 1.4062,-2.9421 3.125,-4.9847 1.7187,-2.0427 3.125,-5.001 3.125,-6.5744 0,-5.2669 7.1309,-11.8286 9.2059,-8.4711 0.3319,0.537 -0.2148,4.8797 -1.2148,9.6506 -2.381,11.3586 -1.7269,13.9261 1.8165,7.131 3.0792,-5.905 7.643,-22.6309 7.6732,-28.1218 0.025,-4.5097 4.8383,-19.7474 6.948,-21.9947 0.9108,-0.9702 2.5682,-1.3723 3.7643,-0.9135 1.9067,0.7318 2.074,2.5624 1.553,16.9924 -0.3212,8.8947 -0.2095,15.9408 0.2482,15.658 0.4578,-0.2829 1.5417,-3.7745 2.4086,-7.759 0.867,-3.9845 3.799,-16.2445 6.5156,-27.2445 2.8448,-11.5194 5.4967,-26.0955 6.254,-34.375 0.7232,-7.9062 1.7446,-15.2187 2.2699,-16.25 0.5253,-1.0312 2.2944,-1.875 3.9315,-1.875 3.6345,0 4.5154,3.2161 4.7282,17.2619 0.1573,10.385 -3.8727,30.833 -8.5428,43.3455 -1.4076,3.7715 -2.5593,7.7346 -2.5593,8.807 0,1.95 -10.3593,22.9501 -12.7755,25.8981 -2.1518,2.6253 -3.7947,1.7583 -2.9612,-1.5625 0.4371,-1.7419 0.2418,-3.125 -0.4413,-3.125 -0.6741,0 -1.8328,2.3906 -2.5749,5.3125 -2.3276,9.1651 -12.6181,29.8752 -19.4036,39.0506 -7.2887,9.8557 -8.8967,11.419 -12.4178,12.0722 -1.6688,0.3095 -3.2619,2.6667 -5,7.3978 -1.4029,3.819 -3.7523,8.8781 -5.221,11.2427 -1.4686,2.3645 -4.467,7.9554 -6.6632,12.4242 -4.3315,8.8136 -5.6249,11.3328 -7.541,14.6875 -0.6872,1.2031 -1.7871,3.705 -2.4442,5.5596 -2.3184,6.5435 -12.4769,9.5514 -12.6013,3.7311 -0.098,-4.5834 -11.563,12.6978 -16.9804,25.5945 -1.4897,3.5463 -3.0932,9.2453 -3.5635,12.6644 -1.5717,11.4275 -6.4406,28.0251 -8.5709,29.2174 -3.2715,1.8307 -7.523,-1.0404 -6.477,-4.374 0.7407,-2.3608 2.5837,-10.7739 6.6767,-30.4792 1.2923,-6.2212 -0.2406,-5.8838 -3.0503,0.6717 -9.1056,21.2442 -17.6964,47.7238 -19.7424,60.852 -0.4285,2.75 -1.6001,14.5428 -2.6036,26.2063 -1.7975,20.8938 -1.7868,21.2463 0.7245,23.9194 2.0765,2.2104 2.3814,3.6083 1.6451,7.5436 -1.0221,5.4632 -3.089,7.4372 -8.9507,8.5487 -2.4729,0.4688 -4.0625,1.517 -4.0625,2.6785 0,3.1283 6.2368,12.8058 8.7713,13.6102 2.3695,0.7521 2.9181,1.8719 4.2972,8.7713 0.624,3.122 0.014,4.5871 -3.5128,8.4375 -2.3474,2.5627 -4.9554,4.6595 -5.7956,4.6595 -0.9885,0 -1.1877,0.772 -0.5643,2.1875 0.5298,1.2031 1.0118,3.875 1.0712,5.9375 0.09,3.1292 0.8321,3.997 4.483,5.242 6.1777,2.1066 18.4055,1.9717 26.0116,-0.287 4.6444,-1.3793 13.7136,-2.0345 32.1989,-2.3263 l 25.7334,-0.4062 1.0775,2.8338 c 3.0106,7.9185 29.5608,5.1003 50.3302,-5.3425 6.3378,-3.1866 12.3671,-6.4258 13.3984,-7.1982 3.4148,-2.5579 45.4506,-21.546 55.4077,-25.0285 11.1053,-3.8841 13.4939,-3.2636 10.9625,2.8476 -1.5388,3.715 -7.2838,7.6695 -23.2452,16.0008 -4.8125,2.5118 -9.7344,5.4356 -10.9375,6.497 -2.5337,2.2353 -2.9067,6.4317 -0.625,7.032 4.3059,1.1327 18.9755,6.0392 28.2748,9.4571 23.9275,8.7942 102.6815,27.7695 130.1627,31.3619 13.3137,1.7402 27.8771,4.8618 45.8621,9.8303 14.2222,3.929 39.6841,7.6794 67.88786,9.9997 14.58254,1.1996 20.59849,1.553 54.999996,3.2308 22.81801,1.113 31.83734,2.1197 33.125,3.6973 1.83089,2.2431 8.13786,3.1239 11.47656,1.6027 3.14968,-1.4351 3.66348,-2.799 1.54715,-4.107 -0.7432,-0.4592 -1.01064,-2.1923 -0.59429,-3.8512 0.78378,-3.1228 0.48724,-3.3655 -5.78361,-4.7346 -3.62706,-0.7919 -5.85252,-5.1448 -3.7204,-7.2769 0.89833,-0.8984 2.44239,-0.3365 5.00816,1.8225 3.2456,2.731 13.39224,5.6937 14.7725,4.3135 2.71094,-2.711 -0.24326,-9.619 -3.30443,-7.7271 -0.73309,0.4531 -3.83389,-0.574 -6.89068,-2.2825 -3.0568,-1.7085 -7.68476,-3.7983 -10.28439,-4.644 -2.59961,-0.8458 -5.83611,-2.3014 -7.19221,-3.2349 -1.35609,-0.9334 -3.60609,-1.7065 -5,-1.718 -1.3939,-0.013 -6.55929,-2.402 -11.47862,-5.3125 -4.91935,-2.9104 -10.68498,-6.2499 -12.8125,-7.421 -2.23048,-1.2278 -3.86824,-3.14 -3.86824,-4.5164 0,-2.041 -1.19429,-2.4829 -8.24031,-3.0484 -4.53218,-0.3638 -8.89155,-1.313 -9.6875,-2.1093 -0.79595,-0.7964 -1.447186,-3.5288 -1.447186,-6.0722 0,-4.6075 -0.0228,-4.6273 -6.25,-5.4372 -12.66351,-1.647 -18.48744,-5.691 -22.53261,-15.6463 l -2.96258,-7.2908 -13.5024,-3.3412 c -7.42632,-1.8377 -15.00997,-3.6666 -16.85247,-4.0645 -7.344,-1.5852 -9.5558,-7.9172 -4.0303,-11.5377 2.9227,-1.915 4.3469,-1.9699 14.35451,-0.5535 20.86457,2.9531 29.43506,7.7955 27.93632,15.7845 -0.42037,2.2407 -0.13053,5.2584 0.64409,6.7057 1.20019,2.2427 2.55806,2.6317 9.18518,2.6317 4.27722,0 9.54426,0.5068 11.70453,1.1265 2.53248,0.7262 4.385046,0.6691 5.214986,-0.1608 0.88293,-0.883 2.28621,-0.2092 4.46811,2.145 1.98199,2.1386 3.92512,3.1468 5.15537,2.6746 1.34943,-0.5177 2.646,0.4649 4.09586,3.1043 1.16676,2.1241 4.02206,7.0397 6.3451,10.9236 2.32304,3.884 4.24491,7.7454 4.27084,8.581 0.0926,2.9848 7.92185,8.7456 18.03636,13.2711 10.89489,4.8748 36.76709,13.472 47.2190997,15.6908 9.45494,2.0071 30.8695203,5.1439 35.1170603,5.1439 2.06686,0 4.43294,0.675 5.25794,1.5 2.1906,2.1906 1.87151,9.4178 -0.47376,10.7303 -1.54633,0.8654 -0.80189,1.5328 3.4375,3.0815 13.33533,4.8722 26.79152,7.204 56.03626,9.7109 8.593754,0.7366 16.534654,1.6096 17.646444,1.9399 4.3744,1.2994 31.98031,5.5304 36.10603,5.5337 2.40762,0 10.28262,1.1339 17.5,2.5152 7.21739,1.3813 19.31003,3.0883 26.87253,3.7933 7.5625,0.705 16.12649,1.7468 19.03107,2.3149 2.90459,0.5683 9.65459,0.899 15,0.7351 25.0145,-0.767 31.0247,-0.7028 49.71893,0.5299 11,0.7255 23.25557,1.8659 27.2346,2.5343 15.31344,2.5723 37.23452,2.9971 47.7654,0.9256 5.5,-1.0819 14.21875,-2.5655 19.375,-3.297 10.747,-1.5246 35.57894,-5.8786 43.45544,-7.6195 2.93173,-0.648 10.66611,-1.1781 17.1875,-1.1781 13.30765,0 14.90563,-1.2822 6.23206,-5 -4.53773,-1.9452 -5.625,-3.0192 -5.625,-5.5568 0,-2.3437 0.8271,-3.3532 3.24471,-3.96 5.07505,-1.2737 17.53973,0.4784 22.91638,3.2214 6.23606,3.1814 10.17633,3.3732 19.46391,0.9476 4.125,-1.0772 11.71875,-2.583 16.875,-3.3459 5.15625,-0.763 14.15625,-2.8471 20,-4.6315 5.84375,-1.7843 16.25,-4.8272 23.125,-6.762 19.8395,-5.5833 46.78262,-15.2556 55.60875,-19.9631 11.201,-5.974 17.51625,-12.456 17.51625,-17.9789 0,-5.4252 -4.82738,-11.3738 -10.083,-12.425 -4.06088,-0.8121 -15.32325,2.1232 -18.667,4.8652 -3.91175,3.2077 -9.6215,5.3618 -16.48625,6.2195 -6.55788,0.8193 -7.35688,0.64 -10.31125,-2.3144 -6.05075,-6.0508 -2.2625,-19.3615 5.5575,-19.5264 1.03662,-0.021 4.5265,-1.446 7.75525,-3.1647 3.22862,-1.7188 6.59912,-3.1255 7.49,-3.126 2.88175,0 16.549,-7.0673 19.001,-9.8229 1.30962,-1.4719 2.91875,-2.6761 3.57562,-2.6761 1.79663,0 18.75213,-8.3639 32.25575,-15.9112 17.26613,-9.6501 28.3265,-21.6358 30.88063,-33.4638 2.64012,-12.2267 3.80712,-15.6583 8.38262,-24.6492 5.39075,-10.5927 5.426,-16.0341 0.1445,-22.3107 -1.78487,-2.1213 -3.24537,-4.8133 -3.24537,-5.9821 0,-1.9105 -4.06825,-8.0235 -13.24813,-19.9067 -7.555,-9.7801 -27.39637,-17.4675 -54.25187,-21.0196 -23.35813,-3.0895 -40.28275,-2.0864 -56.52313,3.3504 -8.6755,2.9042 -12.67225,3.019 -15.25337,0.4379 -1.74175,-1.7418 -1.75288,-2.3458 -0.1025,-5.5364 1.0185,-1.9699 2.93237,-3.9244 4.25275,-4.3435 1.3205,-0.419 3.06712,-1.5646 3.88125,-2.5458 1.21962,-1.4693 0.25237,-2.3972 -5.48738,-5.2641 -3.83225,-1.9141 -11.6195,-5.7986 -17.305,-8.6321 -5.6855,-2.8335 -14.27475,-6.3769 -19.08725,-7.8743 -4.8125,-1.4973 -10.4375,-3.3233 -12.5,-4.0578 -16.66642,-5.9354 -30.17843,-9.014 -48.125,-10.965 -5.15625,-0.5607 -13.3125,-1.6603 -18.125,-2.4437 -4.8125,-0.7835 -20.5625,-1.5556 -35,-1.7158 l -26.25,-0.2915 0.20257,-4.2304 c 0.23793,-4.969 2.54148,-7.4496 11.03748,-11.8861 8.7201,-4.5535 18.86359,-4.3343 45.91864,0.9926 12.31593,2.4249 30.1831,4.913 41.59131,5.7919 20.35582,1.5681 24.375,2.4737 24.375,5.4922 0,0.9335 0.81153,2.0086 1.80338,2.3893 2.11632,0.8121 8.96341,-0.9674 11.353,-2.9505 2.254,-1.8707 8.72625,1.5001 10.92012,5.6872 l 1.63988,3.1298 4.32925,-6.4914 c 3.39337,-5.0881 5.41025,-6.8045 9.32937,-7.9396 13.43988,-3.8925 22.39575,-12.0009 29.9635,-27.1278 6.336,-12.665 6.79513,-16.5199 2.4475,-20.5492 -3.26125,-3.0224 -3.3525,-3.3602 -1.3115,-4.8525 1.929,-1.4107 2.01225,-2.2098 0.6895,-6.6245 -1.05362,-3.5167 -2.36312,-5.236 -4.37212,-5.7402 -1.5775,-0.396 -5.01663,-2.7536 -7.6425,-5.2393 -8.5435,-8.0875 -19.74888,-15.2974 -28.60213,-18.4037 -8.87412,-3.1136 -9.94175,-3.3642 -27.73976,-6.5123 -15.06201,-2.6643 -31.55786,-9.5559 -31.55786,-13.1842 0,-0.5423 3.34414,-2.4869 7.43141,-4.3212 5.79975,-2.6027 7.59241,-4.068 8.16468,-6.6735 0.96637,-4.3998 -2.04478,-10.324 -9.56526,-18.8186 -6.63482,-7.4942 -7.51494,-11.3817 -3.25269,-14.3671 3.77851,-2.6466 7.03736,-2.4389 12.22186,0.7787 2.40625,1.4934 6.78976,4.0195 9.74114,5.6137 2.95137,1.5941 9.42012,6.9167 14.375,11.8281 9.00386,8.9247 21.67799,18.9661 34.63386,27.4396 3.78125,2.4731 9.30538,6.8738 12.27588,9.7796 2.9705,2.9057 8.67362,7.3985 12.67374,9.9837 9.00575,5.8208 15.57025,10.9895 22.75175,17.9144 3.04663,2.9378 7.482,7.135 9.85638,9.3273 6.52325,6.0227 15.765,15.7923 29.20012,30.8676 6.66788,7.482 19.30125,20.5186 28.074,28.9704 8.77275,8.4516 17.59463,17.7987 19.60425,20.7713 2.00963,2.9725 5.70375,7.9359 8.20913,11.0297 2.5055,3.0937 5.28012,7.0312 6.16587,8.75 2.63175,5.1065 25.87263,35.7745 31.55675,41.6413 2.89138,2.9844 9.162,9.8183 13.9345,15.1864 4.77263,5.3681 11.52263,11.67 15,14.0041 3.4775,2.334 9.13513,6.4967 12.57263,9.2502 6.4455,5.163 20.28837,12.3455 31.25,16.2143 11.3405,4.0025 20.27612,8.4914 21.08162,10.5907 3.49688,9.1127 -5.885,11.1142 -17.44237,3.7211 -8.5175,-5.4486 -10.00113,-5.7876 -9.49813,-2.1706 0.33013,2.375 -0.1885,2.8125 -3.33387,2.8125 -4.95388,0 -14.03025,-3.9919 -20.53338,-9.0307 -5.61725,-4.3525 -19.24975,-15.6296 -21.81362,-18.0447 -0.84675,-0.7978 -4.10438,-2.4299 -7.239,-3.627 -5.58188,-2.1318 -5.8225,-2.119 -11.67088,0.6202 -6.19712,2.9027 -10.71762,7.6048 -14.50725,15.0905 -1.21575,2.4017 -3.35037,5.6137 -4.7435,7.1379 -2.16012,2.3634 -2.421,3.8351 -1.77249,10 0.41824,3.9758 0.18949,12.4073 -0.50838,18.7366 l -1.26888,11.5079 5.9115,9.1171 c 3.25138,5.0144 9.02325,13.8984 12.8265,19.7422 3.80313,5.8437 10.32238,14.2812 14.48713,18.75 8.89837,9.5478 16.17987,18.4293 21.52125,26.25 7.46062,10.9236 39.32925,39.79 49.59088,44.9192 2.57312,1.2861 4.39449,3.4538 5.31962,6.3308 0.93938,2.9215 2.28987,4.5078 4.06525,4.7747 1.46212,0.2199 3.21912,1.4475 3.90437,2.7279 0.68525,1.2805 2.38113,2.6884 3.7685,3.1287 2.9635,0.9405 6.5855,8.7797 5.55575,12.0242 -0.54137,1.7058 0.36388,2.7035 3.72975,4.1098 7.867,3.287 4.55425,8.8213 -3.39037,5.6637 -10.50463,-4.1753 -30.45525,-13.2529 -44.04,-20.0383 -18.50488,-9.2431 -25.07438,-11.1774 -53.125,-15.6415 -13.96625,-2.2226 -49.79663,-4.5746 -52.5,-3.4461 -1.03125,0.4305 -15.9375,1.1996 -33.125,1.7091 -24.76463,0.7343 -32.49325,1.3761 -37.2405,3.0928 -3.29488,1.1913 -7.38725,1.8991 -9.09425,1.5728 -1.70688,-0.3262 -5.76113,-0.081 -9.00938,0.5447 -3.24825,0.6257 -10.96837,1.65 -17.15587,2.276 -6.1875,0.626 -14.0625,1.7623 -17.5,2.5251 -3.4375,0.7629 -9.34375,1.8846 -13.125,2.4927 -9.34825,1.5038 -32.313,6.6279 -43.78504,9.77 -14.09395,3.8602 -26.4232,6.0922 -43.08996,7.8005 -8.25,0.8458 -16.09096,2.0928 -17.42438,2.7712 -9.91593,5.0451 -79.25851,7.7562 -144.45062,5.6477 z M 22.718576,1510.7337 c 2.66285,-1.4251 2.26161,-3.7286 -0.64949,-3.7286 -0.94156,0 -2.66663,-0.9548 -3.8335,-2.1215 -1.1782,-1.1783 -4.22548,-2.1809 -6.85318,-2.2548 -2.6024003,-0.074 -5.4847503,-0.7185 -6.4052303,-1.4339 -3.51307,-2.7301 -4.65780999,-2.9021 -6.57282,-0.9871 -2.92443,2.9245 -2.5694,5.9041 0.58421,4.9033 3.03827,-0.9644 6.19001,1.2978 6.19001,4.4428 0,1.2335 0.70313,2.4887 1.5625,2.7893 2.60248,0.91 13.2792603,-0.1655 15.9775003,-1.6095 z m -43.70942,-10.5805 c -0.0615,-1.4659 -7.58058,-2.0545 -7.58058,-0.5935 0,1.1226 3.476,2.2811 6.00352,2.0009 0.89569,-0.099 1.60537,-0.7327 1.57706,-1.4074 z m 8.43505,-6.82 c 0.3125,-0.9375 -0.15625,-1.4063 -1.09375,-1.0938 -0.90234,0.3008 -1.88672,1.2852 -2.1875,2.1875 -0.3125,0.9375 0.15625,1.4063 1.09375,1.0938 0.90233,-0.3008 1.88671,-1.2851 2.1875,-2.1875 z m 4.6093697,-5.0781 c -0.4249,-0.6875 -2.1455997,-1.25 -3.8237797,-1.25 -1.67817,0 -3.05122,0.5625 -3.05122,1.25 0,0.6875 1.7207,1.25 3.82378,1.25 2.2308697,0 3.5019497,-0.5208 3.0512197,-1.25 z M -448.01241,1453.1483 c -0.4025,-0.6512 -1.2646,-0.8547 -1.9158,-0.4522 -0.6512,0.4025 -0.8547,1.2645 -0.4522,1.9157 0.4024,0.6513 1.2645,0.8548 1.9157,0.4523 0.6513,-0.4025 0.8548,-1.2645 0.4523,-1.9158 z m -65.559,-281.2907 c 0,-0.6875 -0.5625,-0.9024 -1.25,-0.4775 -0.6875,0.4248 -1.25,1.335 -1.25,2.0225 0,0.6875 0.5625,0.9023 1.25,0.4775 0.6875,-0.4249 1.25,-1.335 1.25,-2.0225 z m 136.25,-393.05131 c 0,-0.99067 -0.5023,-1.80122 -1.1163,-1.80122 -1.3797,0 -2.7237,3.24334 -1.7482,4.21881 1.0941,1.09415 2.8645,-0.4 2.8645,-2.41759 z m 1.9827,-48.98872 c 1.9412,-2.57813 4.5874,-5.45621 5.8803,-6.39575 3.759,-2.73155 6.8474,-11.57776 7.701,-22.058 0.4351,-5.34271 1.9674,-13.99346 3.4052,-19.22389 1.4377,-5.23042 2.7238,-13.55465 2.8579,-18.49826 0.1341,-4.94362 0.8918,-9.76916 1.6837,-10.72342 0.792,-0.95427 1.6932,-6.75453 2.0028,-12.88948 0.3096,-6.13496 1.2115,-12.84066 2.0042,-14.90159 3.5903,-9.3333 6.5706,-31.79924 7.0471,-53.12211 0.5791,-25.90784 0.8876,-27.92158 4.1215,-26.89518 1.2943,0.41078 2.715,0.16149 3.1572,-0.55397 0.4545,-0.7355 -0.2826,-1.30085 -1.6961,-1.30085 -1.375,0 -2.8198,-0.51753 -3.2107,-1.15005 -0.391,-0.63252 0.1,-6.96065 1.0899,-14.0625 1.3037,-9.34894 1.6628,-21.19169 1.3011,-42.91245 -0.2747,-16.5 -0.072,-35.90625 0.451,-43.125 0.9225,-12.73989 -0.2954,-26.39995 -3.3435,-37.5 -0.6608,-2.40625 -1.5577,-8.59375 -1.9931,-13.75 -0.4354,-5.15625 -1.1108,-11.0625 -1.5008,-13.125 -0.39,-2.0625 -0.832,-7.26128 -0.9822,-11.55283 -0.4905,-14.01127 -2.4564,-12.29133 -13.1962,11.54537 -4.9163,10.91164 -9.4543,30.20794 -8.241,35.04205 0.3904,1.55565 -0.064,4.71552 -1.0103,7.02194 -1.467,3.57605 -4.344,21.42135 -4.4044,27.31847 -0.01,1.03125 -0.908,6.9375 -1.9943,13.125 -2.5129,14.31313 -4.3977,31.62783 -4.4904,41.25 -0.1595,16.55058 -0.1725,23.92433 -0.049,27.5 0.072,2.0625 -0.3859,10.78125 -1.0164,19.375 -2.0838,28.4065 -3.8551,74.30198 -3.0391,78.75 0.4414,2.40625 1.0073,19.28125 1.2576,37.5 0.2502,18.21875 0.5838,33.96875 0.7412,35 0.1573,1.03125 -0.1793,8.72291 -0.748,17.0926 -1.3239,19.48297 -0.2395,21.79019 6.2135,13.2199 z m 43.6464,-62.80577 c -1.0828,-1.75209 -5.6291,-4.05152 -5.6291,-2.84712 0,0.78689 2.9564,2.7231 6.0113,3.93692 0.2124,0.0844 0.041,-0.406 -0.3822,-1.0898 z m 30.6209,-5.00673 c 0,-0.6875 -0.5625,-1.25 -1.25,-1.25 -0.6875,0 -1.25,0.5625 -1.25,1.25 0,0.6875 0.5625,1.25 1.25,1.25 0.6875,0 1.25,-0.5625 1.25,-1.25 z m -291.25,-214.30122 c 0,-0.30318 -0.5625,-0.89888 -1.25,-1.32378 -0.6875,-0.4249 -1.25,-0.17685 -1.25,0.55122 0,0.72808 0.5625,1.32378 1.25,1.32378 0.6875,0 1.25,-0.24805 1.25,-0.55122 z m 291.25,-177.792 c 12.5209,-2.81144 12.4856,-2.75619 4.2807,-6.69418 -12.1574,-5.83498 -14.7021,-10.6156 -7.4173,-13.93476 2.8209,-1.28527 3.6224,-1.0348 7.0349,2.19831 2.1182,2.00686 5.4897,6.01045 7.4922,8.89685 l 3.6408,5.24799 5.9219,-1.87008 c 5.6283,-1.7774 20.2921,-5.91269 35.2968,-9.95391 6.1364,-1.65274 12.323,-6.14063 10.7009,-7.76272 -0.3363,-0.33636 -2.4598,0.26526 -4.7187,1.33691 -4.1475,1.9676 -16.5761,5.72273 -30.3572,9.17207 -4.125,1.03246 -8.0344,2.40135 -8.6875,3.04196 -2.6049,2.55507 -6.4876,0.95559 -11.5856,-4.77272 -5.929,-6.66195 -6.4256,-8.39991 -2.9341,-10.26853 3.1253,-1.67261 10.0822,-1.67588 10.0822,-0.005 0,0.70909 0.8549,1.61728 1.8997,2.01823 2.6742,1.0262 25.2891,-6.45525 38.9805,-12.89553 6.3279,-2.97656 11.9962,-5.41192 12.5963,-5.41192 1.7331,0 19.1815,-13.74596 22.5894,-17.79603 6.6577,-7.91217 12.373,-13.17825 19.6522,-18.1074 7.2578,-4.91443 15.5319,-13.02273 15.5319,-15.22043 0,-0.57042 1.7023,-2.94147 3.783,-5.269 5.9926,-6.70379 13.71699,-18.66982 13.71699,-21.24933 0,-1.29666 0.49765,-2.35756 1.10589,-2.35756 0.60823,0 2.9672,-4.23538 5.24214,-9.41196 3.12512,-7.11117 4.86334,-9.59445 7.11063,-10.15848 5.23288,-1.31337 5.77698,1.14086 2.1594,9.74025 -1.84061,4.37535 -3.64487,9.36144 -4.00947,11.08019 -1.12595,5.30796 10.88531,-7.43434 17.44964,-18.51165 9.30786,-15.70704 10.95465,-19.4677 14.16103,-32.338475 1.68187,-6.751175 4.97004,-16.212375 7.30704,-21.024875 4.846406,-9.979988 6.573756,-18.125 3.843886,-18.125 -4.310676,0 -3.193556,-6.49574 1.48359,-8.6268 5.84196,-2.66178 15.59132,-11.9105 26.72406,-25.35178 6.095,-7.35887 12.77811,-14.63391 14.85137,-16.1667301 3.90383,-2.88623 7.13968,-10.01842704 5.64359,-12.439147 -0.47023,-0.76084 -2.05709,-1.03673 -3.52638,-0.6131 -1.46928,0.42362 -9.70267,1.00671 -18.29642,1.29576 -8.59375,0.28905 -19.79058,1.12681 -24.88184,1.86170996 C -112.43335,1.6633829 -129.82142,7.6411099 -129.82142,10.67857 c 0,0.48729 6.32813,0.69045 14.0625,0.45147 7.87928,-0.24345 16.722286,0.1948 20.111656,0.99673 4.70559,1.11334 6.69973,1.08305 8.97818,-0.13633 3.45647,-1.84986 7.09606,-0.83717 6.12125,1.70317 -1.24474,3.24372 -11.89325,6.14583 -34.898586,9.51116 -4.8125,0.704 -13.34309,2.52064 -18.95685,4.03699 -9.27676,2.50576 -10.25194,3.06415 -10.70157,6.12773 -0.74509,5.07663 1.02583,8.4642 4.91681,9.40524 3.45942,0.83668 10.218,7.35786 10.31581,9.95348 0.0622,1.6508 -8.2457,1.33838 -16.65189,-0.62618 -4.60628,-1.07651 -6.50577,-1.0651 -7.8459,0.0471 -1.4718,1.2215 -1.134,1.85321 2.01517,3.76835 2.08088,1.26545 3.78342,2.8716 3.78342,3.5692 0,2.13241 -3.23105,1.41366 -5.64727,-1.25624 -1.55722,-1.72066 -3.60242,-2.43586 -6.42262,-2.24594 -3.0129,0.20291 -5.0783,-0.61864 -7.5965,-3.02154 -1.9022,-1.81512 -6.2711,-4.61665 -9.7086,-6.2256 -3.4375,-1.60896 -7.8519,-3.99517 -9.8097,-5.3027 -3.5179,-2.34935 -3.709,-2.34308 -16.25,0.53224 -6.9797,1.60025 -16.6278,3.61486 -21.4403,4.47691 -8.4541,1.51437 -14.7784,3.52908 -20,6.37138 -1.375,0.74846 -4.6465,2.05324 -7.27,2.89951 -2.6235,0.84628 -6.8423,3.57841 -9.375,6.071402 -9.8261,9.67185 -23.0628,24.7958 -25.3541,28.96895 -1.3211,2.40625 -2.9375,5.21875 -3.5919,6.25 -13.876,21.867798 -20.7192,36.204458 -23.8646,49.996748 -1.0169,4.45905 -2.7488,7.97559 -4.9326,10.01561 -5.432,5.07422 -7.7329,11.09347 -15.5247,40.61264 -6.1287,23.21886 -11.0388,38.62277 -13.1142,41.14209 -0.6153,0.74685 -1.3109,4.43376 -1.5458,8.19313 -0.3755,6.00993 -0.126,6.89594 2.0666,7.33813 1.3715,0.2766 4.8479,2.12263 7.7252,4.10227 2.8774,1.97967 5.5748,3.59938 5.9944,3.59938 1.221,0 8.7377,5.50889 9.2839,6.80398 0.2734,0.64843 1.8076,2.48942 3.4092,4.09107 2.8338,2.83376 3.039,2.85728 7.6279,0.8741 2.5936,-1.12089 8.3719,-2.85896 12.8407,-3.86237 z m -247.5,-120.40678 c 0,-0.6875 -0.5625,-1.25 -1.25,-1.25 -0.6875,0 -1.25,0.5625 -1.25,1.25 0,0.6875 0.5625,1.25 1.25,1.25 0.6875,0 1.25,-0.5625 1.25,-1.25 z m 214.9808,-16.5625 c -0.015,-2.19589 -0.2709,-2.4145 -1.1675,-0.99719 -0.6316,0.99843 -0.871,2.26405 -0.5321,2.8125 1.0843,1.75429 1.7193,1.07598 1.6996,-1.81531 z m -9.9808,-110.9375 c -0.7359,-1.375 -1.6192,-2.5 -1.963,-2.5 -0.3437,0 -0.023,1.125 0.713,2.5 0.7359,1.375 1.6192,2.5 1.963,2.5 0.3437,0 0.023,-1.125 -0.713,-2.5 z m 309.668886,-42.410247 c 23.66564,-7.90629 26.8384397,-10.51489 28.9825797,-23.82876 0.74252,-4.61066 2.60455,-9.91099 4.47437001,-12.73649 3.19035999,-4.82095 3.19580999,-4.87541 1.42501,-14.25367 -0.97767,-5.17783 -1.97970001,-9.52449 -2.22672001,-9.65925 -0.24703,-0.13477 -2.25449,-1.50875 -4.46103,-3.0533 -4.9106897,-3.43744 -5.3631097,-3.46344 -5.3631097,-0.30828 0,3.41962 -1.01164,3.16206 -7.3404,-1.86892 -5.27994,-4.19722 -20.00411,-11.88108 -22.7671,-11.88108 -2.96629,0 0.004,3.24459 5.61043,6.13016 6.73823,3.46762 14.91628,12.63362 14.27467,15.99912 -0.23548,1.23515 -1.67315,2.42352 -3.19483,2.64083 -5.94269,0.84867 -34.06135,-10.50807 -41.48629,-16.75575 -2.06033,-1.73365 -6.31537,-7.01688 -9.45563,-11.740513 -3.14026,-4.72364 -6.39722,-8.81992 -7.23771,-9.10286 -1.18328,-0.39834 -1.16183,-0.95833 0.095,-2.48143 3.1868,-3.86176 -1.10813,-3.7578 -8.93783,0.21635 -8.37252,4.24968 -8.609166,4.5997 -17.209806,25.456493 -3.6793,8.92239 -4.21752,13.53745 -2.79184,23.93892 0.5967,4.35344 1.49788,6.19033 3.4375,7.00674 4.45338,1.87447 7.00378,4.47628 7.00378,7.14496 0,1.69714 1.224106,2.97914 3.653146,3.82592 2.00924,0.70041 4.24736,2.38377 4.97361,3.7408 0.72626,1.35701 3.01984,3.05971 5.09685,3.78376 2.09438,0.7301 3.77639,2.2134 3.77639,3.33025 0,1.10759 0.534,1.68376 1.18665,1.2804 0.65266,-0.40336 4.70374,0.45142 9.00237,1.89952 5.75745,1.93955 9.6421,2.46088 14.75085,1.97962 13.26632,-1.24975 24.46068,-3.03738 28.59233,-4.5659 3.13665,-1.16043 4.51064,-1.18455 5.59691,-0.0983 3.37405,3.37405 -4.14392,8.5304 -21.22711,14.559 -7.93764,2.80117 -8.2043,3.01097 -3.8581,3.03552 2.56789,0.0145 9.59914,-1.62075 15.625,-3.63389 z m -272.663686,-36.00121 c -1.2706,-1.27064 -2.3191,0.64236 -1.2765,2.32922 0.7875,1.27428 1.0819,1.27526 1.5054,0.005 0.2894,-0.86849 0.1865,-1.91891 -0.2289,-2.33427 z m 176.74479,-49.569783 c 0,-1.97533 -5.57372,-6.02836 -6.71743,-4.88467 -0.77548,0.7755 4.10289,6.24818 5.77993,6.48405 0.51563,0.0725 0.9375,-0.6472 0.9375,-1.59938 z m -259.96529,-20.83365 c 0.6684,-1.24891 1.2153,-2.90343 1.2153,-3.67671 0,-2.21281 -2.3359,-0.20155 -4.3986,3.78729 -1.6859,3.26006 -1.6814,3.5606 0.044,2.89867 1.0584,-0.40616 2.4713,-1.76032 3.1397,-3.00925 z m 13.8327,-11.49761 c 1.4675,-2.92187 4.0388,-7.14062 5.714,-9.375 1.6752,-2.23437 2.7537,-4.0625 2.3966,-4.0625 -1.2248,0 -10.3023,13.1243 -11.0232,15.9375 -1.0986,4.28704 -0.04,3.3781 2.9126,-2.5 z m 184.7613,1527.79653 c -7.284,-1.2322 -13.1453,-4.245 -14.9999,-7.7105 -1.1951,-2.233 -1.0519,-2.9883 0.8268,-4.362 1.2497,-0.9139 3.2353,-1.6615 4.4125,-1.6615 4.516,0 26.428,4.9396 28.1122,6.3373 2.9432,2.4427 2.0079,4.9407 -2.5652,6.8514 -4.6874,1.9586 -6.9656,2.0373 -15.7864,0.5453 z m -331.6479,-4.8672 c -3.2698,-3.613 -2.2256,-10.4037 1.7692,-11.5056 1.7187,-0.4741 2.4363,-0.9181 1.5946,-0.9866 -0.8417,-0.069 -2.4057,-1.8173 -3.4755,-3.8859 -2.4266,-4.6926 -0.7116,-8.7387 3.704,-8.7387 2.6078,0 9.7955,4.7241 12.0996,7.9525 0.9959,1.3953 3.5617,-0.084 3.6222,-2.0888 0.1479,-4.896 11.8599,-12.4582 29.6863,-19.1681 8.8928,-3.3473 12.7688,-2.558 12.7688,2.5999 0,3.079 -3.8031,5.9548 -12.5,9.4525 -2.4063,0.9677 -7.6984,3.6932 -11.7604,6.0566 -4.0619,2.3634 -9.8276,4.5724 -12.8125,4.9087 -4.6544,0.5247 -5.4271,1.0217 -5.4271,3.49 0,1.7284 -0.9474,3.1789 -2.3716,3.6309 -1.5423,0.4895 -2.1626,1.5521 -1.7738,3.0389 0.7796,2.981 -5.0557,7.6269 -9.5795,7.6269 -1.8632,0 -4.3581,-1.0724 -5.5443,-2.3832 z m 91.7844,-49.2498 c -12.3438,-4.2243 -0.4121,-15.6884 21.0205,-20.1969 9.7825,-2.0579 10.8753,-2.495 37.7143,-15.0889 18.4533,-8.659 34.9063,-13.8304 42.3122,-13.2992 1.6155,0.1162 4.5618,-0.9462 6.5474,-2.36 13.0074,-9.2622 31.8289,-14.0235 54.2654,-13.7279 3.4375,0.045 10.1875,-0.7265 15,-1.715 4.8125,-0.9885 12.4062,-2.4499 16.875,-3.2475 24.5629,-4.3839 37.046,-7.6816 41.875,-11.0624 4.5096,-3.1572 4.9704,-3.973 4.698,-8.3171 -0.3791,-6.0451 -1.059,-6.5284 -12.3726,-8.7948 -6.9678,-1.3957 -3.2579,-10.2917 5.9425,-14.2496 7.2101,-3.1017 23.2636,-5.6349 28.9497,-4.5682 5.8808,1.1032 25.30157,13.513 34.76024,22.2116 5.12498,4.7132 10.91849,8.0556 17.15555,9.8974 6.12566,1.8088 8.47373,4.6057 14.82743,17.6611 3.379426,6.944 3.961706,9.1 2.678616,9.9184 -0.9017,0.5751 -2.483196,0.6598 -3.514446,0.1882 -1.03125,-0.4716 -4.40625,-0.982 -7.5,-1.1344 -5.74057,-0.2826 -16.1745,-1.9682 -26.25,-4.2406 -3.09375,-0.6977 -15.1875,-1.5265 -26.87499,-1.8416 -21.7583,-0.5866 -31.3117,0.437 -45,4.8214 -3.6842,1.1801 -10.612,2.0087 -16.875,2.0186 -22.0924,0.035 -73.5291,9.7209 -79.375,14.9472 -1.375,1.2293 -4.1875,2.6102 -6.25,3.0685 -6.152,1.3673 -35.546,10.6708 -45.625,14.4408 -13.6572,5.1084 -13.0754,4.9219 -29.4346,9.4386 -9.5574,2.6389 -19.5105,6.4795 -27.2418,10.5116 -6.7002,3.4945 -12.5797,6.3219 -13.0654,6.2832 -0.4858,-0.039 -2.8451,-0.742 -5.243,-1.5625 z m -183.1577,-105.8864 c -1.4052,-1.5526 -2.4985,-5.1534 -2.8493,-9.384 -0.5599,-6.7511 -0.4765,-6.9574 5.0468,-12.4806 3.0888,-3.0888 6.5142,-5.616 7.612,-5.616 2.5635,0 10.7997,7.2077 12.0631,10.5566 2.1511,5.7021 -4.4791,11.9444 -8.4593,7.9642 -2.3728,-2.3728 -3.2412,-0.1741 -1.5467,3.9167 2.2738,5.4893 0.974,7.5625 -4.7411,7.5625 -3.2705,0 -5.5867,-0.819 -7.1255,-2.5194 z m 394.08,-7.5469 c -1.2031,-0.7194 -2.1875,-2.2769 -2.1875,-3.461 0,-4.4846 10.6103,-14.5286 21.5099,-20.3619 1.5313,-0.8195 6.4586,-1.871 10.9496,-2.3365 7.0669,-0.7327 9.0483,-0.4426 14.7271,2.1558 8.2839,3.7904 9.7777,7.6737 4.8482,12.6032 -1.8128,1.8128 -5.9653,3.9649 -9.2279,4.7824 -13.8366,3.4674 -16.3553,4.0084 -24.6819,5.3014 -4.8125,0.7474 -9.875,1.6436 -11.25,1.9917 -1.375,0.3482 -3.4844,0.044 -4.6875,-0.6751 z m -459.3906,-17.6369 c -1.8776,-1.8775 -2.0344,-4.7968 -0.2577,-4.7968 1.5099,0 2.8934,3.0771 2.2506,5.0056 -0.2982,0.8946 -0.9588,0.8254 -1.9929,-0.2088 z m 448.4531,-147.2968 c 0,-0.6875 0.8437,-1.25 1.875,-1.25 1.0312,0 1.875,0.5625 1.875,1.25 0,0.6875 -0.8438,1.25 -1.875,1.25 -1.0313,0 -1.875,-0.5625 -1.875,-1.25 z m -102.5137,-62.81253 c -2.7223,-4.46488 -3.0905,-7.93575 -1.3322,-12.56025 1.3113,-3.44913 4.0463,-4.43875 9.4709,-3.427 2.9755,0.55488 3.75,1.34225 3.75,3.812 0,1.78938 0.93,3.49425 2.1875,4.01 3.4829,1.4285 2.5484,5.40575 -2.1041,8.95438 -5.7699,4.40099 -8.9349,4.19237 -11.9721,-0.78913 z m -48.6241,-119.71656 c -6.3366,-5.0088 -7.7147,-8.11842 -4.8622,-10.97094 2.8235,-2.82347 6.8827,-1.5846 11.4795,3.5036 4.6948,5.19655 5.5838,8.43309 3.0205,10.9964 -2.1749,2.17489 -2.6347,2.00652 -9.6378,-3.52906 z m -5.7372,-17.45462 c -1.375,-0.59693 -4.2637,-0.79428 -6.4194,-0.43856 -4.2954,0.70883 -5.9125,-0.68261 -4.6418,-3.99411 0.6977,-1.81824 2.068,-2.04565 9.0666,-1.50466 9.831,0.75992 16.7365,3.05791 13.8696,4.61545 -3.2697,1.77633 -9.2856,2.44601 -11.875,1.32188 z m -100.4176,-608.07055 c -3.0477,-5.16546 -7.8588,-6.75386 -22.6335,-7.47257 -12.1132,-0.58927 -16.3239,-2.71041 -16.3239,-8.2232 0,-4.66895 3.3517,-6.86984 12.5,-8.20803 19.7082,-2.88289 32.0914,1.51721 39.4085,14.00295 3.8899,6.63767 3.8659,7.83508 -0.2279,11.35278 -4.9997,4.29608 -9.6446,3.76604 -12.7232,-1.45193 z m 362.29259,-365.69577 c 0,-0.6875 0.5625,-1.25 1.25,-1.25 0.6875,0 1.25,0.5625 1.25,1.25 0,0.6875 -0.5625,1.25 -1.25,1.25 -0.6875,0 -1.25,-0.5625 -1.25,-1.25 z"
       style="fill:#000000" />
  </g>
</svg>
