<?xml version="1.0" encoding="utf-8"?>
<!-- Uploaded to: SVG Repo, www.svgrepo.com, Generator: SVG Repo Mixer Tools -->
<svg fill="#000000" width="800px" height="800px" viewBox="0 0 32 32" version="1.1" xmlns="http://www.w3.org/2000/svg">
<title>muscle-up</title>
<path d="M5.717 15.31v0 0zM21.591 1.165c-2.541 2.457 0.407 6.347 2.721 3.551 2.378 4.452 0.418 8.203-5.017 4.913 0.32-0.668 0.504-1.442 0.504-2.269 0-2.511-1.693-4.547-3.782-4.547s-3.782 2.036-3.782 4.547c0 0.808 0.176 1.567 0.483 2.225-5.489 3.366-7.477-0.399-5.088-4.87 2.314 2.796 5.263-1.094 2.721-3.551-9.379 2.533-12.984 11.224-4.566 14.146h-0.068c0.040 0.005 0.079 0.012 0.118 0.017 0.562 0.192 1.177 0.359 1.847 0.497 3.136 1.234 5.404 4.22 5.588 7.137-2.091 1.441-3.711 3.921-3.711 3.921l1.64 2.414-2.572 1.465h5.114c-2.522-2.523-0.732-5.361 2.255-5.361 3.029 0 4.613 3.003 2.255 5.361h5.062l-2.519-1.465 1.64-2.414c0 0-1.646-2.52-3.761-3.955 0.2-2.906 2.462-5.874 5.586-7.103 0.67-0.138 1.285-0.305 1.847-0.497 0.039-0.006 0.079-0.012 0.118-0.017h-0.068c8.418-2.922 4.813-11.613-4.566-14.146z"></path>
</svg>