<svg
      xmlns="http://www.w3.org/2000/svg"
      viewBox="0 0 1112.215 1025.228"
      fill="#fff"
    >
      <path
        d="M5405 9150c-97-18-131-38-211-123-99-107-153-190-199-307-37-95-37-95-31-200 4-58 13-137 20-176l13-72-100-11c-170-19-287-56-381-119-23-17-34-18-65-10-42 12-202 3-306-17-108-20-176-50-235-103-30-26-77-61-105-77-65-37-211-185-254-258-91-154-117-335-76-523 4-16-12-41-61-95-127-141-177-267-193-482-10-150-12-156-111-335-46-84-49-118-21-213 31-105 34-128 32-256-2-151 10-206 84-383 75-178 94-214 183-350 90-138 164-278 152-285-5-3-16-27-24-54-8-26-30-91-50-143-52-140-85-276-104-427l-17-134-55-14c-98-24-273-137-380-244-161-161-193-307-108-491l31-69-22-40-23-40 21-38 20-39-122-93c-67-51-173-133-235-181l-113-89-30 26c-23 19-42 25-78 25-96 0-149-69-137-177l6-51-52-39c-139-101-556-418-580-441-16-14-28-34-28-44 0-24 35-58 59-58 11 0 169 113 352 251 184 138 339 253 345 256 6 2 23-1 38-7 73-27 165 48 153 124-5 30-2 37 21 52 15 10 128 94 252 189l225 171 34-23c44-30 72-29 109 2 34 28 60 32 68 10 3-8 14-17 24-20 19-6 44-113 55-240 3-38 31-209 62-379l55-310-23-19c-53-42-59-63-59-198 0-159-12-195-116-354-98-150-169-290-184-358-18-89-1-139 101-292 73-110 94-135 121-143 18-6 134-23 258-38 277-33 287-32 375 60 61 63 131 186 171 303l18 51-36 129c-40 141-63 246-73 338-7 67 14 177 59 300 34 94 33 132-6 208-33 61-33 64-33 197 1 167 11 215 80 360 30 63 67 156 82 205 25 82 27 103 26 245 0 85-5 181-12 213l-11 59 41 60c38 56 41 64 36 112l-5 51 168 175c159 166 251 286 316 412 10 20 66 88 123 152 115 128 150 151 397 257 66 28 141 64 167 80s53 26 60 23c7-4 37-29 68-56 41-35 68-70 97-126 49-94 201-283 269-334 70-53 137-81 182-75 90 11 159-72 181-218 22-151 54-229 118-287 22-19 47-40 56-45 11-6 17-23 17-54 1-46-43-249-86-397-22-74-25-106-25-232v-145l75-150c106-209 108-223 102-610-5-340-9-367-68-495-28-62-34-86-34-145 0-67 2-72 39-117 33-39 58-54 166-102 152-68 187-95 236-184 75-134 102-167 165-203 33-19 83-49 111-68 28-18 76-45 106-59 48-22 63-24 140-19 48 3 104 10 124 16 64 20 130 72 156 123l24 47-12 178c-15 206-18 216-113 325-82 94-273 347-319 424-68 111-82 158-81 269 0 55 7 129 16 165 27 115 59 412 87 821 13 181 3 338-30 469-12 47-28 111-36 142-12 51-12 69 2 155 18 109 14 254-9 320-7 21-43 88-79 149-81 135-87 165-63 354 19 155 15 225-22 344-13 45-25 106-26 137-3 62-18 91-111 208-60 76-196 221-207 221-25 0-214 124-269 176l-64 62 52 22c134 58 256 275 278 498l7 63 47 24c89 45 134 124 222 380 31 93 35 204 9 305-22 89-80 220-134 305-18 27-30 57-29 67 2 10-37 96-86 191-48 95-104 207-122 249-18 43-46 93-62 112-35 42-110 93-158 106-71 19-72 22-55 135 32 207 29 338-15 688-12 93-86 243-157 315-58 58-160 112-248 130-71 15-320 23-380 12m301-71c184-25 227-57 343-248 61-100 67-122 85-283 34-294 31-339-38-683-50-254-167-443-288-466-40-7-248 11-304 27-23 6-230 257-258 311-12 23-16 53-14 103 2 54-1 73-12 80-21 13-26 12-46-7-14-15-16-31-11-105 6-99-2-84 153-285 51-65 107-132 125-150 36-34 91-53 152-53 20 0 37-4 37-9s-21-26-47-47c-74-60-93-84-93-116v-29l43 33c23 19 73 54 110 78 37 23 76 53 85 65 15 18 31 23 85 27 67 4 68 5 128 63 34 33 79 86 100 119 43 65 95 193 112 273 6 29 15 53 19 53 5 0 32-12 60-26 91-46 139-108 244-318 53-105 102-199 110-210 22-32 17-38-24-31-61 10-205-50-305-128-30-23-37-35-35-56 5-42 34-37 122 22 83 57 121 71 216 81l55 6 52-83c95-150 123-235 123-369 0-58-6-105-19-145-41-126-101-269-126-300-30-38-96-74-180-98-89-26-115-42-115-70 0-32 28-39 81-20 24 8 46 15 50 15 11 0-21-175-46-250-27-81-55-126-98-160-40-31-154-81-171-74-14 5-67-25-91-51-5-7-33-26-61-43-58-37-153-132-177-178-9-17-24-65-33-105-9-41-22-84-30-96-13-21-92-69-99-61-2 2 7 27 21 55 21 41 24 58 17 79-14 42-30 40-77-9-54-56-86-124-120-252-33-124-60-170-148-256-76-74-129-104-342-198-203-90-261-127-356-228-76-81-140-163-140-178 0-18-170-252-237-325-43-47-105-123-138-168-49-68-63-81-80-75-92 29-276-45-340-138l-28-40-35 33c-18 18-56 68-84 110-52 80-55 81-163 115-81 24-98 56-92 164 6 88 29 141 82 187 47 42 61 48 271 132 98 40 205 87 237 107 65 40 244 232 345 371 65 91 162 271 162 302 0 66 235 307 472 483 86 64 161 117 166 117s12-14 14-31c4-23 0-33-16-41-12-6-38-22-59-35-32-20-36-26-27-43 16-31 53-24 149 26 50 26 108 48 132 50 117 13 134 25 104 70-20 30-55 31-136 4-34-12-62-20-64-18-10 13-25 110-25 165 0 64 3 74 45 141 95 154 206 271 432 453 185 149 156 141 264 68 98-66 121-69 127-17 6 51-115 130-202 130-69 0-191-69-315-175-26-23-51-36-60-34-9 3-48 15-87 26-100 29-118 38-139 74-21 38-65 87-77 87-17 0-27-48-17-82 11-42 67-109 117-140 20-12 60-27 89-33l53-11-49-48-49-48-81 35c-44 19-100 51-124 71-54 44-67 45-67 4 0-46 100-143 165-160 30-8 44-17 41-25-13-32-90-123-105-123-9 0-21-4-27-9-5-5-40-12-77-16l-69-8 15 30c20 38 30 95 19 111-16 25-45 9-56-31-6-20-24-53-39-72-34-42-65-45-183-15-111 29-190 68-255 128l-56 52 5 70c5 70 4 72-29 106-18 19-39 34-46 34-18 0-16-43 4-85 12-25 14-38 6-46-7-7-27 21-65 98-44 86-57 121-62 174-6 64-5 69 36 149l42 83 13-38c18-53 42-77 72-73 36 4 38 38 8 107-27 60-45 151-30 151 5 0 18-19 30-42 32-67 109-163 166-209 109-86 229-129 369-129 66 0 79 3 87 19 15 28-3 38-105 62-162 37-252 68-295 102-60 45-144 160-163 222-10 29-25 61-36 72-14 16-19 41-23 124-3 57-9 119-12 137-6 27-4 36 13 48 35 24 64 72 57 94-10 32-33 24-95-36-54-51-68-59-167-90-122-38-150-50-158-71-9-25 5-34 28-18 21 13 111 35 204 49l42 6 12-57c17-82 0-209-41-305-65-153-193-364-287-475-50-58-195-173-219-173-21 0-17-28 6-35 10-3 36-2 56 4 21 6 41 8 46 5 4-3 8-26 8-52s16-148 36-272c32-201 37-255 44-510 7-262 10-293 34-384 15-54 37-122 50-150 56-122 76-169 76-181 0-30-136-137-240-189-58-29-140-74-183-100s-81-46-83-43c-11 10 96 252 147 334 12 20 11 26-7 50-13 17-23 50-26 82-7 71-79 212-213 419-222 339-294 540-295 815 0 74-6 122-25 193-31 112-26 141 35 227 69 96 80 132 95 305 16 182 23 210 76 312 34 65 99 150 114 150 3 0 5-25 5-55 0-47 3-55 19-55 25 0 37 16 51 69 9 36 8 70-10 200-27 189-20 252 41 369 55 107 109 169 282 326 168 152 257 183 496 174 122-5 125-5 165 22 107 71 154 88 311 108 83 11 151 19 152 18s14-59 28-129c30-149 27-161-55-224-61-46-65-76-10-81 55-4 96 28 130 101 35 73 36 81 10 205-19 96-53 314-65 422-17 142 58 316 204 477 55 61 75 76 117 88 119 36 218 43 350 24M4117 6268c-3-8-6-5-6 6-1 11 2 17 5 13 3-3 4-12 1-19m-41-82c-3-17-24-53-46-80-22-26-40-57-40-67 0-11-17-38-39-61l-38-42-8 59-7 58 46 39c25 22 65 67 88 100 44 63 57 62 44-6m122-156c51-70 209-211 295-263 34-21 84-45 112-53 64-20 363-31 419-16 22 6 42 9 46 7s2-20-4-39c-9-31-16-35-81-54-38-11-131-41-205-67-100-36-150-48-195-49-53-1-60-3-63-22-4-29 21-52 64-60s180 34 350 106c127 55 124 54 124 41 0-5-19-19-42-30-88-43-229-161-418-350-163-163-202-208-233-268l-37-71-53 21c-37 15-84 22-162 26l-110 6-8 170c-4 94-16 274-28 400-34 389-34 377-17 389 8 6 23 23 32 39 21 31 36 35 36 9 0-29 64-153 108-208 66-84 196-133 233-88 12 15 8 21-31 53-106 85-201 186-230 244-39 78-38 116 2 175 28 41 33 44 42 28 6-10 30-45 54-76m2043-573c40-44 87-80 165-127 80-48 129-86 183-142 66-69 151-181 151-200 0-4-30 11-67 33-114 66-325 117-438 104-82-9-127-31-216-108-134-116-242-265-280-387-52-165-2-404 105-502 62-57 34-58-31-1-57 48-151 179-256 354-43 71-73 102-141 144-14 9-10 18 30 75 25 36 75 116 111 178l65 112h41c47 0 113 27 140 57 9 11 35 73 57 138 60 178 96 228 214 299 84 51 100 48 167-27m134-417c133-14 253-61 384-149l56-38 34-136c26-107 32-149 27-194-3-32-8-132-12-223l-6-165 56-88c114-181 136-303 96-519-12-63-11-73 13-160 74-262 77-413 19-963-23-209-46-396-52-415-20-67-23-200-6-273 35-147 166-350 392-604 40-45 80-96 89-114 18-34 34-170 35-289 0-94-17-124-90-164-43-24-70-30-133-34l-78-5-113 58c-174 88-200 111-268 239-32 60-67 119-78 131-28 30-97 66-196 104-112 43-152 80-165 153-10 60-11 57 55 214 38 91 48 217 43 535-5 276-16 399-38 440-6 12-31 49-55 82-62 83-86 166-86 297-1 94 4 124 46 285 26 99 53 209 60 245 12 60 13 63 21 35 12-49 33-75 61-75 37 0 39 23 9 93-22 51-38 70-83 102-30 22-76 60-102 85-54 51-71 95-96 249-8 51-20 106-27 122-17 39-135 159-173 175-36 15-134 119-169 179-35 59-55 148-55 246 0 105 18 145 130 294 137 183 195 223 360 254 3 0 46-4 95-9m-2166-251c41-11 76-21 79-24 8-8-126-235-139-235-10 0-50 98-71 175-35 127-37 117 13 109 24-4 77-15 118-25m-589-204c0-33 7-73 15-88 13-26 12-31-14-75-16-26-39-80-50-119-68-238-63-226-114-238-25-7-27-5-27 21 0 100 47 297 111 470 22 60 42 116 45 124 11 30 33-34 34-95m-344-726c-3-17-6-60-6-95 0-61-1-65-27-75-86-31-178-105-221-177-35-61-38-162-5-233 61-135 205-204 413-197 91 3 113 7 163 31 79 39 166 123 216 207 49 82 89 115 158 131 52 12 89 7 78-11-3-5-6-30-7-56 0-41-7-53-60-115-123-143-303-260-453-295-52-12-100-15-187-11-100 3-124 8-171 31-67 32-131 35-147 6-6-11-16-20-22-20-17 0-118 104-118 122 0 10 9 22 19 28 34 18 35 47 4 98-108 176-86 303 81 459 46 43 119 99 162 125 44 26 88 54 99 62 30 23 38 19 31-15m39-256c31-35 29-45-40-188-30-61-60-132-67-158-6-26-17-47-23-47-19 0-73 56-94 98-55 108-8 201 149 294 25 15 46 27 48 27 2 1 14-11 27-26m146-79c61-34 129-128 102-142-12-7-19-31-24-82-4-39-13-87-20-107l-11-35-114 4c-63 2-119 9-125 15-7 7 9 54 49 149 33 77 63 155 67 174 13 60 11 59 76 24m195-260c-17-34-66-83-66-67 0 12 19 108 27 132 3 11 10 9 29-10 23-24 24-27 10-55m348-146c10-90 6-260-8-328-8-36-37-118-65-184-28-65-60-148-71-185-28-90-50-238-50-341 0-81 2-89 35-140 44-70 45-106 1-192-26-52-37-90-46-167-15-116-7-171 65-447 39-149 41-165 29-199-18-54-75-132-164-227l-78-83-79 2c-115 2-352 32-384 49-15 7-38 28-50 46-13 18-42 56-65 83-59 71-77 111-78 175-1 46 6 70 45 150 25 52 86 160 136 240 49 80 96 161 103 180s16 94 19 165c7 130 7 130 45 185 37 53 38 57 32 119-4 35-20 132-36 215s-40 228-55 321c-14 94-32 206-40 249-9 44-14 80-13 80 2 1 53 0 114-2l110-4-4-106c-3-71 4-178 19-317 12-115 23-275 24-354 2-127 4-145 20-154 15-8 22-5 37 13 14 17 18 39 18 94 0 71-21 327-40 486-5 47-10 142-10 213 0 145-11 129 108 163 94 26 206 96 287 179 38 39 73 72 76 73s9-22 13-50m-1679-495c39-19 39-18 24-79-16-61-47-84-115-84-29 0-55 3-57 8-2 4-1 38 2 76 5 51 11 72 26 82 25 19 77 18 120-3"
        transform="matrix(.1 0 0 -.1 0 960)"
      ></path>
      <path
        d="M4522 7788c-19-19-16-26 37-86 34-39 60-83 80-137 45-116 72-140 284-254 95-51 97-53 98-89 2-68 12-87 44-87 40 0 43 30 13 115l-23 65-116 60c-64 34-133 73-153 89-38 29-72 87-100 172-19 57-73 127-117 149-34 18-32 18-47 3M5074 7755c-15-23-15-33 0-129 9-58 16-125 16-149 0-53 30-97 65-97h23l-20 63c-19 60-40 249-31 275 8 21-6 62-22 62-8 0-22-11-31-25M4253 7753c-7-2-13-16-13-29 0-20 11-29 55-50 80-38 98-65 90-134-4-30-14-72-22-93-14-35-14-40 1-55 35-35 75 28 75 118 0 61-24 158-45 181-14 16-116 71-126 68-2 0-9-3-15-6M5400 7087c-29-15-39-54-15-63 8-4 35-1 59 6 39 11 52 9 125-14 68-22 101-26 194-26 97 0 119 3 157 23 35 17 46 28 48 50 5 38-17 43-70 15-60-31-200-32-309 0-84 25-152 28-189 9M5213 6895c-31-21-116-206-147-317-33-118-32-181 1-186 32-5 49 29 68 133 12 65 31 121 71 203 70 146 73 213 7 167M3864 6851c-116-84-235-256-278-400-19-63-31-198-22-234 7-30 40-44 61-27 18 15 19 75 4 153-11 55-11 58 25 133 52 110 113 191 216 286 50 45 90 91 90 100 0 28-51 22-96-11M3357 6783c-16-16-4-49 39-103l46-59-66-132c-69-135-81-190-45-197 12-2 32 37 82 166 37 92 67 179 67 192 0 60-94 163-123 133M5910 6690c0-13 18-22 24-11 3 5-1 11-9 15-8 3-15 1-15-4M4651 6263c-76-53-101-115-49-121 28-3 58 27 58 60 0 10 2 18 4 18s36-14 75-30c60-26 83-30 138-28 57 3 68 6 84 28 28 40 33 69 13 77-16 6-31-7-54-46-7-13-25-10-116 18-60 19-114 35-119 37-6 3-21-3-34-13M3278 6091c-49-31-68-56-68-91 0-39 31-36 67 6 78 90 78 134 1 85M4885 6050c-84-72-120-81-250-60-42 7-64 16-74 30-27 39-82 10-60-32 17-31 65-48 170-59 130-14 192-3 237 44 34 35 56 83 48 104s-22 16-71-27M3535 5882c-19-28-27-60-35-135-13-113-9-139 33-222 16-33 38-89 48-124s28-75 40-88c29-30 84-32 99-3 9 17 6 24-20 46-62 52-150 247-150 332 0 26 12 82 26 125s23 84 20 92c-10 26-35 16-61-23M6002 5909c-86-16-134-64-240-240-68-113-75-134-56-154 9-8 19-15 24-15 14 0 73 78 130 170 62 102 102 146 147 161 28 9 38 7 67-10 42-27 78-27 102 0 23 25 12 47-37 70-46 23-86 28-137 18M5392 5284c-17-12-22-25-22-63 0-79-51-160-182-289-74-74-177-149-375-274-155-97-172-120-99-126 30-3 61 8 140 47 170 85 341 216 464 356 105 119 175 316 127 351-24 17-26 17-53-2M6726 4354c-11-27-6-67 14-134 29-93 26-134-15-219-39-80-42-102-20-121 31-26 75 45 111 182 17 65 17 67-4 146-12 44-22 95-22 115 0 23-6 37-16 41-26 10-42 7-48-10M6247 4193c-16-15-4-44 40-104 97-133 211-219 269-205 34 9 30 38-8 60-67 39-128 91-180 155-30 36-57 74-61 84-6 17-47 24-60 10M6782 3358c-23-23-12-72 44-191l56-120 5-161c5-166-1-254-39-583-23-198-21-224 16-210 30 12 55 173 82 540 23 313 14 425-45 541-23 45-49 106-59 136-17 55-37 71-60 48M6581 1595c-44-50-82-130-84-175-3-73 86-161 148-146 24 6 41 38 31 55-4 5-29 17-56 26-77 26-78 44-3 167 55 90 28 146-36 73"
        transform="matrix(.1 0 0 -.1 0 960)"
      ></path>
    </svg>