<svg
      xmlns="http://www.w3.org/2000/svg"
      viewBox="0 0 1112.215 1025.228"
      fill="#fff"
    >
      <path
        d="M3535 8872c-79-15-132-51-230-155-53-56-104-120-115-142-18-37-40-162-56-307-5-57-6-58-37-58-163 0-796-282-884-393-10-13-59-45-108-70-149-78-275-199-335-322-19-40-33-91-42-154l-12-94-58-54c-55-53-138-164-172-230-9-18-32-92-51-165-32-118-42-142-93-217l-57-84 1-81c1-59 7-98 24-141 19-51 23-77 21-170-1-134 10-182 85-358 74-174 94-212 181-346 41-62 92-147 113-189l40-75-36-101c-20-56-47-132-60-171-73-205-99-386-95-655 4-238-3-279-75-429-76-157-101-238-114-366-11-99-10-122 9-225 11-63 23-145 26-181l7-65-495-358c-274-197-497-365-500-376-8-32 15-65 50-68 27-3 89 39 474 319 244 177 454 331 466 342 28 25 21 47 72-238l42-230-26-18c-48-35-57-68-59-216-2-159-9-179-121-346-36-55-92-152-123-215-53-107-57-120-57-185 1-82 11-104 118-262 50-74 81-110 102-118 16-7 134-25 260-40 280-34 290-33 376 55 43 44 70 86 112 172 86 177 85 169 43 306-88 292-93 459-22 629 43 102 44 141 5 220l-34 68 1 150c0 174 6 198 79 355 77 163 108 285 109 429l1 114 781 567 782 567 42-54c82-106 191-175 280-179 30-1 58-2 62-3 5-1 26-17 48-37 44-40 58-77 85-228 23-128 47-177 119-242 60-55 61-56 60-107 0-29-26-155-58-281-57-227-57-230-54-356l3-126 78-154c65-131 79-169 92-244 25-148 15-624-15-737-6-23-26-73-45-112-54-118-56-200-4-257 16-17 29-35 29-39s42-27 93-51c234-108 232-106 319-258 64-111 62-110 236-217 126-77 168-90 270-82 96 7 158 28 210 72 69 60 75 81 67 278-8 204-13 219-110 332-88 104-282 363-328 440-83 137-94 232-52 469 45 260 91 821 82 1011-5 111-16 174-71 390-10 40-10 64 0 120 16 85 17 254 3 315-10 45-89 194-137 259-25 33-25 34-17 175 16 269 12 350-19 454-15 51-25 99-22 107 9 24-21 105-53 145l-30 38 102 74c570 412 1129 817 1156 840 30 24 37 26 50 14 26-22 59-28 95-16 46 15 66 48 66 109 0 30 5 51 13 54 6 2 65 43 130 91 117 86 118 86 147 71 71-37 121-7 128 78l4 56 217 158c212 154 217 157 263 155 52-3 90 12 127 52 22 23 32 26 91 26 78 0 153 20 232 62 43 23 95 71 214 197 111 118 166 168 188 174 67 18 146 126 146 200 0 32 3 37 23 37 54 0 199 122 210 177 6 30 3 51-15 110-19 65-319 304-417 334-33 10-46 8-117-21-86-34-273-130-365-186-43-27-72-37-117-41-76-7-125 9-437 142-295 126-485 187-605 193-92 5-171-12-361-76-83-29-89-29-177-19-71 8-102 8-139-3-27-7-64-12-83-12-442 10-666 12-710 4-49-7-60-6-105 17-48 25-56 26-235 26-102 0-215-4-252-9-55-7-76-6-112 8-40 15-44 20-49 60-10 71-44 147-93 209-40 51-59 65-147 108-56 27-129 56-162 64-66 18-315 28-380 17m385-87c84-22 152-57 207-108 89-82 118-164 132-372 6-77 19-187 31-245 22-116 29-363 11-455-10-51-163-390-204-450-12-18-42-54-67-81-36-39-52-49-89-55-71-12-230-10-254 2-42 22-79 65-140 163-33 55-86 127-118 160-65 71-70 79-115 199-22 60-38 125-45 187-14 123-19 134-33 85-12-43-43-58-72-35-29 25-13-8 21-41 29-29 35-41 35-79 1-87 75-253 160-354 22-27 39-51 36-53-2-2-27 12-54 32-59 42-102 57-125 43-23-12-22-27 2-21 12 3 40-15 87-57 38-33 89-71 114-83 30-15 64-45 100-91 30-38 77-87 103-108l49-38h207l-2-27c-3-46 31-41 95 14 30 26 96 77 147 112 93 65 191 161 191 187 0 8-3 14-6 14-13 0-53-26-101-66-28-24-53-44-56-44s35 84 83 188c104 223 116 258 131 382 12 107 7 203-21 365-10 61-22 149-26 197l-6 86 48-10c35-8 69-8 119 0 253 40 449 14 558-74 111-90 177-116 206-80 10 12 0 21-57 51-38 20-80 47-93 61l-22 24h282c218 0 297-3 350-15 53-13 74-13 97-4 62 25 101 28 189 17l90-11 145 48c125 42 159 49 246 53 159 7 279-28 702-202 202-83 357-136 400-136 44 0 99 19 130 45 15 13 112 67 215 119 215 110 234 114 313 65 67-43 251-196 264-219 16-29 12-109-7-140-18-31-71-64-118-74-17-4-46-16-64-27-33-20-34-21-27-75 6-50 4-59-21-95-34-48-79-63-138-48-54 14-189 89-178 99 4 4 55 45 113 91s135 113 173 149c55 54 67 71 67 98 0 45-22 94-56 126-37 34-122 61-160 52-18-5-78-56-159-136-77-75-179-163-249-213-103-74-123-85-150-80-51 8-190-12-469-68l-258-52-230 38c-136 22-267 38-324 39-52 0-95 3-95 5s23 28 51 58c30 31 48 58 43 63-19 19-245 130-264 130-11 0-20-6-20-13 0-21 30-44 99-77 34-17 64-37 67-45 7-17-50-96-112-159-91-91-330-158-664-185-58-5-106-8-108-6s11 25 28 53c54 88 120 240 120 277 0 56-22 41-62-43-53-112-167-280-229-340-30-28-81-65-114-81-71-34-178-111-199-143-28-42-97-252-112-338-29-162-60-206-241-349-139-109-240-153-418-181-71-11-85-10-125 5-84 31-92 31-88 0 5-44 42-64 140-75 110-13 202 0 309 41 44 17 82 29 85 26 11-10-130-137-179-161-65-32-161-51-209-42-20 4-62 24-95 46-32 22-64 40-70 40-8 0-13 13-13 29 0 64-38 38-71-49-41-107-105-151-198-136-40 6-57-7-41-33 11-19 140-17 177 2 42 22 91 75 105 114 7 18 17 33 23 33 5 0 32-20 60-45 28-26 67-50 90-56 41-11 137-5 181 11 13 5 24 6 24 1 0-23-59-52-175-86-71-20-178-55-237-76-128-46-152-49-115-15 26 24 45 71 34 83-3 3-25-11-49-31-96-83-222-115-360-91-111 20-526 130-603 161-85 34-208 147-265 244l-40 66 17 40c16 38 18 39 64 39h48l13-50c6-27 11-60 9-72-5-42 28-131 55-152 33-26 115-31 94-6-7 8-18 15-24 15-18 0-53 40-66 74-10 27-9 28 12 21 35-12 91-11 95 0 2 6-19 20-47 32-54 23-70 48-84 126-6 33-4 38 18 48 23 11 30 7 81-39 60-55 119-82 250-112 140-33 264-44 500-45h230l63 29c39 18 77 45 98 70 40 46 127 219 145 287 11 42 11 50-6 75l-18 28-18-77c-37-155-95-240-212-310l-72-42h-240c-218 0-249 2-335 24-106 26-290 91-363 128-46 23-47 24-32 46 16 23 20 84 6 106-7 11-12 8-25-15-27-50-60-82-98-98-85-36-316-6-427 55-58 32-91 34-91 6 0-25 179-105 273-122 20-4 37-9 37-11 0-3-11-21-24-42s-38-65-55-99c-32-64-70-100-132-126-55-22-203-54-318-67-103-13-104-13-83-31 25-19 134-35 182-26 28 6 31 3 80-84 68-120 128-258 145-333 8-34 21-115 30-181 18-137 81-404 125-535 38-114 115-267 176-350 67-92 74-121 60-258-10-90-17-118-34-140-13-15-32-46-43-69-20-43-44-63-74-63-33 0-24 30 44 156 39 71 71 137 71 146 0 19-17 27-42 20-23-6-166-290-203-401l-28-84-58-25c-52-22-59-29-71-66-11-36-17-41-47-44-59-6-81 5-81 38 0 17 9 47 20 67 11 21 20 43 20 49 0 18-26 35-43 28-20-7-60-111-54-141 4-19 0-23-23-23-32 0-68 31-76 68-3 15-10 40-14 55-5 15-7 34-4 41s-7 28-22 45c-23 27-26 39-22 79 3 26 21 81 40 122 20 41 55 135 78 208s68 185 100 250l59 117-19 27c-11 14-24 57-30 95-13 83-70 193-210 408-213 329-275 488-289 745-4 74-13 145-20 158-17 32-24 78-22 145 2 48 13 82 60 185 32 70 71 168 86 217 33 113 78 193 151 275l57 64-5-107c-4-82-1-112 9-127 33-47 39-25 53 190 12 193 30 286 66 349 34 59 214 233 279 270 76 43 171 77 267 96 130 26 146 65 21 52-31-3-52-2-47 2 5 5 90 50 189 100 158 80 203 97 374 146 107 31 198 58 203 61 22 14 0-194-24-223-5-6-24-13-41-15-24-2-33-8-35-25-7-48 97-35 142 17 28 34 30 46 46 319 11 186 29 300 54 350 22 42 100 124 172 182 61 49 69 52 142 60 107 11 267 3 342-16m4274-641c22-21 32-43 38-79 6-29-3-37-239-225-363-290-461-394-446-473 7-35 38-57 79-57 32 0 129 49 189 94 44 34 161 148 171 168 8 16 14 15 72-5 34-12 62-24 62-27s-62-68-138-146c-112-115-149-146-203-173-79-39-200-61-230-43-32 20-45 14-89-38-47-56-69-62-99-24-28 35-26 51 8 97 28 36 29 42 24 115-6 94 16 161 83 252 82 111 166 184 456 394 60 42 129 102 155 132 49 57 78 67 107 38m-749-476c-47-56-113-189-125-256-5-29-7-72-3-97 5-40 2-48-27-81-28-33-32-42-27-78l6-41-222-161c-183-133-226-160-243-154-29 11-95-5-111-26-7-10-13-34-14-53 0-34-6-40-137-135-114-83-139-96-154-87-10 6-35 11-56 11-51 0-74-26-80-89-4-44-9-53-42-75-21-13-310-223-643-464-334-242-611-443-616-446s-26 16-46 43c-38 53-107 106-248 190-49 30-118 80-154 112-74 65-197 155-258 189-22 12-48 29-58 38-17 15-16 17 12 46 36 38 54 81 47 115-5 22 2 31 39 59 54 39 142 143 165 195 11 24 49 64 111 116 138 114 153 139 204 332 42 155 73 239 127 334 37 66 44 72 106 100 39 17 90 51 122 81l55 52 140 11c174 15 354 37 408 52 54 14 244 88 277 108 14 8 42 30 62 50 35 33 41 34 100 32 104-3 233-20 408-52 229-42 318-42 440-1 69 23 140 37 260 51 236 27 218 29 175-21m475-48c0-29-254-240-289-240-16 0-13 32 5 59 9 12 66 65 126 116 101 86 111 93 134 83 13-6 24-14 24-18m-1080-911c0-53-15-69-65-69-42 0-45 2-45 25 0 36 42 75 80 75 27 0 30-3 30-31m-418-313c-5-63-17-76-65-76-59 0-69 12-51 63s28 58 79 55l40-3-3-39m-4098-158c15-24 45-56 67-73 22-16 51-50 66-74 32-53 73-73 195-95 49-9 119-32 160-51 92-44 176-65 253-65 33 0 111-13 176-29l116-30 141 29c159 32 519 136 543 156 8 8 30 17 47 20 29 6 33 4 46-27 18-42 16-45-88-113-88-57-116-68-137-55-11 6-1 20 39 55 51 44 79 81 69 90-3 3-26-9-53-25-26-17-52-31-57-31-6 0-44-20-86-44-128-73-208-93-421-107-185-11-306-7-345 13-11 6-30 20-42 31-25 22-53 17-53-11 0-65 166-101 473-105 190-2 226 5 411 77 47 19 86 31 86 27s-29-24-64-44c-47-28-119-53-277-96-336-93-432-133-409-171 12-20 69-5 395 100l272 87 152 104c84 57 159 108 165 113 37 26 177-50 294-159 31-30 104-82 161-116 76-45 124-83 180-141 42-44 77-83 79-88 2-4-10-17-26-29l-30-21-45 20c-78 35-232 62-322 58-103-5-154-32-267-142-186-180-271-343-267-514l2-73-38-27c-32-23-39-25-47-12-123 209-159 249-266 292-97 39-264 23-340-32-37-26-141-172-221-310-18-30-46-71-62-90l-29-34v67c0 54-7 87-35 160-55 141-101 210-217 323-132 129-159 141-400 169l-47 6-20 92c-11 51-25 139-31 197-10 93-53 287-93 420l-14 46 58 64c32 35 60 62 61 59 2-2 13-25 25-51 18-38 39-58 117-113 144-100 441-237 482-221 9 3-56 42-163 96-233 118-301 169-376 282l-59 88 23 37c19 32 58 83 64 83 1 0 14-19 29-42m-200-85c-4-15-26-51-48-80-35-45-43-51-51-37-5 9-20 31-32 49-22 35-21 45 6 45 9 0 39 11 66 24 64 31 67 31 59-1m2850-834c4-28 5-53 3-55-8-8-97 29-97 40 0 21 47 66 68 66 16 0 21-10 26-51m-329 6c110-19 127-28 94-45-13-8-188-132-388-277l-364-264 6 76c8 91 29 136 123 260 110 147 117 154 171 192 104 72 194 86 358 58m303-130l68-44 34-131c32-127 33-134 24-243-5-62-9-168-9-237v-125l41-60c124-181 154-340 103-545-10-40-9-57 16-140 62-218 76-402 51-665-42-435-69-665-82-716-8-32-14-104-14-163 0-121 17-187 78-296 47-83 218-311 314-417 113-125 120-144 126-340l5-163-42-40c-48-46-118-70-203-70-50 0-73 7-161 51-109 55-175 97-208 132-11 12-46 71-77 131-65 125-74 133-232 202-120 52-166 79-180 104-6 11-13 46-16 78-6 53-3 67 29 138 19 43 40 97 47 119 6 22 17 165 23 319 8 223 8 298-2 375-8 53-17 122-21 154-6 47-19 74-68 147-49 72-64 103-78 166-24 111-15 233 30 404 20 74 44 171 52 215 23 111 25 115 36 75 17-62 60-89 87-56 9 10 5 28-18 75-37 79-40 83-128 143-102 71-128 120-153 293-19 125-27 144-98 218-37 38-87 79-112 92-28 14-65 48-97 88-88 110-110 158-80 170 6 3 199 140 427 306 228 165 416 300 418 301 1 0 33-20 70-45m-2571-104c183-38 261-97 372-282 75-126 96-190 86-268-6-51-12-61-62-111-30-30-61-66-68-80-19-37-187-245-253-313-31-32-83-79-116-104-65-48-74-61-75-107-1-21-18-47-63-95-108-114-149-221-89-229 30-5 51 20 51 59 0 43 18 44 25 2 3-21 10-55 14-75l9-38-67-48c-36-27-133-97-216-157-82-59-160-117-172-128l-23-20v29c1 56 21 170 60 335 21 91 36 176 33 188-5 21-43 38-61 27-5-3-12-36-15-73s-20-113-37-168c-24-76-34-134-42-242l-12-143-88-64-87-65-5 32c-3 18-15 91-27 162-31 194-15 302 76 505 53 117 95 256 95 311 0 21 4 40 9 43 16 10 41-42 41-84 0-48 19-98 48-123 27-24 90-39 114-26 13 7 25 6 40-6 25-17 133-21 157-6 8 5 24 28 35 52 18 36 28 45 67 56 49 14 54 20 95 128 14 38 27 59 36 56 74-22 112-3 158 79 19 33 47 76 61 95s32 62 40 97c16 74 18 220 2 263-5 17-39 71-74 121-85 120-132 211-162 314-13 47-28 93-32 103-9 22 5 22 122-2m-558-142c6-18 11-57 11-88 0-33 6-65 14-77 14-19 13-24-10-57-13-20-36-74-50-119-14-46-50-153-80-239-30-85-54-163-54-172s-5-17-12-17c-8 0-9 34-5 128 9 170 31 293 78 432 22 63 50 143 62 178 11 34 24 62 28 62s12-14 18-31m1672-89c66 0 68-1 126-49 71-59 164-215 141-236-7-7-308-225-668-485s-693-501-740-536l-85-63-12 62c-19 98-17 112 27 169 22 29 47 73 55 98 11 34 31 58 78 98 111 93 152 135 240 245 48 59 94 118 102 131 11 16 29 25 60 30 97 13 149 63 260 254 95 161 154 243 198 272 27 17 42 20 91 16 32-4 89-6 127-6m379-290c0-5-7-10-16-10-8 0-12 5-9 10 3 6 10 10 16 10 5 0 9-4 9-10m122-78c12-24 35-55 52-69 34-28 52-53 38-53-13 0-128 106-153 141l-21 29 24 20c23 19 23 19 31-3 5-12 18-41 29-65M2217 3208c-8-122-20-171-77-303-87-205-117-332-122-521l-3-102 38-54c46-68 47-98 3-180-39-75-63-210-53-311 3-34 29-153 56-263 28-111 51-209 51-219 0-36-65-138-151-234-70-79-96-101-123-106-31-6-372 27-424 41-14 4-59 51-108 112-90 114-114 172-100 245 9 48 87 196 189 361 48 77 92 156 99 175 6 20 12 81 14 136 1 55 3 110 3 121 1 12 16 44 35 71 18 26 36 58 40 70 8 24-9 138-54 372-17 85-30 160-30 167s35 38 78 69l77 56 7-28c14-57 42-392 42-511 1-96 4-125 15-132 26-15 49 7 56 54 7 46-6 256-30 466-7 69-15 141-17 161l-3 37 240 175c132 97 244 176 249 176 5 1 6-43 3-101"
        transform="matrix(.1 0 0 -.1 0 960)"
      ></path>
      <path
        d="M6321 8207c-6-6-11-14-11-19 0-29 142-105 249-133 88-23 271-37 374-29 81 6 87 8 87 28 0 22-2 22-112 18-164-6-347 19-407 57-124 76-164 94-180 78M5632 8030c-35-5-80-18-100-28-41-21-64-64-44-84 8-8 21-2 51 25 56 51 98 57 186 26 82-29 105-27 105 7 0 48-80 70-198 54M4730 7933c-79-40-152-116-178-185-26-70-39-196-23-226 22-42 39-26 50 51 19 126 31 168 53 199 34 48 129 112 197 133 45 13 61 23 59 34-6 30-95 26-158-6M7253 7905c-26-19-29-37-9-54 12-10 23-7 55 13 51 32 64 32 180 0 78-22 95-24 102-13 19 30-64 54-226 65-65 5-84 3-102-11M2341 7344c-94-32-146-68-171-120-24-48-25-67-6-83 16-13 31 0 89 76 18 23 50 53 72 67 35 24 49 26 137 26 82 0 100 3 105 16 19 49-107 59-226 18M2810 7201c-18-35-3-51 49-50 52 2 80-11 181-77 42-27 90-49 135-60 99-24 194-64 264-113 68-46 71-47 71-25 0 26-100 122-154 149-28 14-89 33-136 44-58 13-112 34-170 66-157 88-219 105-240 66M2645 6950c-18-20-18-21 3-36 29-20 28-33-9-106-30-60-29-85 4-72 41 16 86 185 57 219-17 20-33 19-55-5M1589 6774c-10-12-13-40-12-92 3-87-4-105-49-122-79-31-98-43-98-61 0-53 139 13 173 82 11 24 18 64 20 119 2 86-7 106-34 74M1755 6516c-143-45-218-133-219-256-1-59 1-65 21-68 16-2 22 3 27 25 29 152 25 142 74 178 51 38 198 103 250 112 17 3 32 10 32 14 0 13-139 9-185-5M3405 6256c-112-14-137-24-180-74l-31-35h-94c-107-1-355 17-385 28-20 6-20 6-1-9 69-56 459-103 521-62 13 9 29 25 35 36 21 39 86 62 169 60 42-2 81-2 88-1 15 1 25 34 17 55-7 18-3 18-139 2M1672 5958c-52-66-54-144-8-302 37-130 77-203 153-282 43-46 57-54 87-54 21 0 36 5 36 12 0 6-33 45-74 85-56 56-84 94-115 157-53 106-79 223-62 284 21 79 12 135-17 100M4928 4635c-10-21-7-42 16-121 31-109 30-122-21-230-39-82-40-108-3-112 33-4 59 41 94 161l25 87-24 83c-13 46-21 94-18 105 12 49-48 72-69 27M4449 4479c-9-18-5-29 25-73 107-156 229-249 294-225 37 14 25 32-47 77-65 40-134 109-204 205-32 42-51 47-68 16M4982 3648c-22-22-13-58 46-181l57-122-1-255c0-213-5-289-27-464-26-212-25-246 8-246 8 0 19 17 25 39 29 110 70 542 70 747 0 156-11 212-59 304-21 41-46 101-55 133-17 58-37 72-64 45M4813 1915c-32-22-91-117-104-167-15-55-7-88 32-132 52-59 139-70 139-17 0 23-17 37-55 47-68 16-72 52-15 147 53 87 55 158 3 122"
        transform="matrix(.1 0 0 -.1 0 960)"
      ></path>
    </svg>