<svg
      xmlns="http://www.w3.org/2000/svg"
      id="Layer_1"
      x="0"
      y="0"
      version="1.1"
      viewBox="0 0 1112.215 1025.228"
      xmlSpace="preserve"
    >
      <path
      fill="#fff"
        d="M7939 7656c-78-27-120-56-153-107-35-52-112-285-131-393-16-96-20-236-6-236 4 0 16 48 26 108 29 180 71 330 120 430 51 102 66 115 182 147 73 20 72 21 138-65 57-74 90-141 120-246 63-216 91-501 75-754-23-358-79-594-170-709-35-44-46-51-96-61-86-18-149-9-185 26-54 52-106 175-151 357l-40 167 27 40 28 40h174l31 68c43 92 58 198 43 299-18 122-44 145-177 158l-70 7-32-66c-18-36-39-82-47-103l-15-38-311 3-312 3-45 50c-77 85-159 112-342 113-136 0-158-8-220-86-74-94-64-91-310-82-118 5-334 9-480 9-222 1-273 4-315 18-27 9-56 21-64 26-10 6-31 3-62-9-42-17-48-17-53-4-14 36-4 163 24 302 35 176 37 241 10 346-30 119-82 179-193 224-83 34-196 35-281 2-79-30-146-97-177-175-32-82-33-265-2-450 30-181 33-215 20-221-70-26-178-36-472-45-176-5-405-12-508-15l-188-7-74 79-73 78-78 8c-106 10-245-6-314-37-34-16-72-44-100-75l-45-49-347-3-347-3-44 100-44 100-74-3c-41-2-88-10-105-17-38-16-72-80-80-152-7-58 21-255 43-296 18-36 68-57 152-64 62-5 69-8 89-39l22-33-34-149c-42-181-65-244-118-323-47-70-81-89-158-89-86 0-153 39-190 110-36 70-90 248-112 370-21 112-23 155-23 425 0 269 2 313 23 430 40 224 101 372 198 482l40 47 65-18c113-32 135-49 185-151 48-97 90-248 119-427 10-60 22-108 26-108 14 0 10 142-6 229-40 209-106 381-171 446-62 62-199 93-264 60-57-29-129-141-172-265-21-61-101-430-102-470 0-14 4-49 8-77l8-53H481l-23-72c-23-76-31-231-12-246 5-4 176-5 380-2 349 5 373 6 393 24 16 15 18 21 9 28-7 4-176 8-375 8H490v200h370c204 0 370-1 370-2 2-80 44-508 55-568 37-198 119-393 183-437 18-12 72-30 120-41l87-20 45 33c82 60 123 121 166 246 46 134 55 196 61 402l6 197h717l4-22c14-68 18-115 31-354 15-269 31-389 67-509 21-73 80-199 98-210 5-3 41-51 80-105 78-110 105-133 173-150 46-12 48-11 141 38 51 28 165 95 252 150 88 54 170 105 184 112 87 44 201 166 215 230 9 40 24 38 58-10 39-55 57-113 57-184 0-78 11-115 72-255 49-111 51-116 58-245 4-72 15-186 25-253 19-140 18-142-62-241-67-82-73-103-73-247v-125l-49-122c-62-156-95-263-115-367-21-107-20-121 2-121 21 0 52 30 52 50 0 7 16 60 36 119 34 104 79 195 135 276 26 39 27 45 33 210 2 94 10 190 16 215 16 64 67 163 100 195l27 26 263-26c221-21 279-24 359-16 53 5 137 13 186 16 50 4 126 13 170 21l80 14 23-28c29-35 90-154 138-267 38-89 38-92 45-260 6-166 7-172 42-255 34-81 59-189 71-313 6-55 5-58-20-67-15-6-88-15-163-20-147-10-177-18-354-94-60-25-115-46-122-46s-41 41-76 91-72 101-82 113c-18 21-18 20-14-39 3-33 19-106 37-163 30-92 36-104 65-118 50-23 67-48 133-190 75-164 135-341 162-481 24-123 44-173 122-296 63-98 57-68 79-447 19-346 16-335 123-548 52-103 107-226 124-273 37-106 55-261 50-451l-3-137h158l-34 35-34 35-6 187-5 187-58 150c-32 83-70 186-86 230-15 44-54 133-86 198l-58 118-7 212c-4 117-10 234-14 261l-8 49 55-42c53-40 114-68 124-58 5 5-68 98-176 222-104 121-179 292-219 498-16 83-20 151-22 365-2 301-6 286 90 323 48 18 76 21 205 20 109-1 152-4 158-13 16-27 31-127 30-216 0-61-10-140-27-227l-27-135 21-51c31-71 49-173 57-324 3-76 11-134 18-140 34-30 48-59 66-136 20-81 151-464 173-504 6-11 10-63 8-120-5-222 28-545 80-770 28-126 31-133 104-242l75-113h45c25 0 45 3 45 6s-27 36-60 72c-34 37-72 91-86 119-30 60-77 284-94 443-12 113-81 614-104 745-7 44-52 208-100 365-47 156-86 296-86 310s-12 100-27 193c-25 156-26 174-14 260 9 70 10 114 1 187-15 125-15 251 0 295 11 34 10 39-39 116l-51 80-3 122c-3 101-8 136-31 202-24 69-28 103-35 255-7 144-12 185-30 229-31 78-68 137-130 210-61 72-59 42-21 291 11 74 20 165 20 201 0 73 17 128 78 259 26 57 45 117 56 181 10 53 28 138 41 189 13 52 22 96 20 98s-32-23-66-57c-45-43-65-57-71-48-5 6-20 34-35 62-14 27-36 67-49 87-13 21-24 42-24 46 0 5 27 26 60 46l60 37v167l46 57 47 57-44-7c-72-11-79-15-79-41 0-29-89-200-129-246-14-18-59-47-101-66l-75-35-67 18c-68 18-240 26-254 13-11-11 26-49 62-64 17-7 73-16 125-19 52-4 109-11 127-17 26-8 38-6 66 11 21 13 50 21 77 21 43-1 45-2 94-73 83-120 89-138 88-255-1-57-4-106-8-110-3-4-19 8-34 26l-27 33-18-20c-26-28-35-27-66 11l-27 32-38-32c-44-39-81-55-111-48-18 5-25-2-42-42-33-77-52-152-52-206 0-28-14-118-30-201-17-82-30-159-30-169 0-19 0-19 21 0 28 26 65 90 79 139 6 22 17 95 25 163 8 67 22 149 31 182l16 59 74 31c40 16 101 33 135 37 59 6 62 5 54-13-30-71-48-143-61-243-30-247-46-329-73-369-22-36-319-76-536-74-209 2-471 33-524 62-25 13-56 125-90 330-17 96-34 195-40 220-19 81-20 80 63 80 66 0 81-4 129-32 49-29 60-42 92-109 31-63 36-82 31-115-11-64 11-191 43-259 33-67 76-124 86-113 4 4-5 62-20 130-16 68-31 168-34 223-6 82-14 118-45 200-21 55-39 101-41 103s-21-2-42-8c-38-12-40-11-76 25-45 45-84 46-105 2l-14-29-25 24-25 23-28-32c-16-18-32-28-35-23s-12 62-20 126c-19 154-31 187-83 245l-45 50 27 49c26 47 26 51 13 97-8 26-17 48-21 48s-20-31-35-70c-75-185-191-320-351-407-36-19-120-73-187-120-125-88-202-127-263-135-31-4-37-1-54 29-11 18-65 79-119 135l-100 103-38 136c-69 242-82 369-66 639 8 118 6 147-7 184-14 38-15 60-5 160 16 172 6 156 101 169 46 7 131 12 190 12h108l19-37c10-21 40-66 65-101 33-44 44-67 38-78-5-8-43-45-84-82-103-91-115-108-128-185-11-70-8-104 17-230 21-102 62-168 181-292 91-95 92-96 102-70 22 58 14 76-69 156-75 72-81 81-105 158-20 64-46 236-46 308 0 6 30 28 66 48s81 51 101 68l35 31 205 4 205 5-27-43c-47-75-112-240-94-240 25 0 103 93 148 175 79 146 134 175 334 175l102 1 25 33c20 28 41 39 125 66 55 18 106 35 113 37 7 3 14-7 18-26 4-17 9-31 12-31s19 17 37 37l32 37 64-41c35-22 88-52 117-67 53-27 54-27 102-11 28 9 77 41 119 75 39 33 74 60 78 60 5 0 26-26 48-56l40-56 3 45 3 46 117-41c90-32 124-49 147-74l30-33 126-3c113-3 131-7 182-32 52-25 62-35 101-104 25-43 56-96 71-120 28-45 91-99 102-88 9 8-51 158-88 219-16 26-29 50-29 53 0 4 89 5 198 2l197-4 60-44c33-25 82-56 108-70 37-20 47-30 47-50 0-58-32-231-56-303-24-71-31-82-95-139-70-63-96-108-83-144 11-29 26-46 33-36 3 6 47 53 96 107 107 115 138 164 161 259 19 75 25 238 11 291-5 19-46 66-114 131l-107 101 35 41c19 23 51 68 69 101l35 60h115c63 0 149-6 190-12l75-12 7-50c27-179 27-175 8-266-16-79-17-104-7-236 14-200 1-327-58-547l-45-169-93-96c-52-53-106-116-122-139-15-23-36-42-45-42-50 0-138 43-275 135-82 56-178 116-212 134-132 70-266 232-329 395-16 42-31 76-34 76s-13-23-21-51l-16-50 66-117c98-173 146-217 426-387 127-76 259-154 295-172 64-33 65-33 118-20 63 17 104 53 172 152 26 39 57 80 68 91 32 34 80 135 106 228 36 121 54 260 66 506 6 118 15 244 20 280s10 71 10 78c0 9 73 12 329 12h329l-6-168c-4-149-2-178 18-267 50-221 114-346 214-414l42-29 87 20c111 25 142 47 189 133 71 130 118 315 138 550 6 72 15 177 21 234 5 58 9 110 9 118 0 11 69 13 370 13h370v-200h-370c-222 0-370-4-370-9s13-19 28-30c27-19 45-20 393-22l364-1 8 43c10 55 1 135-24 216l-20 63h-771l8 53c12 77 11 84-34 297s-63 273-111 367c-40 80-81 126-135 152-53 26-56 26-137-3m-2993-87c121-45 150-114 141-329-8-193-72-397-163-521l-45-60-47 7c-26 3-66 14-89 25-38 16-47 26-78 94-80 175-119 338-119 490 0 184 33 253 140 295 69 27 186 27 260-1m-3146-711c0-2-7-28-15-58-20-74-19-241 1-309 8-29 13-55 10-58s-27 4-53 15l-48 21-3 190-2 190 37 4c67 7 73 7 73 5m6086-8h24v-377l-50-23c-27-13-53-21-56-18s2 30 10 59c20 68 21 235 1 309-8 30-15 57-15 59s14 1 31-3c17-3 42-6 55-6m-6004-185c3-88 7-167 9-175 3-10-5-16-22-18-23-3-27 2-33 30-24 118-16 269 17 332 18 35 24-3 29-169m5883 114c8-30 15-79 15-109 0-56-17-190-25-198-2-2-15-2-28 2-22 5-23 8-16 53 4 27 8 103 8 170 1 169 16 196 46 82m-4350-90c22-5 141-10 265-9 249 1 363-7 357-23-8-24-210-64-388-77-79-5-169-13-200-16l-55-6-17 61c-25 90-27 87 38 70m2901-5c-4-9-11-37-18-63-6-25-14-50-18-54-10-11-227 8-449 39-96 13-210 27-253 30-43 4-80 10-83 14-7 12 430 33 552 26 85-4 135-2 178 8 85 19 98 19 91 0m-3612-29c0-5-15-20-34-32-32-23-38-23-350-23-175 0-338-3-364-6l-46-7v84l398-3c257-2 397-7 396-13m4986-22v-38l-327 3-328 3-37 26c-21 14-35 29-33 34 3 4 167 8 365 9l360 1v-38M5180 3095c0-85-3-155-8-155-4 0-18 28-31 63-13 34-39 93-58 131-19 37-33 69-31 70 5 4 112 44 121 45 4 0 7-69 7-154"
        transform="matrix(.1 0 0 -.1 0 805)"
      ></path>
      <path
      fill="#fff"
        d="M1549 7500c-49-82-80-175-116-348-24-119-27-150-32-482-4-195-6-356-5-358s12 11 24 28c21 29 22 40 24 328 2 258 5 312 24 409 25 129 62 251 103 341 31 69 48 152 31 152-6 0-30-31-53-70M7994 7531c4-24 27-94 52-155 151-369 155-1004 9-1455-19-58-32-107-29-110s14 5 25 19c98 121 150 409 150 826 0 247-13 396-47 551-40 180-89 299-145 349l-22 19 7-44M4313 6573c-18-9-33-20-33-23 0-4 61-24 136-45 163-45 255-89 308-144 25-26 52-43 74-47 30-6 38-2 80 39 61 59 126 90 275 132 155 44 252 84 238 98-19 19-156-10-279-59-65-26-147-54-185-62-54-13-66-19-62-33 4-12-3-18-26-23-54-11-68-7-75 18-5 20-33 33-197 95-106 39-199 71-207 71-8-1-30-9-47-17M2945 6524c-76-27-71-24-55-34 27-17 230-7 230 12 0 14-66 38-102 37-18 0-51-7-73-15M6591 6527c-44-22-35-34 30-41 85-8 151-7 168 3 17 11 9 15-58 35-65 19-107 20-140 3M1410 6294c0-3 11-68 25-143 27-150 43-204 79-266 24-40 66-85 66-70 0 4-20 69-44 145-46 141-71 273-60 316 6 22 3 24-30 24-20 0-36-3-36-6M3625 6216c-125-30-232-116-285-228-17-36-26-64-20-66s57 41 114 95c125 121 166 143 264 143 40 0 72 2 72 5 0 4-7 19-15 35-18 34-43 37-130 16M4050 6205c5-14 17-39 25-56 12-23 16-53 13-121l-3-90 43 6c42 6 45 4 126-68 121-108 125-110 188-97 29 5 115 15 191 21 75 6 149 15 165 22l27 11-29 8c-60 17-221 30-290 24l-73-7-84 55c-110 71-148 111-192 201-39 80-70 116-99 116-15 0-16-4-8-25M5918 6201c-9-16-14-32-10-35 3-3 35-6 71-6 94-1 136-23 256-140 129-125 151-132 99-28-55 108-159 191-279 223-90 23-117 20-137-14M3720 5993c-55-103-158-232-233-294-89-74-89-72-32-64 29 4 64 17 84 32 88 67 188 187 238 288 35 69 36 81 9 98l-25 16-41-76M5887 6052c-22-25-22-34 9-95 43-86 109-171 189-245 65-59 83-70 122-76 52-7 68 0 38 16-78 43-259 262-309 376-21 47-26 50-49 24"
        transform="matrix(.1 0 0 -.1 0 805)"
      ></path>
      <path
      fill="#fff"
        d="M4193 5837c-44-40-67-93-78-177l-6-45 25 30c37 43 109 188 104 211-3 16-9 13-45-19M4685 5698c-22-16-90-62-150-101l-110-72-27 30c-20 23-34 30-64 29-43 0-154-46-154-64 0-13 59-7 118 12 32 10 37 8 75-29 78-73 69-72 140-6 35 32 88 71 118 86 30 14 76 47 102 71l48 45-28 14c-26 14-31 13-68-15M4885 5707l-27-23 111-68c62-37 138-91 169-120l57-52 38 14c20 8 37 17 36 21-1 16-121 105-184 137-38 19-91 53-117 75-26 21-49 39-52 39s-17-10-31-23M4805 5660c-3-14-4-106-3-205 2-99-1-214-6-255-6-59-5-83 6-110l15-35 24 48c14 30 30 47 41 47 27 0 98 31 98 42 0 7-24 8-65 3l-66-7 7 154c7 158-4 268-31 318l-13 25-7-25M5269 5569c-33-33-9-47 86-51s106 12 36 49c-55 29-95 29-122 2M5323 5245c-49-33-83-76-98-122-9-31 8-29 52 5 65 49 136 152 105 152-4 0-30-16-59-35M4280 5237c0-44 103-137 127-114 13 13-11 63-46 99-44 44-81 51-81 15M5300 4553c-14-2-68-14-120-25-81-18-141-22-415-28-293-6-326-8-387-28-98-33-97-45 3-38 196 13 370 15 619 7l265-9 52 57c29 31 53 59 53 64 0 7-26 7-70 0M4630 4299c-161-11-392-49-387-63 6-19 69-56 121-71 28-8 116-19 196-24s158-14 175-21l30-11-25-20c-14-10-76-35-137-55-62-21-113-41-113-47 0-5 12-7 28-4 15 3 93 12 175 18 140 12 326 4 403-17 18-5 24 1 39 41l18 46 124-7c77-4 123-3 123 3 0 17-46 53-78 62-17 5-72 11-123 12l-92 3-17-44c-9-25-19-52-23-61-5-15-12-15-83 5-88 24-110 45-79 75 11 10 46 26 78 35 62 18 116 58 85 64-9 2-56-6-105-18-120-28-189-33-247-18-59 16-69 34-24 43 44 10 99 38 122 64l19 21-44-1c-24-1-96-6-159-10M4560 3783c19-21 71-75 115-120l80-83h120l113 113c61 62 112 116 112 120 0 13-34 7-77-13-24-10-66-42-95-71-50-51-52-51-103-47-42 4-65 14-119 51-130 91-208 117-146 50M3803 3445c-24-41-43-80-43-87 0-6 10-22 22-35 20-22 21-26 10-105-20-146-24-250-12-318 23-128 23-147 2-237-12-48-26-131-32-183-13-110-38-211-109-439-28-91-60-212-71-268-22-112-27-234-10-217 6 6 32 77 59 160 27 82 61 181 76 219 14 39 33 100 40 137 17 80 39 135 64 163 15 16 20 43 24 140 6 135 26 242 61 332l24 61-24 82c-49 167-53 314-14 453 15 51 42 60 160 54 112-7 199-30 371-99l127-51-28-61c-15-33-34-80-40-103-7-24-16-43-20-43-5 0-21 29-36 65-16 36-31 65-35 65-9 0-17-69-29-250-21-291-41-372-161-620l-79-166-11-114c-5-63-7-146-4-185 3-38 2-121-4-183-9-103-15-123-57-215-26-56-89-214-141-351-103-275-103-271-88-485l8-102-30-32c-63-69-64-67 18-67h74v202c0 275 13 323 185 689 101 214 96 190 110 549 6 135 15 267 20 295 6 28 34 89 64 140 68 116 76 136 135 369 34 132 69 240 107 328 64 151 76 172 150 248 42 44 60 72 83 136 16 45 33 110 37 145l7 64-27-24c-14-14-54-64-88-113-35-48-66-88-69-88-4 0-38 14-76 31-37 17-113 46-168 66-89 31-115 36-235 42-123 6-139 9-182 34-26 15-50 32-53 37-12 19-20 10-62-65"
        transform="matrix(.1 0 0 -.1 0 805)"
      ></path>
      <path
      fill="#fff"
        d="M4204 3279c-4-7-9-56-12-110-4-80-1-109 17-169 14-44 26-69 32-63 15 15 16 242 0 296-15 51-25 64-37 46M5380 3270c0-23 36-78 104-163 77-96 89-96 61 0-23 79-53 130-91 153-34 22-74 26-74 10M3999 3063c-5-16-14-39-19-53-24-63-31-123-20-177 6-29 15-51 19-48 5 2 21 51 36 109 21 79 26 115 21 150-8 52-22 59-37 19M5314 2815c-8-34 1-170 15-216 10-31 17-37 67-53 119-37 178-20 222 65 20 38 23 53 17 109-8 82-20 96-35 39-17-68-50-135-81-165-27-26-30-27-66-13-48 19-74 64-97 169-18 86-32 106-42 65"
        transform="matrix(.1 0 0 -.1 0 805)"
      ></path>
      <path
      fill="#fff"
        d="M4241 2765c-42-124-74-172-133-194-26-10-28-7-72 67-24 42-50 89-57 105-20 45-29 31-29-48 0-74 1-77 38-116 60-65 154-70 228-14 48 36 71 128 56 220l-8 50-23-70M5579 2404c-20-24-15-96 14-184l25-75 30 65 29 65-35 65c-45 83-46 84-63 64M3949 2368c-22-52-18-151 7-184 36-49 46-43 43 27-3 56 1 69 25 107 16 23 27 44 25 46-9 7-73 36-79 36-4 0-14-15-21-32M3787 1860c-4-8-20-69-37-135-16-66-39-154-50-195-15-55-23-129-30-275-5-110-15-252-21-315-8-86-8-126 0-157 16-58 31-64 31-11 0 60 25 257 45 347 8 41 20 128 25 193s19 211 30 324c20 197 22 260 7 224M5784 1830c11-59 34-276 51-459 9-108 24-208 40-265 26-98 45-228 45-314 0-30 4-51 9-47 17 10 23 130 11 221-6 49-15 172-20 274-10 214-26 308-81 475-41 127-66 178-55 115M5585 1803c23-61 47-176 70-340 15-103 32-191 39-196 6-4 20-6 31-5 18 3 20 9 17 73-2 39-21 144-42 235-22 91-42 184-46 208-6 40-8 42-41 42-29 0-34-3-28-17M3535 1439c-23-44-29-81-50-287-30-290-40-355-71-484-23-97-26-103-104-199-44-55-80-102-80-104 0-3 19-5 43-5l42 1 96 128 96 128 17 149c34 304 59 724 43 724-4 0-18-23-32-51M3523 448c-5-7-22-30-38-50l-27-38h29c26 0 32 6 47 43 9 23 16 46 16 50 0 11-17 8-27-5M6040 455c0-2 10-25 22-50 19-38 26-45 52-45 29 0 29 0 10 23-56 68-84 91-84 72"
        transform="matrix(.1 0 0 -.1 0 805)"
      ></path>
    </svg>